<?xml version="1.0" standalone="no"?>
<!DOCTYPE svg PUBLIC "-//W3C//DTD SVG 1.1//EN" "http://www.w3.org/Graphics/SVG/1.1/DTD/svg11.dtd" >
<svg xmlns="http://www.w3.org/2000/svg" xmlns:xlink="http://www.w3.org/1999/xlink" version="1.1">
<metadata>
Created by FontForge 20200427 at Sat Apr 13 12:15:26 2019
 By www
Copyright (c) 2019 by Amarlettering_Kamaruddin. All rights reserved.
</metadata>
<defs>
<font id="Reading" horiz-adv-x="304" >
  <font-face 
    font-family="Reading"
    font-weight="400"
    font-stretch="normal"
    units-per-em="1000"
    panose-1="2 0 5 3 0 0 0 2 0 2"
    ascent="800"
    descent="-200"
    x-height="432.5"
    cap-height="852"
    bbox="-1623.33 -500 1949.33 1118"
    underline-thickness="50"
    underline-position="-100"
    unicode-range="U+000D-E03F"
  />
<missing-glyph horiz-adv-x="200" 
 />
    <glyph glyph-name=".notdef" horiz-adv-x="200" 
 />
    <glyph glyph-name="NULL" horiz-adv-x="0" 
 />
    <glyph glyph-name="NULL" horiz-adv-x="0" 
 />
    <glyph glyph-name="nonmarkingreturn" unicode="&#xd;" horiz-adv-x="200" 
 />
    <glyph glyph-name="space" unicode=" " horiz-adv-x="200" 
 />
    <glyph glyph-name="h" unicode="h" horiz-adv-x="404" 
d="M167 643l-76 -453q21 41 43.5 81.5t36.5 63.5q26 40 46 61t46 11q23 -9 33.5 -28t12.5 -42t-1 -46t-7 -40q-5 -20 -9.5 -42.5t-8.5 -44.5t-6.5 -42.5t-2.5 -36.5q1 -21 7 -30t16 -8t21.5 11.5t22.5 30.5q15 27 30.5 57.5t32.5 63.5l18 -10q-17 -36 -33 -69.5t-30 -56.5
q-23 -38 -49.5 -56.5t-50.5 -17.5t-41.5 21.5t-22.5 61.5q-4 30 -2 63t7 66t12 64t13 58q8 38 -3.5 30t-34.5 -46q-4 -6 -15.5 -27.5t-27.5 -50.5t-33 -61.5t-32 -60.5l-21 -117q-16 -9 -31.5 -3.5t-26.5 21.5t-16.5 39t-1.5 49q23 141 40 257t28 200t17 132t8 54
q16 9 34.5 3t33 -22t22.5 -39.5t2 -48.5z" />
    <glyph glyph-name="i" unicode="i" horiz-adv-x="215" 
d="M148 546q16 -16 16 -40.5t-15 -41.5q-16 -16 -40 -17.5t-42 14.5q-9 9 -13 20t-4 23t4 23t12 19q17 17 41 17t41 -17zM234 200q-17 -36 -32.5 -69.5t-30.5 -56.5q-21 -32 -50.5 -45.5t-57 -7.5t-48.5 32t-24 73q-2 23 1 55t8 65.5t12 67t13 60t10.5 44.5t5.5 20
q16 9 33 3t30 -22t19.5 -39.5t0.5 -48.5q0 -3 -4.5 -21.5t-10.5 -47t-12 -63t-10 -69.5q-3 -20 2 -37.5t15.5 -24t25 2t31.5 38.5q7 13 13.5 24.5l13 23t13.5 24t15 29.5z" />
    <glyph glyph-name="j" unicode="j" horiz-adv-x="167" 
d="M-31 13q-22 -26 -40 -46.5t-33 -38.5t-28.5 -36t-25.5 -39q-14 -26 -21.5 -56.5t-5.5 -53.5q3 -32 14 -46.5t25 -14.5t28.5 13.5t25.5 38.5q8 19 18.5 58.5t19.5 82.5t15.5 81.5t7.5 56.5zM-23 58q11 78 17.5 125t9.5 75t4.5 43t3 29t3.5 32.5t7 54.5q16 9 33 4.5
t30.5 -19.5t20.5 -39t2 -53l-23 -170q12 11 17.5 15.5t11.5 10t17.5 14.5t35.5 30l14 -20q-27 -23 -41 -35t-23 -20t-17 -15t-22 -20q-6 -48 -12.5 -102t-17 -106.5t-25.5 -100.5t-39 -84q-26 -39 -59.5 -55t-63.5 -10.5t-51 31.5t-22 71q-1 35 9.5 70t28.5 64
q15 24 30.5 45t34 42t39.5 43.5t47 49.5zM115 546q16 -16 16 -40.5t-15 -41.5q-16 -16 -40 -17.5t-42 14.5q-9 9 -13 20t-4 23t4 23t12 19q17 17 41 17t41 -17z" />
    <glyph glyph-name="k" unicode="k" horiz-adv-x="371" 
d="M391 196q-26 -48 -55 -81.5t-57 -54t-52.5 -29t-42.5 -7.5q-37 2 -64 30t-46 64l-21 -117q-16 -9 -31.5 -3.5t-26.5 21.5t-16.5 39t-1.5 49q23 141 40 257t28 200t17 132t8 54q16 9 34.5 3t33 -22t22.5 -39.5t2 -48.5l-45 -262q26 21 55 38.5t57 23t52.5 -4.5t41.5 -43
q2 -4 0 -7.5t-6 -6t-8 -2.5t-5 3q-11 25 -33.5 25t-50.5 -16.5t-59 -44t-59 -55.5l-2 -15q7 -35 18 -72.5t27 -68t36.5 -49t48.5 -14t63 36t78 101.5z" />
    <glyph glyph-name="l" unicode="l" horiz-adv-x="209" 
d="M-1 214q19 118 32.5 215t22.5 166.5t14 109.5t7 45q16 9 34.5 3t33 -22t22.5 -39.5t2 -48.5q-24 -140 -41.5 -245.5t-30.5 -183.5q-3 -20 -7.5 -48t-6.5 -48q-5 -33 0 -50.5t15 -20.5t23.5 8t26.5 34q15 27 30.5 57.5t32.5 63.5l18 -10q-17 -36 -33 -69.5t-30 -56.5
q-30 -50 -65 -65t-62 3t-39.5 69t1.5 133z" />
    <glyph glyph-name="m" unicode="m" horiz-adv-x="619" 
d="M-18 107q12 96 19 156.5t11.5 94.5t6 47.5t2.5 15.5q16 9 34.5 3t33 -22t22.5 -39.5t2 -48.5l-20 -120q21 41 42.5 79.5t35.5 61.5q26 40 46 61t46 11q23 -9 33.5 -28t12.5 -42t-1 -46t-7 -40q-5 -24 -8.5 -45t-7.5 -46l-3 -17q12 24 26.5 51.5t28.5 53.5t27 49t22 38
q26 40 46 61t46 11q23 -9 33.5 -28t12.5 -42t-1 -46t-7 -40q-5 -20 -9.5 -42.5t-8.5 -44.5t-6.5 -42.5t-2.5 -36.5q1 -21 7 -30t16 -8t21.5 11.5t22.5 30.5q15 27 30.5 57.5t32.5 63.5l18 -10q-17 -36 -33 -69.5t-30 -56.5q-23 -38 -49.5 -56.5t-50.5 -17.5t-41.5 21.5
t-22.5 61.5q-4 30 -2 63t7 66t12 64t13 58q8 38 -3.5 30t-34.5 -46q-4 -6 -14 -23.5t-23.5 -42.5t-29 -54t-30 -56t-26 -50l-17.5 -35q-1 -3 -1 -5l-1 -1q-16 -9 -30 -4t-24.5 19.5t-15.5 36.5t-2 48q0 5 1 8q2 50 14.5 92t21.5 83q8 38 -3.5 30t-34.5 -46q-4 -6 -15.5 -27
t-27 -49.5t-32.5 -60.5t-32 -60q-19 -114 -22 -120q-16 -9 -31 -3.5t-26 21.5t-16.5 39t-2.5 49z" />
    <glyph glyph-name="n" unicode="n" horiz-adv-x="398" 
d="M-18 107q12 96 19 156.5t11.5 94.5t6 47.5t2.5 15.5q16 9 34.5 3t33 -22t22.5 -39.5t2 -48.5l-20 -120q21 41 42.5 79.5t35.5 61.5q26 40 46 61t46 11q23 -9 34 -28t14.5 -42t1 -46t-6.5 -40q-5 -20 -9.5 -42.5t-8.5 -44.5t-6.5 -42.5t-2.5 -36.5q2 -42 20.5 -38.5
t41.5 42.5q15 27 30.5 57.5t32.5 63.5l18 -10q-17 -36 -33 -69.5t-30 -56.5q-23 -38 -49.5 -56.5t-50.5 -17.5t-41.5 21.5t-22.5 61.5q-4 30 -2 63t7 66t12 64t13 58q8 38 -3.5 30t-34.5 -46q-4 -6 -15.5 -27t-27 -49.5t-32.5 -60.5t-32 -60q-19 -114 -22 -120
q-16 -9 -31 -3.5t-26 21.5t-16.5 39t-2.5 49z" />
    <glyph glyph-name="o" unicode="o" 
d="M323 215q-16 -41 -45 -62.5t-56 -23.5q-5 -13 -11 -24t-11 -19q-25 -35 -57 -45.5t-62 -0.5t-52 39t-28 74q-4 31 -2.5 63t8 62t17.5 57t26 47q28 37 64.5 50t69 5t55.5 -36.5t23 -74.5q0 -35 -8 -81t-22 -88q14 1 32.5 17.5t39.5 56.5zM125 328q-6 -15 -10.5 -37
t-8.5 -46t-6 -47t-3 -39q-1 -32 7 -49.5t20 -23t27 0.5t27 22q4 5 8 11t7 13q-16 8 -23.5 25.5t-0.5 47.5q1 5 7 8.5t13 3.5t12.5 -3t5.5 -10q-3 -19 2 -32q13 39 18.5 81.5t5.5 69.5q0 33 -11.5 51.5t-28 20t-35.5 -15t-33 -52.5z" />
    <glyph glyph-name="p" unicode="p" horiz-adv-x="379" 
d="M113 316l-6 -33q10 20 21 40.5t24 37.5q15 21 32.5 37t37 23t40.5 3t44 -23q21 -25 28 -61.5t3 -76.5t-18 -78t-35 -66q-28 -38 -70 -53t-84 4q-34 16 -51 47q-38 -221 -55.5 -328.5t-19.5 -114.5q-16 -9 -31.5 -3.5t-26.5 21.5t-16.5 39t-1.5 49q23 141 40 257t28 200
t17 132t8 54q16 9 34.5 3t33 -22t22.5 -39.5t2 -48.5zM84 150q23 -47 55 -42q26 3 41 23.5t23 40.5q16 36 23 81.5t4 83.5q-1 18 -7 26t-15 7t-20 -10t-22 -24q-14 -21 -33.5 -56t-39.5 -81z" />
    <glyph glyph-name="q" unicode="q" horiz-adv-x="424" 
d="M186 136q-14 -21 -31 -37t-36 -23t-40.5 -3t-45.5 23q-21 25 -29.5 61.5t-6.5 76.5t14.5 78t32.5 66q27 38 69 53t84 -4q17 -9 32 -22.5t25 -34.5q4 29 18.5 49.5t32 30.5t35 9t29.5 -15q-7 -36 -10.5 -54.5t-6.5 -32t-6.5 -28t-9 -42t-14.5 -74t-24 -124.5
q42 38 77 72.5t49 48.5l17 -20l-17 -17t-31.5 -30.5t-40 -38.5t-42.5 -41q18 -41 35.5 -84.5t28 -86t12 -81.5t-10.5 -70q-17 -41 -45.5 -59.5t-58 -15.5t-55.5 26.5t-37 66.5q-11 42 -10.5 92.5t7.5 103.5t18 106t21 100v2.5t0.5 5.5t2 11t3.5 20q-15 -35 -35 -64zM189 389
q-26 -3 -40.5 -23.5t-20.5 -40.5q-15 -36 -20.5 -81.5t-0.5 -83.5q4 -37 23.5 -33.5t40.5 34.5q14 22 32.5 58.5t37.5 84.5l6 31q-24 59 -58 54zM288 37q-5 -17 -10.5 -55t-10 -80t-7 -81.5t-0.5 -59.5q1 -21 10.5 -36.5t22.5 -20t28 5t28 38.5q11 28 8 66.5t-14 79
t-26.5 78.5t-28.5 65z" />
    <glyph glyph-name="r" unicode="r" horiz-adv-x="372" 
d="M-24 107q18 96 29 156.5t17 94.5t8.5 47.5t3.5 15.5q16 9 34.5 3t32 -22t19.5 -39.5t-1 -48.5q0 -1 -0.5 -1.5t-0.5 -1.5q14 19 31.5 38t36.5 36q16 13 35 22t37.5 11t34.5 -3.5t27 -20.5q6 -9 8.5 -25.5t1 -34t-6.5 -32.5t-14 -22q-12 38 -38.5 48t-57.5 0t-61.5 -35
t-50.5 -57q-27 -116 -41 -173t-16 -62q-17 -9 -31.5 -3.5t-24 21.5t-13.5 39t1 49z" />
    <glyph glyph-name="s" unicode="s" horiz-adv-x="222" 
d="M229 186q-23 -11 -52 -22.5t-59 -23.5q4 -23 6 -49t0.5 -51.5t-7 -49t-16.5 -41.5q-15 -23 -34 -36t-39 -17.5t-40 -0.5t-36 15q-17 12 -27 30.5t-9.5 41t12 47.5t36.5 51q24 24 59 44q-10 37 -23.5 74t-23 73t-11 71t13.5 68q11 25 32 40.5t46 20.5t49.5 0.5t43 -19.5
t26.5 -40.5t-1 -60.5q-5 -6 -12.5 -4.5t-6.5 7.5q6 30 -6.5 50t-30.5 26t-35.5 -3.5t-21.5 -37.5q-4 -27 2 -59t16 -62.5t19.5 -57t13.5 -44.5l109 45zM-27 50q-29 -34 -27 -63.5t22 -43.5q17 -11 37 0t30 49q5 26 3 53t-8 53q-16 -10 -30.5 -22t-26.5 -26z" />
    <glyph glyph-name="t" unicode="t" horiz-adv-x="209" 
d="M-46 436q-8 2 -6.5 11.5t7.5 10.5h80q6 45 9 71t5 39.5t2.5 18.5t2.5 9q16 9 33.5 3t31.5 -21.5t21.5 -39t1.5 -48.5q-2 -8 -2.5 -11.5t-1 -6t-1 -5.5l-1.5 -9h62q6 -3 5.5 -11.5t-5.5 -10.5h-66q-7 -41 -12 -68.5t-8.5 -51t-7.5 -47t-9 -55.5q-3 -20 -7.5 -48t-6.5 -48
q-5 -33 0 -50.5t15 -20.5t23.5 8t26.5 34q15 27 30.5 57.5t32.5 63.5l18 -10q-17 -36 -33 -69.5t-30 -56.5q-30 -50 -65 -65t-62 3t-39.5 69t1.5 133q10 63 17.5 120.5t15.5 101.5h-78z" />
    <glyph glyph-name="u" unicode="u" horiz-adv-x="428" 
d="M446 200q-17 -36 -32.5 -69.5t-30.5 -56.5q-21 -32 -50.5 -45.5t-57 -7.5t-48.5 32t-24 73q-2 14 -1 31.5t3 37.5q-13 -31 -23.5 -57t-16.5 -38q-20 -39 -47 -58t-52.5 -17.5t-45 22.5t-24.5 62q-5 35 -0.5 84t11 95.5t13.5 83t9 46.5q16 9 33 4t30 -20.5t20 -38t2 -47.5
q-17 -77 -25.5 -126.5t-8.5 -78.5q1 -21 8 -30.5t16.5 -8.5t21 12t21.5 31q4 10 12.5 30t18 44t20.5 50t20 47q5 28 11 54.5t11 47.5t8.5 34.5t4.5 15.5q16 9 33 3t30 -22t19.5 -39.5t0.5 -48.5q0 -3 -4.5 -21.5t-10.5 -47t-12 -63t-10 -69.5q-3 -20 2.5 -37.5t16 -24t25 2
t31.5 38.5q7 13 13.5 24.5t12.5 23t13 24t15 29.5z" />
    <glyph glyph-name="v" unicode="v" horiz-adv-x="354" 
d="M23 54q-19 38 -24.5 85.5t-2 98.5t12.5 102t18 95q28 7 46 -2t28.5 -27t13 -41t-0.5 -42q-4 -26 -10.5 -55t-12.5 -59t-9.5 -58.5t-2.5 -52.5q1 -33 10.5 -43.5t23 -6.5t27 17.5t21.5 30.5q15 30 29 73.5t26 91t23 95.5t20 87q1 3 5 4.5t8.5 1t8 -3t3.5 -6.5
q-2 -21 -1 -59t7.5 -76t21.5 -66t42 -28l3 -26q-26 -3 -43 12.5t-28.5 39.5t-17 50.5t-8.5 44.5q-7 -29 -15.5 -65t-18.5 -71.5t-21 -65.5t-22 -48q-14 -27 -34.5 -46.5t-43 -25.5t-44.5 3.5t-38 41.5z" />
    <glyph glyph-name="w" unicode="w" horiz-adv-x="577" 
d="M508 440q-1 -14 -1.5 -36t1.5 -47.5t6 -51.5t12.5 -47t20.5 -34.5t30 -13.5l3 -23q-26 -3 -43 12t-28.5 38t-17 49.5t-8.5 44.5q-7 -29 -15.5 -65t-18.5 -71.5t-21 -65.5t-22 -48q-19 -31 -41 -50.5t-48 -21.5t-53 18.5t-42 64.5q-9 32 -13 64t-2 70q-17 -41 -31.5 -72.5
t-32.5 -57.5q-14 -17 -27 -29t-30 -14q-24 -4 -48.5 16t-32.5 64q-5 30 -4 70.5t7 84t16 86t24 76.5q24 5 40.5 -5.5t25.5 -29.5t10.5 -43t-2.5 -45q-1 -3 -5.5 -22t-10.5 -47t-11.5 -59t-8.5 -58q-4 -43 8.5 -52.5t35.5 21.5q10 14 21.5 38.5t23.5 52.5t24 56.5t23 49.5
q33 10 49.5 -1.5t23.5 -31t7 -40v-29.5q-1 -13 -2 -29.5t-1.5 -32t-0.5 -28.5t1 -19q3 -31 13.5 -42t23 -8t26 17t22.5 33q15 30 29 73.5t26 91t23 95.5t20 87q0 5 4 7.5t9 2t9 -3.5t4 -9z" />
    <glyph glyph-name="x" unicode="x" horiz-adv-x="306" 
d="M323 198q-20 -29 -43 -59t-43 -53q-38 -44 -72 -61t-62.5 -11t-50.5 33.5t-36 73.5q-26 -29 -38 -42.5t-18 -19.5t-9 -10t-12 -14q-5 -6 -10.5 -7t-8.5 2t-3 9t6 13q10 12 14.5 17.5t11.5 13t20 22t40 44.5q-5 27 -11 61t-12 70.5t-11.5 71.5t-9.5 64q0 9 16 15t36.5 1.5
t38.5 -23t23 -57.5l20 -112q15 18 24 28t15 16.5t11 12.5t13 15.5t21 25t35 41.5q8 8 15 1.5t4 -16.5q-21 -26 -34.5 -42t-22.5 -27.5t-15.5 -19.5t-14.5 -16.5t-18.5 -20.5t-27.5 -31l16.5 -77t19.5 -53t31.5 -14t51.5 40q22 24 42.5 51.5t40.5 55.5z" />
    <glyph glyph-name="y" unicode="y" horiz-adv-x="402" 
d="M212 58q7 50 12 86.5t8 62.5q-9 -20 -17.5 -41t-17 -39t-15.5 -32t-11 -21q-21 -32 -50.5 -45.5t-57 -7.5t-48.5 32t-24 73q-2 23 1 55t8 65.5t12 67t13 60t10.5 44.5t5.5 20q16 9 33 3t30 -22t19.5 -39.5t0.5 -48.5q0 -3 -4.5 -21.5t-10.5 -47t-12 -63t-10 -69.5
q-3 -20 2 -37.5t15.5 -24t25 2t31.5 38.5q7 12 17 33.5t21 46.5t22.5 50t20.5 44q2 18 3 29.5t2.5 24.5t3.5 31t6 49q16 9 33 4.5t30.5 -19.5t20.5 -39t2 -53l-23 -170q12 11 17.5 15.5t11.5 10t17.5 14.5t35.5 30l14 -20q-27 -23 -41 -35t-23 -20t-17 -15t-22 -20
q-6 -48 -12.5 -102t-17 -106.5t-25.5 -100.5t-39 -84q-26 -39 -59.5 -55t-63.5 -10.5t-51 31.5t-22 71q-1 35 9.5 70t28.5 64q15 24 30.5 45t34 42t39.5 43.5t47 49.5zM204 13q-22 -26 -40 -46.5t-33 -38.5t-28.5 -36t-25.5 -39q-14 -26 -21.5 -56.5t-5.5 -53.5
q3 -32 14 -46.5t25 -14.5t28.5 13.5t25.5 38.5q8 19 18.5 58.5t19.5 82.5t15.5 81.5t7.5 56.5z" />
    <glyph glyph-name="z" unicode="z" horiz-adv-x="352" 
d="M366 190q-27 -21 -55.5 -44.5t-56.5 -46.5q6 -41 -1.5 -93t-24 -105t-39 -102t-46.5 -83q-27 -38 -61 -53.5t-65 -11t-52 28.5t-22 64q-1 45 17.5 85.5t49.5 78.5t70.5 74t79.5 71q1 40 -9 66t-26 38t-35 10.5t-37 -16.5q-3 -5 -9 -6.5t-11.5 -0.5t-8.5 5.5t2 12.5
q25 42 38.5 67t26 47t30 48.5t49.5 71.5q-44 -19 -78 -20.5t-58.5 8.5t-39 28t-18.5 37t3 36.5t26 26.5q8 -26 27.5 -41t45 -22t54.5 -7.5t57 2t51.5 6t38.5 5.5l2.5 -5t3.5 -12.5t-1.5 -16t-12.5 -15.5q-39 -33 -63 -56t-43 -44.5t-37.5 -45t-44.5 -57.5q18 12 42 14.5
t48.5 -6.5t45 -30.5t30.5 -55.5q25 20 51.5 42t51.5 43zM159 19q-37 -31 -72.5 -65.5t-62.5 -70t-42 -71.5t-12 -69q2 -25 13.5 -37.5t27 -12.5t32 12.5t28.5 36.5q33 65 56.5 134t31.5 143z" />
    <glyph glyph-name="d" unicode="d" horiz-adv-x="435" 
d="M186 136q-14 -21 -31 -37t-36 -23t-40.5 -3t-45.5 23q-21 25 -29.5 61.5t-6.5 76.5t14.5 78t32.5 66q27 38 69 53t84 -4q16 -8 29.5 -20t23.5 -29q12 83 21 149.5t15 114.5t9.5 75.5t5.5 32.5q16 9 34.5 3t33 -22t22.5 -39.5t2 -48.5q-24 -140 -41.5 -245.5t-30.5 -183.5
q-3 -20 -7.5 -48t-6.5 -48q-5 -33 0 -50.5t15 -20.5t23.5 8t26.5 34q15 27 30.5 57.5t32.5 63.5l18 -10q-17 -36 -33 -69.5t-30 -56.5q-30 -50 -65 -65t-61.5 2.5t-39.5 67t0 129.5q-8 -18 -17.5 -36.5t-20.5 -35.5zM189 389q-26 -3 -40.5 -23.5t-20.5 -40.5
q-15 -36 -20.5 -81.5t-0.5 -83.5q4 -37 23.5 -33.5t40.5 34.5q14 23 31.5 58t36.5 86v-1q2 12 3.5 23.5t3.5 23.5q-12 23 -27 31.5t-30 6.5z" />
    <glyph glyph-name="A" unicode="A" horiz-adv-x="612" 
d="M553 422q8 -17 6 -33.5t-10.5 -30.5t-22.5 -25t-30 -16q-8 -2 -15 -2h-15q-5 -48 -6.5 -95.5t0 -89.5t8 -76.5t18.5 -57t30.5 -31.5t45.5 1q-3 -17 -14 -25.5t-24 -11.5t-26 -1t-20 5q-32 15 -52.5 44t-32 65t-15.5 77t-3.5 80.5t3 75t5.5 61.5q-25 9 -50 19.5t-50 19.5
q-27 -103 -62 -202t-68 -192q-1 -4 -14.5 -1.5t-27 13.5t-22 33t0.5 57q26 77 52 153.5t47 154.5q-29 -2 -56 -17.5t-50 -52.5q-5 1 -6.5 6.5t-1 11.5t2 12t2.5 9q26 44 57.5 62.5t66.5 22.5q13 54 23 107.5t17 109.5q3 27 3 51t-4 44q-5 29 -17 46.5t-34 19.5
q-17 1 -31.5 -7t-26 -21t-20 -30t-13.5 -33q-8 -29 -5 -56.5t20 -47.5q-69 20 -91.5 53t-8.5 71q11 33 32.5 54t47.5 32t54 14t52 -1q34 -6 61 -24t45 -49q15 -27 22 -60.5t3 -70.5l-2 -18l26 54q21 47 43.5 70.5t48.5 20.5q15 -2 28 -20.5t21 -46.5t10 -61t-4 -64
q-7 -37 -14.5 -84.5t-14.5 -100.5q22 0 41.5 5.5t36.5 19.5zM381 672q-16 -33 -31.5 -68t-29.5 -64q-5 -26 -10 -52.5t-12 -52.5q23 -5 46 -11.5t46 -12.5q10 81 21 155.5t20 130.5q3 25 1.5 35t-6 9.5t-11 -9t-13.5 -20t-12.5 -23t-8.5 -17.5z" />
    <glyph glyph-name="B" unicode="B" horiz-adv-x="677" 
d="M146 83q18 71 36 141.5t32 142.5t23.5 145.5t11.5 149.5q2 56 -9 95q-8 29 -21.5 46.5t-35.5 19.5q-17 1 -30.5 -7t-24 -21t-17.5 -30t-11 -33q-5 -29 0.5 -56.5t23.5 -47.5q-71 20 -96 53t-15 71q8 33 28 54t45.5 32t53 14t51.5 -1q35 -6 63.5 -24t48.5 -49
q17 -27 27 -60.5t10 -70.5q1 -42 -2.5 -84.5t-8.5 -85.5q12 27 26 56t28.5 56.5t27.5 51.5t24 41q34 53 69.5 74t65.5 18t50 -25.5t24 -56.5t-12.5 -75t-60.5 -81q-38 -35 -82.5 -62t-82.5 -41q45 14 84 10.5t62 -20.5q30 -21 46.5 -52.5t21.5 -67.5t-1 -75t-20 -74
t-35.5 -64t-47.5 -46q-28 -22 -63.5 -26.5t-66.5 6t-52.5 35.5t-20.5 63q0 19 7.5 38.5t20.5 33.5t30.5 22t38.5 5q19 -3 30 -12.5t15.5 -22t1.5 -25t-12 -21.5q-17 13 -35.5 20t-33.5 6t-24.5 -11.5t-10.5 -31.5q-1 -24 11 -42.5t30.5 -26t40.5 -2t43 28.5q22 24 35 63.5
t17 83t-2 84t-23 67.5q-17 29 -43.5 38t-63.5 -11q-17 0 -22 6t-3 14t8.5 14.5t12.5 8.5q29 16 50 30t37.5 27t31 26.5t30.5 30.5q24 27 33.5 53t7.5 46.5t-13.5 33.5t-28 15t-36.5 -9t-39 -39q-16 -24 -34.5 -59t-37.5 -74.5t-36.5 -80t-32.5 -76.5q-19 -102 -45 -200.5
t-51 -191.5q-1 -4 -14.5 -1.5t-28.5 13.5t-25 33t-4 57z" />
    <glyph glyph-name="C" unicode="C" horiz-adv-x="486" 
d="M494 707q9 -38 -14.5 -71t-94.5 -53q9 10 15.5 25t10 32t4 34.5t-2.5 31.5l-4 16t-8.5 24t-14 21t-20.5 8q-14 -2 -33.5 -19t-42.5 -50q-45 -63 -81 -148t-55.5 -175t-18.5 -176.5t30 -151.5q19 -30 46 -43.5t57.5 -9.5t63.5 24t65 57q26 29 50 62t40 65l21 -13
q-16 -35 -40 -68t-50 -62q-43 -50 -96 -78t-104.5 -32t-95.5 19.5t-70 77.5q-22 46 -28.5 106.5t-0.5 126t24 133.5t44 130.5t59.5 115t70.5 88.5q28 26 63 41t68 16q52 1 91.5 -27t51.5 -77z" />
    <glyph glyph-name="D" unicode="D" horiz-adv-x="714" 
d="M373 21q-34 10 -58.5 35.5t-23.5 65.5q0 19 7 38.5t20 33.5t30.5 22t38.5 5q19 -3 30.5 -12.5t16 -22t1.5 -25t-12 -21.5q-18 13 -36 20t-33 6t-25 -11.5t-10 -31.5q-1 -28 14.5 -47.5t38.5 -24.5q21 -5 40 9t35 36t28 46.5t18 42.5q24 65 42.5 140.5t29 146t13.5 129.5
t-4 92q-5 24 -18 40.5t-32.5 16t-44 -22t-51.5 -72.5q-24 -47 -52 -106.5t-52 -115.5q-18 -117 -47.5 -231.5t-58.5 -220.5q-1 -4 -14.5 -1.5t-28.5 13.5t-25 33t-4 57q18 71 36 141.5t32 142.5t23.5 145.5t11.5 149.5q2 56 -9 95q-8 29 -21.5 46.5t-35.5 19.5
q-17 1 -30.5 -7t-24 -21t-17.5 -30t-11 -33q-5 -29 0.5 -56.5t23.5 -47.5q-71 20 -96 53t-15 71q8 33 28 54t45.5 32t53 14t51.5 -1q35 -6 63.5 -24t48.5 -49q17 -27 27 -60.5t10 -70.5q0 -30 -1.5 -60t-3.5 -61q20 48 37.5 82t33.5 63q34 63 75 90.5t78.5 28.5t66.5 -22.5
t38 -62.5q6 -25 7.5 -64t-1 -87t-10 -102t-20 -108t-29.5 -105.5t-40 -94.5q-16 -30 -36 -56.5t-45 -44.5t-54 -25t-63 3z" />
    <glyph glyph-name="E" unicode="E" horiz-adv-x="470" 
d="M351 811q49 -2 86 -29.5t48 -74.5q9 -38 -14.5 -71t-94.5 -53q9 10 15.5 25t10 32t4 34.5t-2.5 31.5q-1 4 -4 15.5t-8.5 23.5t-13.5 21t-19 9q-20 -9 -39 -28t-30 -41q-16 -31 -19 -69t7.5 -76.5t33.5 -73t59 -59.5q7 -8 2 -10t-9 -1q-21 6 -44.5 5.5t-47.5 -8t-46 -21
t-40 -32.5q-20 -21 -36 -51.5t-24.5 -66t-9 -73t11.5 -71.5q18 -54 46.5 -76t61 -21t67.5 21t67 50.5t58.5 66.5t42.5 70l20 -13q-17 -48 -52.5 -92.5t-80.5 -78t-95 -52.5t-96 -16t-84.5 32.5t-59.5 91.5q-14 40 -11.5 84t16.5 85t38 75.5t54 57.5q15 12 38 23t47.5 19.5
t49 13.5t42.5 4q-54 38 -81.5 82.5t-33 88t8 83t40.5 66.5q25 25 57 36t64 11z" />
    <glyph glyph-name="F" unicode="F" horiz-adv-x="502" 
d="M486 471q8 -14 7.5 -28t-6.5 -26t-17 -21t-24 -13q-28 -5 -60 4t-66 22q-18 -111 -46.5 -219t-55.5 -209q-1 -4 -14.5 -1.5t-28.5 13.5t-25 33t-4 57q23 89 44.5 177.5t36.5 180.5q-39 8 -72.5 -1.5t-57.5 -53.5q-8 1 -11.5 5t-5 9t-1 9.5t1.5 7.5q13 26 30 41t36.5 22.5
t41.5 8.5t45 -2q12 86 15 175q2 56 -9 95q-8 29 -21.5 46.5t-35.5 19.5q-17 1 -30.5 -7t-24 -21t-17.5 -30t-11 -33q-5 -29 0.5 -56.5t23.5 -47.5q-71 20 -96 53t-15 71q8 33 28 54t45.5 32t53 14t51.5 -1q35 -6 63.5 -24t48.5 -49q17 -27 27 -60.5t10 -70.5q1 -45 -2.5 -90
t-9.5 -91q23 -6 45.5 -11t43 -5.5t38 4t31.5 17.5z" />
    <glyph glyph-name="G" unicode="G" horiz-adv-x="594" 
d="M486 707q9 -38 -14.5 -71t-94.5 -53q9 10 15.5 25t10 32t4 34.5t-2.5 31.5l-4 16t-8.5 24t-14 21t-20.5 8q-14 -2 -33.5 -19t-42.5 -50q-35 -49 -65 -112.5t-51 -132.5t-31.5 -140.5t-6.5 -135.5q1 -17 3 -36.5t8 -38t16 -33.5t26 -22q13 -6 29 -0.5t36 28.5
q19 22 39.5 53t40.5 66t38 71t33.5 69t28 61t19.5 45l21 -13q-18 -50 -40.5 -103t-48.5 -103.5t-55 -95.5t-59 -79q-23 -26 -46 -37.5t-46 -13.5q-37 -2 -65.5 14.5t-48.5 43.5t-31 59.5t-13 61.5q-5 73 8.5 155.5t41 160.5t66.5 145.5t84 110.5q28 26 63 41t68 16
q52 1 91.5 -27t51.5 -77zM444 443q8 35 25.5 51t35.5 21t31.5 2t13.5 -7q-10 -80 -21 -165t-27 -170.5t-38 -168.5t-54 -159q-14 -34 -36 -61t-48 -46q-31 -21 -64 -27t-68 2q-24 6 -48.5 18.5t-43.5 32.5t-29.5 47t-5.5 61q6 39 41.5 60t108.5 13q-24 -11 -40 -35t-22 -52
q-3 -17 -2.5 -35t5 -34.5t14.5 -29t26 -17.5q20 -7 40 4.5t37 34.5q25 32 45 85q27 71 46 142.5t33 143.5t24.5 144t20.5 145z" />
    <glyph glyph-name="H" unicode="H" horiz-adv-x="676" 
d="M146 83q18 71 36 141.5t32 142.5t23.5 145.5t11.5 149.5q2 56 -9 95q-8 29 -21.5 46.5t-35.5 19.5q-17 1 -30.5 -7t-24 -21t-17.5 -30t-11 -33q-5 -29 0.5 -56.5t23.5 -47.5q-71 20 -96 53t-15 71q8 33 28 54t45.5 32t53 14t51.5 -1q35 -6 63.5 -24t48.5 -49
q17 -27 27 -60.5t10 -70.5q1 -62 -5 -125t-17 -126q21 10 38 17.5t34 16t36.5 18t43.5 22.5q7 30 15.5 65t19.5 70t26 67.5t35 59.5q22 30 52 42t59.5 9.5t52.5 -18.5t32.5 -42.5t-0.5 -62.5t-48 -78q-26 -29 -65.5 -55t-83.5 -52q-12 -54 -23 -110t-19 -109.5t-12.5 -102
t-4.5 -86.5q0 -18 2.5 -33.5t9.5 -22t20 -2t34 27.5q25 31 52.5 77t51.5 97l21 -8q-23 -52 -51.5 -99.5t-52.5 -77.5q-23 -28 -49 -39.5t-49.5 -7.5t-42 23.5t-24.5 55.5q-6 34 -4 84t8.5 104t15.5 105t17 87q-25 -13 -44.5 -22t-36.5 -17l-34 -16t-38 -17
q-18 -100 -44 -197t-50 -188q-1 -4 -14.5 -1.5t-28.5 13.5t-25 33t-4 57zM573 509q81 46 130 98q24 26 31.5 50t4 43.5t-15.5 31.5t-28 13t-33 -11t-31 -40q-11 -23 -19.5 -47.5t-15.5 -49t-13 -47t-10 -41.5z" />
    <glyph glyph-name="I" unicode="I" horiz-adv-x="373" 
d="M146 83q18 71 36 141.5t32 142.5t23.5 145.5t11.5 149.5q2 56 -9 95q-8 29 -21.5 46.5t-35.5 19.5q-17 1 -30.5 -7t-24 -21t-17.5 -30t-11 -33q-5 -29 0.5 -56.5t23.5 -47.5q-71 20 -96 53t-15 71q8 33 28 54t45.5 32t53 14t51.5 -1q35 -6 63.5 -24t48.5 -49
q17 -27 27 -60.5t10 -70.5q1 -82 -10 -167.5t-29 -170t-40 -167.5t-43 -161q-1 -4 -14.5 -1.5t-28.5 13.5t-25 33t-4 57z" />
    <glyph glyph-name="J" unicode="J" horiz-adv-x="415" 
d="M299 254q38 -22 56 -58q20 -45 5.5 -77t-51.5 -45q-5 29 -13 50.5t-18 37.5q-16 -59 -41 -112.5t-66 -89.5q-35 -28 -64.5 -36t-52 0t-37 31t-19.5 58q-7 43 5.5 86.5t40 79.5t68 61.5t88.5 33.5q10 55 19.5 105t17 97t12.5 93t6 93q2 56 -9 95q-8 29 -21.5 46.5
t-35.5 19.5q-17 1 -30.5 -7t-24 -21t-17.5 -30t-11 -33q-5 -29 0.5 -56.5t23.5 -47.5q-71 20 -96 53t-15 71q8 33 28 54t45.5 32t53 14t51.5 -1q35 -6 63.5 -24t48.5 -49q17 -27 28.5 -60.5t11.5 -70.5q0 -41 -2.5 -83.5t-8.5 -90t-16 -101.5t-23 -118zM186 210
q-37 -2 -65.5 -22t-48 -50t-29 -64t-8.5 -63q0 -22 5 -38t15 -20.5t25 6t35 40.5q26 40 41.5 93.5t29.5 117.5z" />
    <glyph glyph-name="K" unicode="K" horiz-adv-x="688" 
d="M146 83q18 71 36 141.5t32 142.5t23.5 145.5t11.5 149.5q2 56 -9 95q-8 29 -21.5 46.5t-35.5 19.5q-17 1 -30.5 -7t-24 -21t-17.5 -30t-11 -33q-5 -29 0.5 -56.5t23.5 -47.5q-71 20 -96 53t-15 71q8 33 28 54t45.5 32t53 14t51.5 -1q35 -6 63.5 -24t48.5 -49
q17 -27 27 -60.5t10 -70.5q1 -57 -4.5 -115.5t-15.5 -118.5q23 37 53.5 76.5t64 75.5t67.5 64.5t64.5 43.5t55.5 12.5t39 -28.5q5 -10 5.5 -24t-1 -27t-4.5 -23t-4 -11q-16 24 -39.5 30t-50 -1.5t-54 -24.5t-52.5 -38.5t-45 -44t-31 -39.5q0 -5 2 -28.5t7.5 -58t14 -75
t20.5 -79.5t28 -71.5t36.5 -50.5t45 -16.5t54.5 30.5q21 21 43.5 46t48.5 59l20 -16q-53 -70 -97 -113q-40 -38 -73 -49t-59.5 -2.5t-47 33t-36.5 57.5t-27 70t-19 71.5t-12.5 62t-7.5 41.5q-7 -11 -13.5 -21t-12.5 -21q-18 -89 -40.5 -175t-44.5 -167q-1 -4 -14.5 -1.5
t-28.5 13.5t-25 33t-4 57z" />
    <glyph glyph-name="L" unicode="L" horiz-adv-x="510" 
d="M286 662q2 56 -9 95q-8 29 -21.5 46.5t-35.5 19.5q-17 1 -30.5 -7t-24 -21t-17.5 -30t-11 -33q-5 -29 0.5 -56.5t23.5 -47.5q-71 20 -96 53t-15 71q8 33 28 54t45.5 32t53 14t51.5 -1q35 -6 63.5 -24t48.5 -49q17 -27 27 -60.5t10 -70.5q1 -67 -7 -137t-21.5 -140.5
t-30.5 -140t-35 -136.5q58 -27 121.5 -58t125 -47.5t119 -4.5t101.5 52q5 -23 4 -46.5t-9 -44t-22 -36.5t-34 -23q-39 -16 -90.5 -1.5t-107.5 43.5t-114 64.5t-109 62.5q-23 -63 -61.5 -102.5t-102.5 -39.5q-25 0 -44.5 10.5t-31.5 28t-16 39t2 42.5q9 35 29.5 55.5t46 29.5
t53 8t49.5 -7q34 131 62 267.5t32 276.5zM181 85q-17 2 -37 1.5t-38 -6t-31.5 -18.5t-16.5 -35q-2 -18 11.5 -30.5t33.5 -10t42 25t36 73.5z" />
    <glyph glyph-name="M" unicode="M" horiz-adv-x="951" 
d="M146 83q18 71 36 141.5t32 142.5t23.5 145.5t11.5 149.5q2 56 -9 95q-8 29 -21.5 46.5t-35.5 19.5q-17 1 -30.5 -7t-24 -21t-17.5 -30t-11 -33q-5 -29 0.5 -56.5t23.5 -47.5q-71 20 -96 53t-15 71q8 33 28 54t45.5 32t53 14t51.5 -1q35 -6 63.5 -24t48.5 -49
q17 -27 27 -60.5t10 -70.5q0 -65 -6 -129q14 41 26.5 75.5t20.5 47.5q19 45 48 62t55.5 8.5t44.5 -41t15 -86.5q-2 -27 -3.5 -47t-3.5 -38t-5.5 -38t-8.5 -48q19 37 30.5 64.5t24 57t30 65.5t49.5 90t73.5 81.5t77 22t58 -47t15.5 -124.5q-2 -27 -11 -66.5t-21.5 -86.5
t-26.5 -99.5t-27 -106t-23 -104.5t-13 -96q-2 -32 3 -48.5t15 -20.5t23 4.5t27 26.5q31 44 61 89t63 96l20 -12q-19 -30 -35 -54.5t-31 -47t-30 -44t-32 -45.5q-19 -27 -44.5 -39.5t-50.5 -9t-44.5 24t-26.5 60.5q-9 60 1.5 132.5t28.5 147t39 145.5t33 127q13 59 11.5 99.5
t-15 54t-38 -3t-56.5 -71.5q-27 -45 -55 -102.5t-55 -118t-51 -119t-42 -106.5q-28 10 -44 33t-14 60q10 57 18 91.5t14 62t11 56t10 72.5q3 25 -1.5 44t-15 25t-25 -3t-30.5 -39q-8 -15 -18 -40t-20.5 -55.5t-22 -64.5t-21.5 -66q-18 -109 -46 -216t-55 -207
q-1 -4 -14.5 -1.5t-28.5 13.5t-25 33t-4 57z" />
    <glyph glyph-name="N" unicode="N" horiz-adv-x="747" 
d="M146 83q18 71 36 141.5t32 142.5t23.5 145.5t11.5 149.5q2 56 -9 95q-8 29 -21.5 46.5t-35.5 19.5q-17 1 -30.5 -7t-24 -21t-17.5 -30t-11 -33q-5 -29 0.5 -56.5t23.5 -47.5q-71 20 -96 53t-15 71q8 33 28 54t45.5 32t53 14t51.5 -1q35 -6 63.5 -24t48.5 -49
q17 -27 27 -60.5t10 -70.5q1 -57 -4 -114t-15 -116q18 36 29.5 63t24 56t30 65t48.5 89q32 54 73.5 81.5t77 22t58 -47t15.5 -124.5q-2 -27 -11 -66.5t-21.5 -86.5t-26.5 -99.5t-27 -106t-23 -104.5t-13 -96q-2 -32 3 -48.5t15 -20.5t23 4.5t27 26.5q31 44 61 89t63 96
l20 -12q-19 -30 -35 -54.5t-31 -47t-30 -44t-32 -45.5q-19 -27 -44.5 -39.5t-50.5 -9t-44.5 24t-26.5 60.5q-9 60 1.5 132.5t28.5 147t39 145.5t33 127q13 59 11.5 99.5t-15 54t-38 -3t-56.5 -71.5q-23 -39 -47.5 -87.5t-48 -100.5t-45.5 -104.5t-41 -98.5q-17 -78 -37 -154
t-40 -148q-1 -4 -14.5 -1.5t-28.5 13.5t-25 33t-4 57z" />
    <glyph glyph-name="O" unicode="O" horiz-adv-x="627" 
d="M165 521q-12 51 0 108.5t43 103.5q24 34 59 53t73 22.5t73.5 -7t61.5 -34.5q25 -23 42.5 -57t25.5 -82q9 -55 9.5 -112t-10.5 -119q18 12 28 23t21 30q2 3 6.5 3t8.5 -2.5t6.5 -6t0.5 -6.5q-14 -26 -33 -43t-40 -28q-8 -55 -25 -105t-40 -96q-29 -58 -70 -96.5t-87 -57.5
t-92.5 -18.5t-85 20.5t-65 60.5t-32.5 100.5q-4 40 2.5 87.5t22.5 94t40.5 89.5t56.5 75zM176 495q-29 -30 -50.5 -68.5t-35.5 -79.5t-19.5 -83.5t-1.5 -81.5q7 -72 43 -110t84 -40.5t99 32t88 108.5q18 38 32 81t23 88q-44 -9 -85.5 -0.5t-76.5 29.5t-61 53.5t-39 71.5z
M398 531q4 -6 -3 -14t-11 -3q-42 45 -88 48t-98 -45q12 -39 35.5 -71t55.5 -53t71 -28.5t81 1.5q14 67 16.5 130.5t-8.5 127.5q-6 35 -17.5 64t-28.5 49q-36 45 -84 41t-93 -68q-29 -42 -36.5 -81.5t2.5 -87.5q55 48 108 42t98 -52z" />
    <glyph glyph-name="P" unicode="P" horiz-adv-x="597" 
d="M146 83q18 71 36 141.5t32 142.5t23.5 145.5t11.5 149.5q2 56 -9 95q-8 29 -21.5 46.5t-35.5 19.5q-17 1 -30.5 -7t-24 -21t-17.5 -30t-11 -33q-5 -29 0.5 -56.5t23.5 -47.5q-71 20 -96 53t-15 71q8 33 28 54t45.5 32t53 14t51.5 -1q35 -6 63.5 -24t48.5 -49
q17 -27 27 -60.5t10 -70.5v-30t-1 -29q15 33 31.5 66.5t33.5 61.5q19 31 49.5 51t62.5 22t60 -16.5t42 -63.5q9 -29 8.5 -66.5t-9 -77.5t-22.5 -77.5t-32 -65.5q11 -15 19 -41.5t6 -58.5q-2 -8 -12 -9t-10 10q0 26 -5.5 46t-12.5 33q-11 -17 -21.5 -27.5t-22.5 -19.5
q-38 -27 -67.5 -32.5t-50 3t-32 27.5t-13 41.5t7.5 44.5t29 36q26 17 59.5 19t58.5 -15q8 21 14 49.5t10 57.5t5 56t-1 46q-4 34 -15 47.5t-26 11.5t-31.5 -17.5t-31.5 -39.5q-22 -36 -44 -81.5t-42 -90.5q-6 -68 -19 -137t-28.5 -137t-33.5 -134t-35 -129q-1 -4 -14.5 -1.5
t-28.5 13.5t-25 33t-4 57zM433 377q17 16 30 37t24 45q-48 30 -94 -1q-24 -17 -29 -39t3 -38t26 -20t40 16z" />
    <glyph glyph-name="R" unicode="R" horiz-adv-x="618" 
d="M146 83q18 71 36 141.5t32 142.5t23.5 145.5t11.5 149.5q2 56 -9 95q-8 29 -21.5 46.5t-35.5 19.5q-17 1 -30.5 -7t-24 -21t-17.5 -30t-11 -33q-5 -29 0.5 -56.5t23.5 -47.5q-71 20 -96 53t-15 71q8 33 28 54t45.5 32t53 14t51.5 -1q35 -6 63.5 -24t48.5 -49
q17 -27 27 -60.5t10 -70.5v-30t-1 -29q15 33 31.5 66.5t33.5 61.5q19 31 49.5 51t62.5 22t60 -16.5t42 -63.5q12 -39 7.5 -90.5t-21.5 -102.5t-43 -94.5t-57 -66.5q-32 -23 -63 -30.5t-59 -2.5q4 -43 15.5 -88.5t28.5 -87.5t39 -76t46.5 -54t51 -22t53.5 20q8 -8 5 -25
t-10 -34t-15.5 -31t-12.5 -16q-38 -22 -71.5 -11t-61 44t-50 82.5t-38 105t-24 112t-9.5 102.5q-7 4 -10 6.5t-8 7.5q-19 -98 -44 -192.5t-49 -183.5q-1 -4 -14.5 -1.5t-28.5 13.5t-25 33t-4 57zM433 377q28 26 47 65t30 82.5t14 86.5t0 77q-4 34 -15 47.5t-26 11.5
t-31.5 -17.5t-31.5 -39.5q-22 -36 -44 -81.5t-42 -90.5q-6 -68 -18 -133q12 -12 27.5 -18.5t31.5 -7.5t31.5 3t26.5 15z" />
    <glyph glyph-name="Q" unicode="Q" horiz-adv-x="582" 
d="M134 521q-12 51 0 108.5t43 103.5q24 34 59 53t73 22.5t73.5 -7t61.5 -34.5q25 -23 42.5 -57t25.5 -82q9 -55 9.5 -112t-10.5 -119q18 12 28 23t21 30q2 3 6.5 3t8.5 -2.5t6.5 -6t0.5 -6.5q-14 -26 -33 -43t-40 -28q-8 -55 -25 -105t-40 -96q-23 -47 -54.5 -81t-67.5 -55
q19 -14 39 -24.5t39 -12t37.5 8t35.5 33.5q1 -27 -2.5 -43.5t-10.5 -26.5t-17 -14t-23 -6q-14 -2 -29.5 3.5t-31.5 15.5t-33 23t-35 27q-47 -20 -94 -20.5t-86 19.5t-66 60.5t-33 101.5q-4 40 2.5 87.5t22.5 94t40.5 89.5t56.5 75zM109 68q16 34 34.5 46t39 8.5t43 -18.5
t46.5 -34q22 17 42.5 42.5t37.5 59.5q18 38 32 81t23 88q-44 -9 -85.5 -0.5t-76.5 29.5t-61 53.5t-39 71.5q-29 -30 -50.5 -68.5t-35.5 -79.5t-19.5 -83.5t-1.5 -81.5q4 -50 23.5 -83.5t48 -50.5t62.5 -16.5t69 18.5q-33 22 -66.5 30.5t-65.5 -12.5zM367 531q4 -6 -3 -14
t-11 -3q-42 45 -88 48t-98 -45q12 -39 35.5 -71t55.5 -53t71 -28.5t81 1.5q14 67 16.5 130.5t-8.5 127.5q-6 35 -17.5 64t-28.5 49q-36 45 -84 41t-93 -68q-29 -42 -36.5 -81.5t2.5 -87.5q55 48 108 42t98 -52z" />
    <glyph glyph-name="S" unicode="S" horiz-adv-x="580" 
d="M99 356q4 4 19 14.5t36.5 15t47 -1t51.5 -32.5q-23 -13 -48 -30t-46.5 -38.5t-38.5 -49t-25 -62.5q-14 -61 -3.5 -105t35.5 -71t60 -37t70.5 -3.5t67 30.5t50.5 64q26 57 20.5 120.5t-27.5 128.5q-21 63 -51.5 124.5t-53.5 123t-30.5 123.5t17.5 127q13 32 38.5 54.5
t56.5 33t63 7.5t57.5 -20.5t40 -51t11.5 -84.5q0 -7 -5.5 -16.5t-16 -18t-26 -14.5t-34.5 -5q16 32 15.5 63.5t-10.5 56t-26.5 40t-33 15.5t-29.5 -18t-15 -59q-4 -58 12.5 -119t40.5 -123.5t48.5 -126t36.5 -127t6 -125.5t-43 -122q-31 -50 -75.5 -77.5t-93.5 -35t-97.5 5
t-85.5 43.5t-58 80.5t-15 116.5q5 55 26 98.5t61 87.5z" />
    <glyph glyph-name="T" unicode="T" horiz-adv-x="592" 
d="M715 856q9 -15 7.5 -33.5t-11 -37.5t-26 -35t-37.5 -25q-38 -9 -83.5 -2.5t-96.5 18.5q-7 -75 -14.5 -150.5t-19.5 -151t-30 -149t-45 -143.5q-13 -35 -33.5 -62.5t-46.5 -47.5q-29 -22 -62.5 -28.5t-67.5 -0.5q-24 5 -49 17t-45 31.5t-31 46t-7 60.5q5 39 39 61t108 16
q-24 -12 -39 -36t-20 -53q-2 -17 -1 -35t6 -34t15 -28t26 -17q21 -7 40.5 5.5t36.5 36.5q11 17 22 38.5t19 47.5q25 71 41.5 146.5t28 152t19 152.5t15.5 148q-52 13 -103.5 20.5t-97.5 1.5t-85 -30.5t-66 -76.5q-10 7 -10 24.5t2 27.5q26 54 64.5 82t84 38t96.5 7
t103 -11.5t103.5 -18.5t98 -13t85.5 5.5t67 35.5z" />
    <glyph glyph-name="U" unicode="U" horiz-adv-x="720" 
d="M241 230q-13 -59 -11.5 -99.5t15 -54t38 3t56.5 71.5q23 39 47.5 87.5t48 100.5t45.5 104t41 99q17 78 37 154t40 148q1 4 14.5 1.5t28.5 -13.5t25 -33t4 -57q-41 -158 -75.5 -323.5t-50.5 -330.5q-2 -32 3 -48.5t15 -20.5t23 4.5t27 26.5q15 22 28 40t25 36t25 38t30 46
l20 -12q-19 -30 -32.5 -50.5t-25.5 -38.5t-24.5 -35.5t-29.5 -41.5q-19 -27 -44.5 -39.5t-50.5 -9t-44.5 24t-26.5 60.5q-5 45 -3 88t8 85.5t14 84t14 82.5q-18 -36 -29.5 -63t-24 -56t-30 -65t-48.5 -89q-32 -54 -73.5 -81.5t-77 -22t-58 47t-15.5 124.5q3 32 16.5 86.5
t30 118t32.5 129.5t24 120q6 55 0 95q-5 29 -17 48.5t-34 22.5q-17 3 -31.5 -4t-26 -19t-20 -28t-13.5 -32q-8 -28 -5 -56t19 -49q-68 26 -90 60.5t-9 72.5q11 32 32.5 51t48 28t54 9.5t51.5 -5.5q34 -10 61 -30.5t44 -52.5q18 -35 21.5 -84t-2.5 -103.5t-18.5 -110
t-26 -103.5t-25 -84.5t-14.5 -52.5z" />
    <glyph glyph-name="V" unicode="V" horiz-adv-x="629" 
d="M647 850q-8 -130 -29 -237.5t-48 -192.5t-56 -147.5t-51 -101.5q-14 -25 -33 -59t-43 -63.5t-53.5 -47.5t-64.5 -11q-33 7 -55.5 46t-22.5 117q0 21 3.5 57t9.5 79.5t12.5 93t13 98t11.5 94.5t7 82q1 54 -8 95q-8 29 -21 47t-35 20q-17 1 -31 -7t-24.5 -21t-17.5 -30
t-11 -33q-5 -28 0 -55.5t22 -47.5q-70 20 -94.5 53t-14.5 71q9 33 28.5 54t45 32t53 13.5t51.5 -1.5q35 -7 63.5 -25t48.5 -49q21 -34 29 -85.5t7.5 -111t-7.5 -121.5t-15.5 -116t-16 -94t-9.5 -56q-8 -52 -4 -89.5t16 -55.5q13 -19 32 -7t39.5 38.5t39 59.5t29.5 56
q22 46 50.5 112t54.5 150t45 184.5t23 215.5q0 10 5 15t11 4.5t11 -6.5t4 -16z" />
    <glyph glyph-name="W" unicode="W" horiz-adv-x="919" 
d="M619 383q1 -75 -1.5 -125t-1.5 -70q-1 -53 8 -92.5t23 -57.5q13 -15 31 -1.5t36 39.5t34 58.5t24 55.5q16 47 35 115t32.5 154.5t18.5 188.5t-6 217q-2 10 2.5 15t10.5 4.5t11.5 -6t6.5 -15.5q9 -130 3 -239t-21 -196.5t-34.5 -152t-35.5 -104.5q-11 -26 -26.5 -58.5
t-36.5 -60.5t-49 -45.5t-64 -11.5q-33 5 -60 40t-37 113q-5 32 -5 92.5v132.5q-13 -41 -25 -77t-28 -69.5t-37.5 -67t-52.5 -67.5q-36 -39 -70.5 -45t-60.5 12t-40.5 56.5t-12.5 89.5q2 32 8.5 86t14.5 117t16.5 128.5t14.5 120.5q2 27 1 51t-4 44q-7 29 -19 47t-34 20
q-17 1 -31.5 -7t-25.5 -21t-19 -30t-12 -33q-7 -28 -3.5 -55.5t20.5 -47.5q-69 20 -91.5 53t-10.5 71q10 33 30.5 54t46 32t53 13.5t51.5 -1.5q35 -7 62.5 -25t46.5 -49q19 -34 26.5 -81.5t7 -101.5t-6.5 -109t-14 -103t-15.5 -84.5t-10.5 -52.5q-8 -35 -9 -71.5t7.5 -59
t27.5 -23t51 38.5q36 45 57.5 86t36.5 81.5t27 84t28 93.5q29 9 48.5 1.5t31 -23t16.5 -34.5t5 -32z" />
    <glyph glyph-name="X" unicode="X" horiz-adv-x="706" 
d="M724 199q-17 -34 -38 -73.5t-42 -71.5q-22 -32 -52.5 -53t-62 -22.5t-59 19t-43.5 71.5q-20 63 -31 132t-19 136q-42 -76 -84 -141.5t-85.5 -112t-90.5 -69.5t-99 -13q-4 0 -5 5t0 10t4 9.5t6 3.5q51 -9 95 15.5t85.5 73t82 116.5t83.5 145q-4 46 -9 94.5t-14.5 94.5
t-25 87.5t-39.5 73.5q-18 23 -38 34.5t-41 3.5q-16 -6 -25 -18.5t-13.5 -29t-4.5 -34.5t3 -35q7 -28 23 -51.5t40 -34.5q-73 -9 -108.5 11t-42.5 59q-5 34 5 61t28.5 47.5t43 34t48.5 19.5q70 17 131 -23q33 -23 54.5 -54t35 -67t21 -74t12.5 -74q34 63 68.5 116t69 91
t68.5 59.5t67 20.5q3 0 5.5 -4t3 -8.5t-1 -8t-4.5 -3.5q-32 1 -65 -23.5t-67.5 -66.5t-69.5 -98t-71 -120q10 -93 20 -182t20 -184q3 -32 14 -54.5t27.5 -29.5t38.5 4.5t48 48.5q22 33 43.5 73t38.5 75z" />
    <glyph glyph-name="Y" unicode="Y" horiz-adv-x="666" 
d="M487 443q8 35 25.5 51t35.5 21t31.5 2t13.5 -7q-10 -80 -21 -165t-27 -170.5t-38 -168.5t-54 -159q-14 -34 -36 -61t-48 -46q-31 -21 -64 -27t-68 2q-24 6 -48.5 18.5t-43.5 32.5t-29.5 47t-5.5 61q6 39 41.5 60t108.5 13q-24 -11 -40 -35t-22 -52q-3 -17 -2.5 -35
t5 -34.5t14.5 -29t26 -17.5q20 -7 40 4.5t37 34.5q25 32 45 85q44 118 68.5 236t41.5 238q-10 -22 -19 -41.5t-21 -42.5t-28.5 -52t-41.5 -71q-32 -54 -73.5 -81.5t-77 -22t-58 47t-15.5 124.5q3 32 16.5 86.5t30 118t32.5 129.5t24 120q6 55 0 95q-5 29 -17 48.5t-34 22.5
q-17 3 -31.5 -4t-26 -19t-20 -28t-13.5 -32q-8 -28 -5 -56t19 -49q-68 26 -90 60.5t-9 72.5q11 32 32.5 51t48 28t54 9.5t51.5 -5.5q34 -10 61 -30.5t44 -52.5q18 -35 21.5 -84t-2.5 -103.5t-18.5 -110t-26 -103.5t-25 -84.5t-14.5 -52.5q-13 -59 -11.5 -99.5t15 -54t38 3
t56.5 71.5q40 68 76 137t72 155z" />
    <glyph glyph-name="Z" unicode="Z" horiz-adv-x="688" 
d="M114 28q40 6 89 15.5t101 18t103 14t95.5 3t79 -14.5t52.5 -38q5 -7 8.5 -25t-0.5 -38.5t-18 -40t-44 -30.5q4 36 -18.5 59t-64.5 35t-99 14.5t-121 -0.5t-132 -11.5t-131 -18.5q-5 -1 -2.5 8t8 20t11 20.5t6.5 9.5q39 69 94.5 146.5t116 153.5t121.5 146.5t113 125.5
t89 90.5t50 41.5q-60 -9 -130.5 -18t-138.5 -5t-127.5 28t-97.5 80q-5 7 -10.5 29t-4 47.5t13 49t41.5 34.5q-4 -37 18 -68.5t63.5 -56.5t98 -43t120 -28t131 -10.5t130.5 9.5q30 4 37 -12t3.5 -38t-12 -40.5t-9.5 -18.5q-19 -11 -64.5 -46.5t-105.5 -87.5t-128 -116
t-132 -132t-118 -135.5t-85 -125.5z" />
    <glyph glyph-name="one" unicode="1" horiz-adv-x="296" 
d="M104 755q23 14 48.5 29t54.5 29h67q-13 -101 -23 -179t-18.5 -142t-16.5 -118.5t-16 -108t-16.5 -110.5t-18.5 -127l33 -1q5 0 7.5 -3t2 -6.5t-3.5 -7t-8 -3.5h-163q-8 0 -7 10t10 10h39q15 96 29 183.5t26 173t23.5 172.5t22.5 183l-76 -2z" />
    <glyph glyph-name="zero" unicode="0" horiz-adv-x="499" 
d="M443 698q16 -42 22.5 -93.5t5.5 -107.5t-10.5 -113t-25.5 -110t-39.5 -100.5t-52.5 -82.5q-38 -45 -82 -64t-85.5 -10.5t-76.5 45t-54 103.5q-18 64 -21 143.5t8.5 158t37 149t64.5 117.5q31 38 74.5 58.5t88 18t84 -29t62.5 -82.5zM277 136q26 42 45 95t34 111
q9 36 16.5 81t9.5 93t-3.5 95.5t-23.5 86.5q-17 39 -39.5 58t-47 21t-50.5 -12t-50 -41q-28 -30 -49 -71.5t-35 -89.5t-22 -100.5t-9 -104t4 -100t16 -89.5q15 -54 39.5 -80.5t53.5 -28.5t58 18t53 58z" />
    <glyph glyph-name="two" unicode="2" horiz-adv-x="516" 
d="M207 770q-14 -9 -20 -23.5t-7 -31t3 -34.5t11 -33q13 -26 34 -45.5t47 -24.5q-69 -26 -108.5 -14t-54.5 48q-13 31 -9 60t18 53.5t35 43.5t43 30q45 24 98.5 30t100 -10t77.5 -56.5t31 -108.5q-2 -60 -26 -123.5t-61 -126t-83.5 -120.5t-94.5 -106.5t-93.5 -84.5
t-80.5 -54q47 1 89 1t82.5 0.5t81 1.5t85.5 3q4 0 6.5 -4.5t2.5 -10.5t-2 -10.5t-6 -4.5q-49 -2 -103 -2.5t-109 -1t-109 -0.5t-102 1q-7 1 -8.5 4.5t-0.5 7.5t3.5 7.5t5.5 5.5q35 17 79 54t90 86.5t90.5 108.5t80.5 121.5t60.5 124.5t30.5 118q4 40 -15.5 71.5t-51.5 49.5
t-70 19t-70 -20z" />
    <glyph glyph-name="three" unicode="3" horiz-adv-x="572" 
d="M228 -19q-27 -4 -60.5 -1t-64.5 15.5t-55.5 36.5t-33.5 61q-11 43 17 80t108 60q-20 -23 -26.5 -54.5t-0.5 -63.5q4 -18 12 -37t19.5 -34t27 -24t34.5 -7q46 0 80.5 27t55.5 68t27 89t-5 90q-12 35 -32 65t-45 52.5t-53 38t-55 22.5q15 16 37.5 42.5t48.5 57.5t52.5 63
t50 60t41 48t25.5 27q-13 1 -38.5 6.5t-56 8.5t-61.5 0.5t-54 -16t-33.5 -40.5t-0.5 -74q-24 -2 -39.5 7t-24.5 22t-11 27t1 22q13 34 39 53t60.5 27t74 6.5t81 -8.5t81.5 -17.5t74 -20.5q6 -2 8.5 -6.5t-3.5 -9.5q-8 -7 -31.5 -28.5t-54.5 -50t-66 -60.5t-65.5 -60
t-52 -47.5t-26.5 -23.5q27 -3 62.5 -16t69.5 -35t62 -51.5t40 -63.5q22 -62 7 -120t-52 -104t-89.5 -75.5t-105.5 -33.5z" />
    <glyph glyph-name="four" unicode="4" horiz-adv-x="669" 
d="M450 266q23 119 39 194.5t28 126.5t21 88t18 78q1 4 15 2t29 -12.5t26 -31.5t7 -57q-12 -59 -23.5 -107.5t-22.5 -93t-21.5 -89t-21.5 -96.5q29 1 55 -0.5t51 0.5q6 0 7.5 -5.5t0.5 -12t-4.5 -12.5t-8.5 -6h-106q-21 -100 -37 -184t-35 -166q-1 -4 -15 -2t-29 12.5
t-26.5 31.5t-6.5 57q13 62 24 120t28 130q-18 -1 -54.5 -2t-81.5 -1h-94t-91 -0.5t-72.5 -0.5t-38.5 -1q5 2 35 37t70 90t83.5 122t76.5 133t48 123t-2 92q42 8 65 -3.5t33 -34.5t8.5 -54t-8.5 -61t-17 -56t-18 -40q-32 -54 -70 -102t-76.5 -87.5t-74 -70t-60.5 -49.5
q87 -4 174 -1.5t173 2.5z" />
    <glyph glyph-name="five" unicode="5" horiz-adv-x="487" 
d="M139 796q43 0 89 -12.5t89.5 -22t83 -9.5t69.5 26q8 -17 6 -33.5t-10.5 -30.5t-22.5 -25t-30 -16q-23 -4 -47.5 0.5t-50 13.5t-51.5 20t-52 20l-49 -236q31 10 64.5 12t64.5 -2.5t57.5 -13.5t43.5 -22q40 -30 55.5 -78.5t12 -103.5t-23 -111t-49.5 -101
q-29 -41 -71.5 -63.5t-88.5 -26.5q-27 -4 -60.5 -1t-64.5 15.5t-55.5 36.5t-33.5 61q-11 43 17 80t108 60q-20 -23 -26.5 -54.5t-0.5 -63.5q4 -18 12 -37t19.5 -34t27 -24t34.5 -7q68 3 102 55q25 38 41 88.5t20.5 102t-4.5 99t-34 78.5q-15 18 -48.5 26t-73 5.5t-78 -15.5
t-62.5 -35q2 12 6.5 38t11 60t13.5 72.5t14 75.5t13 69t11 53z" />
    <glyph glyph-name="six" unicode="6" horiz-adv-x="451" 
d="M410 722q-21 30 -51 38t-61.5 -2.5t-61 -37t-50.5 -66.5q-20 -39 -36 -85t-26.5 -94t-15 -96t-2.5 -90q23 54 64 91.5t86 49.5t88.5 -5.5t71.5 -73.5q18 -37 23 -80.5t-3 -85.5t-27.5 -80t-49.5 -64q-32 -28 -71 -36.5t-77.5 -2.5t-73.5 25t-58 47q-27 32 -43 79
t-22 102.5t-1 116t19 119t37 112t55 94.5q27 35 66 60.5t82 34t84.5 -2t74.5 -47.5q4 -5 4 -12t-4 -11.5t-9.5 -5t-11.5 8.5zM113 241q0 -48 6 -81.5t17 -56.5q14 -33 41.5 -52.5t58 -23t60.5 8.5t49 42q15 23 23.5 53.5t11 64t-1 69t-12.5 68.5q-10 36 -30.5 51.5t-47 15
t-55.5 -14t-53.5 -35.5t-43 -50.5t-23.5 -58.5z" />
    <glyph glyph-name="seven" unicode="7" horiz-adv-x="456" 
d="M20 712q-8 16 -6 32.5t10.5 31t22 25.5t30.5 16q28 4 58 -2t61 -16.5t62 -22t62.5 -17.5t63 -3.5t61.5 20.5q10 7 20 6t15 -7t3 -16.5t-15 -23.5q-37 -33 -75.5 -88.5t-76.5 -123.5t-74 -142.5t-66 -146t-53 -135t-36 -107.5q-5 -15 -17.5 -15.5t-25.5 11t-23.5 33.5
t-10.5 52q6 28 23.5 72.5t43.5 99t60 115.5t73 122.5t82 120t88 108.5q-30 -3 -62.5 1t-65 10l-65 12t-62 7.5t-56.5 -5t-49 -24.5z" />
    <glyph glyph-name="eight" unicode="8" horiz-adv-x="526" 
d="M246 495q-48 37 -74.5 78t-35.5 80.5t-3 74.5t22 61q30 48 77 68.5t96.5 18t94 -26.5t71.5 -66q19 -30 21 -62.5t-10 -64t-36.5 -61.5t-58.5 -56q-11 -8 -25 -16.5t-29 -16.5t-28.5 -15t-22.5 -13q51 -46 84.5 -100.5t44 -111t-6 -111t-64.5 -99.5q-34 -32 -76.5 -45.5
t-85.5 -11t-81.5 20t-64.5 47.5q-37 43 -43 92.5t9 98t45 91t64 71.5q30 26 59.5 43.5t56.5 31.5zM280 462q-26 -16 -52 -35t-49 -42q-24 -24 -43.5 -55t-30.5 -64.5t-10.5 -68.5t16.5 -66q16 -32 47 -50.5t64.5 -24.5t65.5 1.5t52 27.5q47 48 58.5 99.5t-1 101t-45 95
t-72.5 81.5zM272 510q34 20 61 38.5t48 44.5q23 30 34.5 68.5t6.5 74.5q-7 45 -35.5 71t-65 32t-73 -8t-60.5 -48q-16 -23 -21 -55t3.5 -68.5t33 -75t68.5 -74.5z" />
    <glyph glyph-name="nine" unicode="9" horiz-adv-x="451" 
d="M41 85q21 -30 51 -38t61.5 2.5t61 37t50.5 66.5q20 39 36 85t26.5 94t15 96t2.5 90q-23 -54 -64 -91.5t-86 -49.5t-88.5 5.5t-71.5 73.5q-18 37 -23 80.5t3 85.5t27.5 80t49.5 64q32 28 71 36.5t77.5 2.5t73.5 -25t58 -47q27 -32 43 -79t22 -102.5t1 -116t-19 -119
t-37 -112t-55 -94.5q-27 -35 -66 -60.5t-82 -34t-84.5 2t-74.5 47.5q-5 5 -4.5 12t4.5 11.5t9.5 5t11.5 -8.5zM338 566q0 48 -6 81.5t-17 56.5q-14 33 -41.5 52.5t-58 23t-60.5 -8.5t-49 -42q-15 -23 -23.5 -53.5t-11 -64t1 -69t12.5 -68.5q9 -36 30 -51.5t47.5 -15t55.5 14
t53.5 35.5t43 50.5t23.5 58.5z" />
    <glyph glyph-name="exclam" unicode="!" horiz-adv-x="234" 
d="M88 73q-1 -8 -8 -11t-14.5 -2t-13.5 6t-5 14l70 823q3 26 20 37t35 8.5t31.5 -17t9.5 -38.5zM53 46q16 0 27 -10.5t12 -26.5q2 -19 -8.5 -28.5t-25.5 -9.5q-16 0 -26 9.5t-12 28.5q0 16 8.5 26.5t24.5 10.5z" />
    <glyph glyph-name="at" unicode="@" horiz-adv-x="781" 
d="M669 594q-7 71 -35 121t-69 78.5t-91 37t-100 -3.5t-96 -43.5t-79 -81.5q-33 -49 -55 -109t-32.5 -124.5t-9 -129.5t15.5 -122q18 -70 57.5 -115.5t93 -64.5t115 -10.5t122.5 46.5q46 31 82 73.5t64 92t49 103t38 107.5q0 4 4 5t8.5 -0.5t7 -4t1.5 -4.5
q-17 -59 -40.5 -118t-54.5 -112t-70.5 -97t-88.5 -73q-75 -47 -149.5 -53.5t-138.5 19t-111 80t-68 131.5q-18 65 -18 138t15 144.5t45.5 136.5t74.5 115t100 78t114.5 33.5t115 -9.5t102 -49.5t75.5 -88.5t36 -125q6 -68 -18.5 -137.5t-69.5 -126.5q-23 -29 -58 -54
t-69.5 -33t-60.5 9t-30 74q-2 17 -0.5 39.5t4.5 47.5q-8 -20 -19 -40t-22 -37q-16 -23 -35 -35.5t-34 -16.5q-19 -5 -35 -0.5t-28.5 14.5t-21.5 24t-14 29q-9 27 -12 57.5t0.5 61.5t13 59t24.5 49q27 38 69 53t84 -4q18 -10 33 -23.5t25 -35.5q7 29 11.5 48t6.5 22
q16 9 33 3t30 -22t19.5 -39.5t0.5 -48.5q0 -3 -4.5 -21.5t-10.5 -47t-12 -63t-10 -69.5q-2 -33 11 -39t31 3t37 27t30 33q38 54 57 116.5t14 122.5zM419 544q-12 27 -28 37.5t-32 8.5q-26 -3 -40.5 -23.5t-20.5 -40.5q-15 -36 -20.5 -81.5t-0.5 -83.5q4 -37 23.5 -33.5
t40.5 34.5q14 22 33.5 60.5t38.5 88.5z" />
    <glyph glyph-name="numbersign" unicode="#" horiz-adv-x="917" 
d="M416 843q3 7 14 10t23 1.5t21 -6.5t6 -13l-62 -222l183 1l62 228q3 8 13.5 11t21.5 1.5t19 -7t6 -13.5l-60 -218l227 -2q4 0 5.5 -4.5t1 -10t-2.5 -10t-5 -4.5l-233 1l-80 -290h228q4 0 6 -4.5t1.5 -10t-3.5 -10t-7 -4.5h-231l-74 -272q-2 -7 -12 -10t-21 -2t-19 6.5
t-5 16.5l69 261l-185 1l-73 -273q-2 -9 -12.5 -12t-22 -1.5t-19.5 7t-5 15.5l71 264h-234q-5 0 -6.5 4.5t-1 9.5t3 9.5t6.5 4.5h238l80 291l-229 2q-5 0 -7 4t-2 8.5t2.5 8.5t6.5 4h233zM410 586l-79 -290h184l80 290h-185z" />
    <glyph glyph-name="percent" unicode="%" horiz-adv-x="489" 
d="M208 791q-2 2 -5.5 4.5t-6.5 3.5t-5.5 0t-1.5 -7q2 -15 2 -31.5t-4.5 -36t-16 -43.5t-32.5 -54q-12 -16 -25 -25t-24.5 -10.5t-20.5 4.5t-12 20q-3 15 1 35t13 41.5t20.5 42t23.5 35.5q14 17 29.5 26t31.5 7q3 -1 5 1t3 4.5t0.5 4.5t-3.5 2q-25 5 -53.5 -2t-51.5 -30
q-17 -17 -29 -39.5t-18.5 -45.5t-7 -45.5t4.5 -39.5q6 -19 24 -28.5t41 -9t47 11t42 31.5q16 18 27.5 42.5t16.5 49t1.5 46.5t-16.5 35zM110 5q-2 -5 -10 -6t-16.5 1t-14 7.5t-3.5 12.5l287 835q3 9 12 10.5t17.5 -1t14.5 -9t3 -13.5zM451 224q-2 2 -5.5 4.5t-6.5 3.5
t-5.5 0t-1.5 -7q2 -15 2 -31.5t-4.5 -36t-16 -43.5t-32.5 -54q-12 -16 -25 -25t-24.5 -10.5t-20.5 4.5t-12 20q-3 15 1 35t13 41.5t20.5 42t23.5 35.5q14 17 29.5 26t31.5 7q3 -1 5 1t3 4.5t0.5 4.5t-3.5 2q-25 5 -53.5 -2t-51.5 -30q-17 -17 -29 -39.5t-18.5 -45.5
t-7 -45.5t4.5 -39.5q6 -19 24 -28.5t41 -9t47 11t42 31.5q16 18 27.5 42.5t16.5 49t1.5 46.5t-16.5 35z" />
    <glyph glyph-name="circumflex" unicode="&#x2c6;" horiz-adv-x="287" 
d="M143 824l-40 -94q-12 -12 -27 -13.5t-28.5 1.5t-21.5 9.5t-5 11.5l107 131q8 11 15 11t16 -11l107 -131q3 -5 -5 -11.5t-21.5 -9.5t-28.5 -1.5t-27 13.5z" />
    <glyph glyph-name="asterisk" unicode="*" horiz-adv-x="402" 
d="M166 772l-127 67q-11 7 -11.5 17.5t4.5 19.5t14 13.5t19 -1.5q13 -8 28.5 -18.5t32 -22t31.5 -22.5t27 -20l-3 147q0 10 9.5 15t21 5t20 -6t6.5 -16l-18 -150l126 80q9 6 17 1t13.5 -14t5.5 -19t-8 -14l-136 -65l128 -69q9 -5 9 -15.5t-5 -19.5t-14.5 -13.5t-20.5 2.5
q-25 17 -57 42t-61 43l5 -142q0 -12 -9 -18.5t-19.5 -6.5t-19 6.5t-6.5 18.5l16 142l-121 -75q-11 -6 -21 -1.5t-16 14t-5.5 20t11.5 16.5z" />
    <glyph glyph-name="parenleft" unicode="(" horiz-adv-x="358" 
d="M111 11q4 -8 -3 -12.5t-11 -1.5q-43 53 -61 132t-15 168t26.5 180t63.5 169t95 134.5t121 75.5q3 1 5.5 -1.5t4 -6t1 -6.5t-3.5 -4q-45 -28 -84 -87.5t-70 -136.5t-52.5 -163.5t-31.5 -169t-7 -153.5t22 -117z" />
    <glyph glyph-name="parenright" unicode=")" horiz-adv-x="216" 
d="M155 840q-2 4 -1 7.5t3.5 5.5t6 2t5.5 -1q43 -53 61 -132t15 -168t-26.5 -180t-63.5 -169t-95 -134.5t-121 -75.5q-3 -1 -5.5 1.5t-4 6t-1 6.5t3.5 4q45 28 84 87.5t70 136.5t52.5 163.5t31.5 169t6.5 154t-21.5 116.5z" />
    <glyph glyph-name="underscore" unicode="_" horiz-adv-x="514" 
d="M66 0q-12 0 -18.5 8t-7 17.5t6 17.5t19.5 8l384 -2q12 0 17.5 -7.5t5.5 -17t-5.5 -17t-16.5 -7.5h-385z" />
    <glyph glyph-name="plus" unicode="+" horiz-adv-x="474" 
d="M258 204l-10 -170q-1 -12 -9 -18.5t-17.5 -6.5t-17 6.5t-5.5 18.5l10 170h-166q-12 0 -18.5 8t-7 17.5t6 17.5t19.5 8l170 -2l9 167q0 12 8 18.5t17.5 7t16.5 -6t6 -19.5l-10 -167h167q12 0 17.5 -7.5t5.5 -17t-5.5 -17t-16.5 -7.5h-170z" />
    <glyph glyph-name="braceleft" unicode="{" horiz-adv-x="311" 
d="M20 444q37 7 59.5 29.5t35.5 55t19 71t10.5 78t10 76t17.5 64t32 43t55 12.5q14 -1 20.5 -7.5t9 -14t1.5 -14.5t-2 -9q-30 15 -47.5 8t-27.5 -30t-13.5 -58t-5 -74t-3 -80t-7 -75.5t-16.5 -59t-32 -32.5q21 -11 29.5 -35.5t10 -57t-2 -70t-6.5 -74t-3 -69t7 -55.5
t24.5 -33t49.5 -2q0 -2 -0.5 -9t-4.5 -14t-12 -11.5t-22 -2.5q-48 7 -67.5 37t-24.5 72.5t-3 92t-2.5 96t-23 85t-65.5 59.5v8z" />
    <glyph glyph-name="braceright" unicode="}" horiz-adv-x="311" 
d="M291 429q-37 -7 -59.5 -29.5t-35.5 -55t-19 -71t-10.5 -78t-10 -76t-17.5 -64t-32.5 -43t-54.5 -12.5q-14 1 -20.5 7.5t-9 14t-1.5 14.5t2 9q30 -15 47.5 -8t27.5 30t13.5 58t5 74t3 80t7 75.5t16.5 59t32 32.5q-21 11 -29.5 35.5t-10 57t2 70t6.5 74t3 69t-7 55.5
t-24.5 33t-49.5 2q0 2 0.5 9t4.5 14t12 11.5t22 2.5q48 -8 67.5 -37.5t24.5 -72t3 -92t2.5 -96t23 -85t65.5 -59.5v-8z" />
    <glyph glyph-name="bar" unicode="|" horiz-adv-x="90" 
d="M66 -12q0 -6 -7.5 -9t-16 -3.5t-15.5 2.5t-7 11l1 882q1 9 8.5 14t16.5 5t16.5 -4t7.5 -12z" />
    <glyph glyph-name="quotedblright" unicode="&#x201d;" horiz-adv-x="252" 
d="M39 674q13 3 25 14.5t17 25.5q-22 -10 -41.5 3.5t-19.5 42.5q2 26 20 38.5t37.5 9.5t33 -22t6.5 -55q-6 -29 -25.5 -52t-48.5 -31zM151 674q13 3 25 14.5t17 25.5q-22 -10 -41.5 3.5t-19.5 42.5q2 26 20 38.5t37.5 9.5t33 -22t6.5 -55q-6 -29 -25.5 -52t-48.5 -31z" />
    <glyph glyph-name="colon" unicode=":" horiz-adv-x="163" 
d="M69 143q19 0 32 -13.5t13 -35.5q0 -23 -13.5 -36t-31.5 -13q-20 0 -34.5 13t-14.5 36q0 22 14.5 35.5t34.5 13.5zM98 408q19 0 32 -13.5t13 -35.5q0 -23 -13.5 -36t-31.5 -13q-20 0 -34.5 13t-14.5 36q0 22 14.5 35.5t34.5 13.5z" />
    <glyph glyph-name="semicolon" unicode=";" horiz-adv-x="163" 
d="M98 408q19 0 32 -13.5t13 -35.5q0 -23 -13.5 -36t-31.5 -13q-20 0 -34.5 13t-14.5 36q0 22 14.5 35.5t34.5 13.5zM39 15q13 3 25 14.5t17 25.5q-22 -10 -41.5 3.5t-19.5 42.5q2 26 20 38.5t37.5 9.5t33 -22t6.5 -55q-6 -29 -25.5 -52t-48.5 -31z" />
    <glyph glyph-name="comma" unicode="," horiz-adv-x="163" 
d="M39 15q13 3 25 14.5t17 25.5q-22 -10 -41.5 3.5t-19.5 42.5q2 26 20 38.5t37.5 9.5t33 -22t6.5 -55q-6 -29 -25.5 -52t-48.5 -31z" />
    <glyph glyph-name="period" unicode="." horiz-adv-x="157" 
d="M69 149q19 0 32 -13.5t13 -35.5q0 -23 -13.5 -36t-31.5 -13q-20 0 -34.5 13t-14.5 36q0 22 14.5 35.5t34.5 13.5z" />
    <glyph glyph-name="quoteright" unicode="&#x2019;" horiz-adv-x="140" 
d="M39 674q13 3 25 14.5t17 25.5q-22 -10 -41.5 3.5t-19.5 42.5q2 26 20 38.5t37.5 9.5t33 -22t6.5 -55q-6 -29 -25.5 -52t-48.5 -31z" />
    <glyph glyph-name="less" unicode="&#x3c;" horiz-adv-x="305" 
d="M20 205l241 204q2 2 5.5 0t6.5 -5t4.5 -7t0.5 -5l-169 -185l175 -189q3 -3 -2.5 -12t-10.5 -5z" />
    <glyph glyph-name="greater" unicode="&#x3e;" horiz-adv-x="305" 
d="M285 205l-241 -204q-2 -2 -5.5 0t-6.5 5t-5 6.5t0 5.5l169 185l-175 189q-3 3 2.5 12t10.5 5z" />
    <glyph glyph-name="question" unicode="?" horiz-adv-x="536" 
d="M215 26q-1 -11 -11 -19.5t-22 -12.5t-21.5 -2.5t-9.5 10.5q1 75 9.5 130t23 95.5t33 69.5t39 53t41.5 46t40 47q28 37 48 80t30 85.5t9.5 81t-12.5 66.5q-19 43 -55 64t-77 21.5t-80.5 -19.5t-65.5 -57q-28 -40 -37.5 -94.5t-0.5 -117.5q-5 -2 -17 -1t-25 8.5t-23 23
t-10 41.5q-2 60 22.5 108t65.5 81q41 32 88 47t94 13.5t89.5 -18.5t74 -48.5t48 -77t11.5 -102.5q-4 -46 -23 -85t-45.5 -71.5t-54.5 -59t-50 -48.5q-31 -31 -58.5 -55.5t-46 -58.5t-25.5 -86t4 -138zM187 -26q19 0 32 -13.5t13 -35.5q0 -23 -13.5 -36t-31.5 -13
q-20 0 -34.5 13t-14.5 36q0 22 14.5 35.5t34.5 13.5z" />
    <glyph glyph-name="asciitilde" unicode="~" horiz-adv-x="598" 
d="M568 304q-23 -42 -56.5 -61.5t-72.5 -24t-80 2.5t-79 18q-33 10 -66 16t-65 4.5t-62 -12t-57 -34.5q15 41 42 64t62.5 32.5t76.5 7.5t83 -11q43 -9 82.5 -20t75 -15.5t65 2t51.5 31.5z" />
    <glyph glyph-name="grave" unicode="`" horiz-adv-x="181" 
d="M159 724q2 -5 0 -10.5t-6.5 -8.5t-9.5 -3.5t-8 3.5l-114 139q-3 5 5 11.5t21.5 9.5t28.5 1.5t27 -13.5z" />
    <glyph glyph-name="acute" unicode="&#xb4;" horiz-adv-x="181" 
d="M78 853q12 12 27 13.5t28.5 -1.5t21.5 -9.5t5 -11.5l-114 -139q-3 -4 -8 -3.5t-9.5 3.5t-6.5 8.5t0 10.5z" />
    <glyph glyph-name="hyphen" unicode="-" horiz-adv-x="474" 
d="M46 204q-12 0 -18.5 8t-7 17.5t6 17.5t19.5 8l384 -2q12 0 17.5 -7.5t5.5 -17t-5.5 -17t-16.5 -7.5h-385z" />
    <glyph glyph-name="equal" unicode="=" horiz-adv-x="293" 
d="M115 349q-6 0 -8.5 4.5t-1.5 10.5t4.5 10.5t9.5 4.5l181 -1q6 0 8 -4.5t1.5 -9.5t-4 -10t-8.5 -5h-182zM89 222q-6 0 -8 4.5t-1.5 10t4 10.5t9.5 5l186 -1q6 0 8 -4t1 -9.5t-4 -10.5t-9 -5h-186z" />
    <glyph glyph-name="bracketleft" unicode="[" horiz-adv-x="232" 
d="M206 861q3 0 4.5 -3.5t1 -7t-2.5 -7t-4 -3.5h-48l-74 -824h51q5 0 4.5 -11t-6.5 -11h-107q-5 0 -5 6l76 856q2 5 5 5h105z" />
    <glyph glyph-name="bracketright" unicode="]" horiz-adv-x="232" 
d="M26 -6q-3 0 -4.5 3.5t-1 7t2.5 7t4 3.5h48l74 824h-51q-5 0 -4.5 11t6.5 11h107q5 0 5 -6l-76 -856q-2 -5 -5 -5h-105z" />
    <glyph glyph-name="backslash" unicode="\" horiz-adv-x="376" 
d="M355 27q3 -8 -3 -14t-14.5 -8.5t-17.5 -1t-12 10.5l-287 835q-2 7 3.5 12.5t14 7.5t16.5 1t10 -6z" />
    <glyph glyph-name="fraction" unicode="&#x2044;" horiz-adv-x="445" 
d="M99 5q-2 -5 -10 -6t-16.5 1t-14 7.5t-3.5 12.5l287 835q3 9 12 10.5t17.5 -1t14.5 -9t3 -13.5z" />
    <glyph glyph-name="caron" unicode="&#x2c7;" horiz-adv-x="310" 
d="M115 674l75 83q5 5 12 0t3 -11l-89 -139q-4 -4 -8 -3t-6 5l-68 142q-2 7 5 11.5t10 -0.5z" />
    <glyph glyph-name="slash" unicode="/" horiz-adv-x="376" 
d="M65 5q-2 -5 -10 -6t-16.5 1t-14 7.5t-3.5 12.5l287 835q3 9 12 10.5t17.5 -1t14.5 -9t3 -13.5z" />
    <glyph glyph-name="asciicircum" unicode="^" horiz-adv-x="450" 
d="M230 844l199 -245q2 -2 0 -5.5t-5.5 -6.5t-7.5 -5t-5 0l-181 173l-193 -171q-3 -3 -11.5 2.5t-4.5 10.5z" />
    <glyph glyph-name="quotesinglbase" unicode="&#x201a;" horiz-adv-x="140" 
d="M39 15q13 3 25 14.5t17 25.5q-22 -10 -41.5 3.5t-19.5 42.5q2 26 20 38.5t37.5 9.5t33 -22t6.5 -55q-6 -29 -25.5 -52t-48.5 -31z" />
    <glyph glyph-name="quotedblbase" unicode="&#x201e;" horiz-adv-x="253" 
d="M39 15q13 3 25 14.5t17 25.5q-22 -10 -41.5 3.5t-19.5 42.5q2 26 20 38.5t37.5 9.5t33 -22t6.5 -55q-6 -29 -25.5 -52t-48.5 -31zM152 15q13 3 25 14.5t17 25.5q-22 -10 -41.5 3.5t-19.5 42.5q2 26 20 38.5t37.5 9.5t33 -22t6.5 -55q-6 -29 -25.5 -52t-48.5 -31z" />
    <glyph glyph-name="quotedblleft" unicode="&#x201c;" horiz-adv-x="252" 
d="M213 804q-13 -3 -25 -14.5t-17 -25.5q22 10 41.5 -3.5t19.5 -42.5q-2 -26 -20 -38.5t-37.5 -9.5t-33 22t-6.5 55q6 29 25.5 52t48.5 31zM101 804q-13 -3 -25 -14.5t-17 -25.5q22 10 41.5 -3.5t19.5 -42.5q-2 -26 -20 -38.5t-37.5 -9.5t-33 22t-6.5 55q6 29 25.5 52
t48.5 31z" />
    <glyph glyph-name="tilde" unicode="&#x2dc;" horiz-adv-x="406" 
d="M20 696q14 19 30 35.5t40 25.5t61 7t93 -20q38 -14 74 -16.5t68 17.5q-15 -25 -34 -41t-45 -22.5t-61.5 -3t-82.5 18.5q-37 12 -73 16.5t-70 -17.5z" />
    <glyph glyph-name="dieresis" unicode="&#xa8;" horiz-adv-x="248" 
d="M69 810q19 0 32 -13.5t13 -35.5q0 -23 -13.5 -36t-31.5 -13q-20 0 -34.5 13t-14.5 36q0 22 14.5 35.5t34.5 13.5zM183 810q19 0 32 -13.5t13 -35.5q0 -23 -13.5 -36t-31.5 -13q-20 0 -34.5 13t-14.5 36q0 22 14.5 35.5t34.5 13.5z" />
    <glyph glyph-name="ring" unicode="&#x2da;" horiz-adv-x="166" 
d="M34 653q0 -43 25 -63t54.5 -18t53 24.5t20.5 63.5q-3 39 -26.5 56t-51 15t-50.5 -22t-25 -56zM217 654q1 -39 -15.5 -65t-41.5 -38.5t-54 -12t-53 13.5t-39 39.5t-12 65.5q3 35 20 58.5t40 34.5t49.5 10t49 -13t38.5 -35.5t18 -57.5z" />
    <glyph glyph-name="cedilla" unicode="&#xb8;" horiz-adv-x="168" 
d="M85 64q-1 -7 -1 -13t-1 -11q-1 -6 -2 -11q29 1 46.5 -20t19.5 -47.5t-13 -50t-49 -26.5q-29 -1 -42.5 9t-18 22.5t-3.5 22.5t2 9q11 -9 29.5 -14t26.5 -5q24 0 31.5 15.5t2 32t-21.5 28t-40 4.5q2 22 2.5 34.5t-1.5 20.5h33z" />
    <glyph glyph-name="ogonek" unicode="&#x2db;" horiz-adv-x="136" 
d="M136 68q-2 -8 -1.5 -20.5t2.5 -34.5q-26 8 -43.5 -4t-24.5 -30t0 -34t31 -16q8 0 26.5 5t29.5 14q1 1 2 -9t-3.5 -22.5t-18.5 -22.5t-42 -9q-35 3 -48.5 28t-10 53t22 49.5t49.5 17.5q-1 5 -2 11q-1 5 -1.5 11t-0.5 13h33z" />
    <glyph glyph-name="quotedbl" unicode="&#x22;" horiz-adv-x="252" 
d="M39 674q13 3 25 14.5t17 25.5q-22 -10 -41.5 3.5t-19.5 42.5q2 26 20 38.5t37.5 9.5t33 -22t6.5 -55q-6 -29 -25.5 -52t-48.5 -31zM151 674q13 3 25 14.5t17 25.5q-22 -10 -41.5 3.5t-19.5 42.5q2 26 20 38.5t37.5 9.5t33 -22t6.5 -55q-6 -29 -25.5 -52t-48.5 -31z" />
    <glyph glyph-name="quotesingle" unicode="'" horiz-adv-x="140" 
d="M39 674q13 3 25 14.5t17 25.5q-22 -10 -41.5 3.5t-19.5 42.5q2 26 20 38.5t37.5 9.5t33 -22t6.5 -55q-6 -29 -25.5 -52t-48.5 -31z" />
    <glyph glyph-name="ampersand" unicode="&#x26;" horiz-adv-x="925" 
d="M664 206q-25 -31 -53 -56.5t-55 -46.5q27 -16 58.5 -18t62 7t56.5 27t41.5 42.5t17.5 53.5t-16 60q39 1 68 -9.5t45 -30.5t16 -48.5t-21 -61.5q-25 -40 -71 -61t-99.5 -26t-107 4.5t-92.5 31.5q-46 -29 -92 -52.5t-100 -33.5q-60 -11 -110 -6t-88.5 22t-63.5 45.5
t-34 65.5q-13 53 3.5 106t49.5 101t76.5 88.5t83.5 69.5q-4 21 -7 47t-3.5 53t1.5 54.5t7 52.5q17 77 50.5 124.5t74.5 70.5q42 24 85.5 23.5t77.5 -21.5q38 -23 52.5 -55.5t11 -68.5t-22 -71t-45.5 -62q-19 -18 -39 -33.5t-42 -30.5t-46.5 -32t-52.5 -38
q16 -60 32.5 -114.5t37.5 -102t49.5 -86.5t67.5 -69q26 20 55.5 46t55.5 56zM253 431q-30 -25 -58.5 -54.5t-47.5 -63.5t-26.5 -72.5t4.5 -82.5q8 -31 24.5 -57.5t40.5 -45.5t55 -27t68 -1q49 9 94.5 27.5t77.5 38.5q-42 31 -76 63t-62.5 71.5t-51.5 89t-42 114.5zM329 536
q49 32 96.5 61.5t84.5 69.5q19 20 32.5 46t16.5 53t-7 52.5t-39 44.5t-65 17t-67 -31q-23 -22 -40 -60.5t-22 -97.5q-4 -41 -1 -76t11 -79z" />
    <glyph glyph-name="a" unicode="a" horiz-adv-x="436" 
d="M456 200q-17 -36 -32.5 -69.5t-30.5 -56.5q-21 -32 -50.5 -45.5t-57 -7.5t-48.5 32t-24 73q-2 17 -0.5 39.5t4.5 47.5q-8 -20 -19 -40t-22 -37q-16 -23 -35 -35.5t-34 -16.5q-19 -5 -35 -0.5t-28.5 14.5t-21.5 24t-14 29q-9 27 -12 57.5t0.5 61.5t13 59t24.5 49
q27 38 69 53t84 -4q18 -10 33 -23.5t25 -35.5q7 29 11.5 48t6.5 22q16 9 33 3t30 -22t19.5 -39.5t0.5 -48.5q0 -3 -4.5 -21.5t-10.5 -47t-12 -63t-10 -69.5q-3 -20 2 -37.5t15.5 -24t25 2t31.5 38.5q7 13 13.5 24.5t12.5 23t12.5 24t14.5 29.5zM239 343q-12 27 -28 37.5
t-32 8.5q-26 -3 -40.5 -23.5t-20.5 -40.5q-15 -36 -20.5 -81.5t-0.5 -83.5q4 -37 23.5 -33.5t40.5 34.5q14 22 33.5 60.5t38.5 88.5z" />
    <glyph glyph-name="b" unicode="b" horiz-adv-x="368" 
d="M166 643l-57 -336q9 18 19 36.5t23 35.5q20 26 43.5 44t49.5 20q35 2 54.5 -20.5t28.5 -55t9.5 -68t-3.5 -59.5q-6 -35 -19.5 -68.5t-33.5 -59.5q-29 -38 -72 -53t-84 4q-14 8 -26.5 18.5t-21.5 26.5l-19 -107q-16 -9 -31.5 -3.5t-26.5 21.5t-16.5 39t-1.5 49
q23 141 40 257t28 200t17 132t8 54q16 9 34.5 3t33 -22t22.5 -39.5t2 -48.5zM81 136q11 -21 25 -29t28 -6q26 3 41.5 23.5t23.5 40.5q9 18 15 42.5t10 51t5.5 51.5t0.5 44q-2 35 -21.5 32.5t-42.5 -33.5q-15 -21 -33 -53t-38 -77q-5 -25 -8 -46.5t-6 -40.5z" />
    <glyph glyph-name="c" unicode="c" horiz-adv-x="264" 
d="M284 199q-14 -24 -37 -52.5t-50 -51.5q-32 -27 -63.5 -32.5t-58.5 5.5t-46 36t-24 60q-4 27 -4.5 56t4 57.5t14.5 54.5t25 46q19 26 44.5 40.5t51.5 17.5t50.5 -5t42.5 -27q5 -6 10 -13t9 -16q4 -8 -4.5 -12.5t-13.5 0.5q-5 7 -8 11.5t-8 7.5q-12 8 -25 8.5t-24.5 -4.5
t-20.5 -13.5t-15 -17.5q-13 -20 -20.5 -51.5t-11 -63.5t-3 -59.5t4.5 -40.5q6 -19 15 -27.5t20.5 -9.5t24 5t25.5 16q13 9 25 21t22 24t17.5 23t11.5 18z" />
    <glyph glyph-name="dotlessi" unicode="&#x131;" horiz-adv-x="215" 
d="M234 200q-17 -36 -32.5 -69.5t-30.5 -56.5q-21 -32 -50.5 -45.5t-57 -7.5t-48.5 32t-24 73q-2 23 1 55t8 65.5t12 67t13 60t10.5 44.5t5.5 20q16 9 33 3t30 -22t19.5 -39.5t0.5 -48.5q0 -3 -4.5 -21.5t-10.5 -47t-12 -63t-10 -69.5q-3 -20 2 -37.5t15.5 -24t25 2
t31.5 38.5q7 13 13.5 24.5l13 23t13.5 24t15 29.5z" />
    <glyph glyph-name="dollar" unicode="$" horiz-adv-x="468" 
d="M140 -143q-1 -7 -9.5 -9t-18 -0.5t-17 6.5t-6.5 12l10 56q-42 3 -80 21t-66 49t-43 76t-10 102q5 55 26 98.5t61 87.5q4 4 19 14.5t36.5 15t47 -1t51.5 -32.5q-23 -13 -48 -30t-46.5 -38.5t-38.5 -49t-25 -62.5q-12 -53 -5.5 -93t24.5 -67t45.5 -42t57.5 -17l91 488
q-20 44 -38.5 87.5t-28.5 88t-9.5 89t18.5 91.5q9 22 24 40t34.5 30t41 18.5t43.5 6.5l8 44q1 9 10.5 11.5t19.5 0.5t17.5 -9t5.5 -16l-8 -41q33 -14 54 -50t17 -96q0 -7 -5.5 -16.5t-16 -18t-26 -14.5t-34.5 -5q18 37 15 72t-17 61l-50 -263q24 -65 50 -130t39.5 -130.5
t8 -129.5t-43.5 -125q-32 -51 -77 -78.5t-96 -34.5zM263 50q26 57 20.5 120.5t-27.5 128.5q-5 14 -10.5 28.5t-11.5 28.5l-75 -397q32 9 59.5 31.5t44.5 59.5zM224 780q-2 -29 1.5 -59t11.5 -61l37 196q-18 3 -33 -14t-17 -62z" />
    <glyph glyph-name="ellipsis" unicode="&#x2026;" horiz-adv-x="402" 
d="M69 149q19 0 32 -13.5t13 -35.5q0 -23 -13.5 -36t-31.5 -13q-20 0 -34.5 13t-14.5 36q0 22 14.5 35.5t34.5 13.5zM203 149q19 0 32 -13.5t13 -35.5q0 -23 -13.5 -36t-31.5 -13q-20 0 -34.5 13t-14.5 36q0 22 14.5 35.5t34.5 13.5zM337 149q19 0 32 -13.5t13 -35.5
q0 -23 -13.5 -36t-31.5 -13q-20 0 -34.5 13t-14.5 36q0 22 14.5 35.5t34.5 13.5z" />
    <glyph glyph-name="exclamdown" unicode="&#xa1;" horiz-adv-x="234" 
d="M155 871q1 8 8 11t14.5 2t13.5 -6t5 -14l-70 -823q-3 -26 -20 -37t-35 -8.5t-31.5 17t-9.5 38.5zM190 898q-16 0 -27 10.5t-12 26.5q-2 19 8.5 28.5t25.5 9.5q16 0 26 -9.5t12 -28.5q0 -16 -8.5 -26.5t-24.5 -10.5z" />
    <glyph glyph-name="aacute" unicode="&#xe1;" horiz-adv-x="438" 
d="M456 200q-17 -36 -32.5 -69.5t-30.5 -56.5q-21 -32 -50.5 -45.5t-57 -7.5t-48.5 32t-24 73q-2 17 -0.5 39.5t4.5 47.5q-8 -20 -19 -40t-22 -37q-16 -23 -35 -35.5t-34 -16.5q-19 -5 -35 -0.5t-28.5 14.5t-21.5 24t-14 29q-9 27 -12 57.5t0.5 61.5t13 59t24.5 49
q27 38 69 53t84 -4q18 -10 33 -23.5t25 -35.5q7 29 11.5 48t6.5 22q16 9 33 3t30 -22t19.5 -39.5t0.5 -48.5q0 -3 -4.5 -21.5t-10.5 -47t-12 -63t-10 -69.5q-3 -20 2 -37.5t15.5 -24t25 2t31.5 38.5q7 13 13.5 24.5l13 23t13.5 24t15 29.5zM239 343q-12 27 -28 37.5t-32 8.5
q-26 -3 -40.5 -23.5t-20.5 -40.5q-15 -36 -20.5 -81.5t-0.5 -83.5q4 -37 23.5 -33.5t40.5 34.5q14 22 33.5 60.5t38.5 88.5zM272 695q12 12 27 13.5t28.5 -1.5t21.5 -9.5t5 -11.5l-114 -139q-3 -4 -8 -3.5t-9.5 3.5t-6.5 8.5t0 10.5z" />
    <glyph glyph-name="acircumflex" unicode="&#xe2;" horiz-adv-x="438" 
d="M456 200q-17 -36 -32.5 -69.5t-30.5 -56.5q-21 -32 -50.5 -45.5t-57 -7.5t-48.5 32t-24 73q-2 17 -0.5 39.5t4.5 47.5q-8 -20 -19 -40t-22 -37q-16 -23 -35 -35.5t-34 -16.5q-19 -5 -35 -0.5t-28.5 14.5t-21.5 24t-14 29q-9 27 -12 57.5t0.5 61.5t13 59t24.5 49
q27 38 69 53t84 -4q18 -10 33 -23.5t25 -35.5q7 29 11.5 48t6.5 22q16 9 33 3t30 -22t19.5 -39.5t0.5 -48.5q0 -3 -4.5 -21.5t-10.5 -47t-12 -63t-10 -69.5q-3 -20 2 -37.5t15.5 -24t25 2t31.5 38.5q7 13 13.5 24.5l13 23t13.5 24t15 29.5zM239 343q-12 27 -28 37.5t-32 8.5
q-26 -3 -40.5 -23.5t-20.5 -40.5q-15 -36 -20.5 -81.5t-0.5 -83.5q4 -37 23.5 -33.5t40.5 34.5q14 22 33.5 60.5t38.5 88.5zM214 647l-40 -94q-12 -12 -27 -13.5t-28.5 1.5t-21.5 9.5t-5 11.5l107 131q8 11 15 11t16 -11l107 -131q3 -5 -5 -11.5t-21.5 -9.5t-28.5 -1.5
t-27 13.5z" />
    <glyph glyph-name="atilde" unicode="&#xe3;" horiz-adv-x="438" 
d="M456 200q-17 -36 -32.5 -69.5t-30.5 -56.5q-21 -32 -50.5 -45.5t-57 -7.5t-48.5 32t-24 73q-2 17 -0.5 39.5t4.5 47.5q-8 -20 -19 -40t-22 -37q-16 -23 -35 -35.5t-34 -16.5q-19 -5 -35 -0.5t-28.5 14.5t-21.5 24t-14 29q-9 27 -12 57.5t0.5 61.5t13 59t24.5 49
q27 38 69 53t84 -4q18 -10 33 -23.5t25 -35.5q7 29 11.5 48t6.5 22q16 9 33 3t30 -22t19.5 -39.5t0.5 -48.5q0 -3 -4.5 -21.5t-10.5 -47t-12 -63t-10 -69.5q-3 -20 2 -37.5t15.5 -24t25 2t31.5 38.5q7 13 13.5 24.5l13 23t13.5 24t15 29.5zM239 343q-12 27 -28 37.5t-32 8.5
q-26 -3 -40.5 -23.5t-20.5 -40.5q-15 -36 -20.5 -81.5t-0.5 -83.5q4 -37 23.5 -33.5t40.5 34.5q14 22 33.5 60.5t38.5 88.5zM20 560q14 19 30 35.5t40 25.5t61 7t93 -20q38 -14 74 -16.5t68 17.5q-15 -25 -34 -41t-45 -22.5t-61.5 -3t-82.5 18.5q-37 12 -73 16.5t-70 -17.5z
" />
    <glyph glyph-name="adieresis" unicode="&#xe4;" horiz-adv-x="438" 
d="M456 200q-17 -36 -32.5 -69.5t-30.5 -56.5q-21 -32 -50.5 -45.5t-57 -7.5t-48.5 32t-24 73q-2 17 -0.5 39.5t4.5 47.5q-8 -20 -19 -40t-22 -37q-16 -23 -35 -35.5t-34 -16.5q-19 -5 -35 -0.5t-28.5 14.5t-21.5 24t-14 29q-9 27 -12 57.5t0.5 61.5t13 59t24.5 49
q27 38 69 53t84 -4q18 -10 33 -23.5t25 -35.5q7 29 11.5 48t6.5 22q16 9 33 3t30 -22t19.5 -39.5t0.5 -48.5q0 -3 -4.5 -21.5t-10.5 -47t-12 -63t-10 -69.5q-3 -20 2 -37.5t15.5 -24t25 2t31.5 38.5q7 13 13.5 24.5l13 23t13.5 24t15 29.5zM239 343q-12 27 -28 37.5t-32 8.5
q-26 -3 -40.5 -23.5t-20.5 -40.5q-15 -36 -20.5 -81.5t-0.5 -83.5q4 -37 23.5 -33.5t40.5 34.5q14 22 33.5 60.5t38.5 88.5zM170 639q19 0 32 -13.5t13 -35.5q0 -23 -13.5 -36t-31.5 -13q-20 0 -34.5 13t-14.5 36q0 22 14.5 35.5t34.5 13.5zM284 639q19 0 32 -13.5t13 -35.5
q0 -23 -13.5 -36t-31.5 -13q-20 0 -34.5 13t-14.5 36q0 22 14.5 35.5t34.5 13.5z" />
    <glyph glyph-name="aring" unicode="&#xe5;" horiz-adv-x="438" 
d="M456 200q-17 -36 -32.5 -69.5t-30.5 -56.5q-21 -32 -50.5 -45.5t-57 -7.5t-48.5 32t-24 73q-2 17 -0.5 39.5t4.5 47.5q-8 -20 -19 -40t-22 -37q-16 -23 -35 -35.5t-34 -16.5q-19 -5 -35 -0.5t-28.5 14.5t-21.5 24t-14 29q-9 27 -12 57.5t0.5 61.5t13 59t24.5 49
q27 38 69 53t84 -4q18 -10 33 -23.5t25 -35.5q7 29 11.5 48t6.5 22q16 9 33 3t30 -22t19.5 -39.5t0.5 -48.5q0 -3 -4.5 -21.5t-10.5 -47t-12 -63t-10 -69.5q-3 -20 2 -37.5t15.5 -24t25 2t31.5 38.5q7 13 13.5 24.5l13 23t13.5 24t15 29.5zM331 654q1 -39 -15.5 -65
t-41.5 -38.5t-54 -12t-53 13.5t-39 39.5t-12 65.5q3 35 20 58.5t40 34.5t49.5 10t49 -13t38.5 -35.5t18 -57.5zM239 343q-12 27 -28 37.5t-32 8.5q-26 -3 -40.5 -23.5t-20.5 -40.5q-15 -36 -20.5 -81.5t-0.5 -83.5q4 -37 23.5 -33.5t40.5 34.5q14 22 33.5 60.5t38.5 88.5z
M148 653q0 -43 25 -63t54.5 -18t53 24.5t20.5 63.5q-3 39 -26.5 56t-51 15t-50.5 -22t-25 -56z" />
    <glyph glyph-name="ccedilla" unicode="&#xe7;" horiz-adv-x="266" 
d="M286 199q-10 -19 -26 -41t-35.5 -42t-40.5 -36t-40 -22q-5 -2 -10 -3l-10 -2q-1 -5 -1 -9.5t-1 -7.5q-1 -4 -1 -7q29 1 46.5 -20t19.5 -47.5t-13 -50t-49 -26.5q-29 -1 -42.5 9t-18 22.5t-3.5 22.5t2 9q11 -9 29.5 -14t26.5 -5q24 0 31.5 15.5t2 32t-21.5 28t-40 4.5
q2 15 2.5 25t-0.5 18q-31 4 -55 28q-25 25 -34 67q-6 26 -7 58t4 63.5t14.5 60.5t24.5 49q18 24 42 38.5t50 18t51 -4t44 -26.5q13 -13 21 -29q4 -8 -4.5 -12.5t-13.5 0.5q-9 14 -17 19q-13 8 -26 6.5t-24 -8.5t-20 -17.5t-14 -19.5q-11 -21 -17.5 -50.5t-9 -59t-1 -55
t6.5 -38.5q8 -25 21.5 -32t29.5 -2.5t33 18t32 29.5t26 32t16 25z" />
    <glyph glyph-name="egrave" unicode="&#xe8;" horiz-adv-x="281" 
d="M102 140q7 -25 21.5 -32t32.5 -2.5t38 18t37.5 30t31 32t18.5 25.5l19 -11q-11 -19 -30.5 -41t-43 -42t-48 -35t-44.5 -20q-26 -6 -48 -1.5t-39.5 18t-29.5 34.5t-16 46q-5 32 -3 67t11 68t24 61.5t36 46.5q34 29 71 30.5t64 -15.5t36 -47.5t-13 -66.5q-15 -23 -33 -39
t-36 -26t-33.5 -15.5t-24.5 -6.5q-2 -25 -2 -45t4 -31zM207 564q2 -5 0 -10.5t-6.5 -8.5t-9.5 -3.5t-8 3.5l-114 139q-3 5 5 11.5t21.5 9.5t28.5 1.5t27 -13.5zM199 315q12 21 9 37t-15 22t-28.5 -0.5t-30.5 -30.5q-11 -20 -18.5 -45.5t-12.5 -52.5q27 5 53.5 24t42.5 46z
" />
    <glyph glyph-name="eacute" unicode="&#xe9;" horiz-adv-x="281" 
d="M102 140q7 -25 21.5 -32t32.5 -2.5t38 18t37.5 30t31 32t18.5 25.5l19 -11q-11 -19 -30.5 -41t-43 -42t-48 -35t-44.5 -20q-26 -6 -48 -1.5t-39.5 18t-29.5 34.5t-16 46q-5 32 -3 67t11 68t24 61.5t36 46.5q34 29 71 30.5t64 -15.5t36 -47.5t-13 -66.5q-15 -23 -33 -39
t-36 -26t-33.5 -15.5t-24.5 -6.5q-2 -25 -2 -45t4 -31zM184 678q12 12 27 13.5t28.5 -1.5t21.5 -9.5t5 -11.5l-114 -139q-3 -4 -8 -3.5t-9.5 3.5t-6.5 8.5t0 10.5zM199 315q12 21 9 37t-15 22t-28.5 -0.5t-30.5 -30.5q-11 -20 -18.5 -45.5t-12.5 -52.5q27 5 53.5 24t42.5 46
z" />
    <glyph glyph-name="ecircumflex" unicode="&#xea;" horiz-adv-x="281" 
d="M102 140q7 -25 21.5 -32t32.5 -2.5t38 18t37.5 30t31 32t18.5 25.5l19 -11q-11 -19 -30.5 -41t-43 -42t-48 -35t-44.5 -20q-26 -6 -48 -1.5t-39.5 18t-29.5 34.5t-16 46q-5 32 -3 67t11 68t24 61.5t36 46.5q34 29 71 30.5t64 -15.5t36 -47.5t-13 -66.5q-15 -23 -33 -39
t-36 -26t-33.5 -15.5t-24.5 -6.5q-2 -25 -2 -45t4 -31zM199 315q12 21 9 37t-15 22t-28.5 -0.5t-30.5 -30.5q-11 -20 -18.5 -45.5t-12.5 -52.5q27 5 53.5 24t42.5 46zM151 637l-40 -94q-12 -12 -27 -13.5t-28.5 1.5t-21.5 9.5t-5 11.5l107 131q8 11 15 11t16 -11l107 -131
q3 -5 -5 -11.5t-21.5 -9.5t-28.5 -1.5t-27 13.5z" />
    <glyph glyph-name="edieresis" unicode="&#xeb;" horiz-adv-x="281" 
d="M102 140q7 -25 21.5 -32t32.5 -2.5t38 18t37.5 30t31 32t18.5 25.5l19 -11q-11 -19 -30.5 -41t-43 -42t-48 -35t-44.5 -20q-26 -6 -48 -1.5t-39.5 18t-29.5 34.5t-16 46q-5 32 -3 67t11 68t24 61.5t36 46.5q34 29 71 30.5t64 -15.5t36 -47.5t-13 -66.5q-15 -23 -33 -39
t-36 -26t-33.5 -15.5t-24.5 -6.5q-2 -25 -2 -45t4 -31zM199 315q12 21 9 37t-15 22t-28.5 -0.5t-30.5 -30.5q-11 -20 -18.5 -45.5t-12.5 -52.5q27 5 53.5 24t42.5 46zM91 639q19 0 32 -13.5t13 -35.5q0 -23 -13.5 -36t-31.5 -13q-20 0 -34.5 13t-14.5 36q0 22 14.5 35.5
t34.5 13.5zM205 639q19 0 32 -13.5t13 -35.5q0 -23 -13.5 -36t-31.5 -13q-20 0 -34.5 13t-14.5 36q0 22 14.5 35.5t34.5 13.5z" />
    <glyph glyph-name="igrave" unicode="&#xec;" horiz-adv-x="215" 
d="M234 200q-17 -36 -32.5 -69.5t-30.5 -56.5q-21 -32 -50.5 -45.5t-57 -7.5t-48.5 32t-24 73q-2 23 1 55t8 65.5t12 67t13 60t10.5 44.5t5.5 20q16 9 33 3t30 -22t19.5 -39.5t0.5 -48.5q0 -3 -4.5 -21.5t-10.5 -47t-12 -63t-10 -69.5q-3 -20 2 -37.5t15.5 -24t25 2
t31.5 38.5q7 13 13.5 24.5l13 23t13.5 24t15 29.5zM138 555q2 -5 0 -10.5t-6.5 -8.5t-9.5 -3.5t-8 3.5l-114 139q-3 5 5 11.5t21.5 9.5t28.5 1.5t27 -13.5z" />
    <glyph glyph-name="iacute" unicode="&#xed;" horiz-adv-x="215" 
d="M234 200q-17 -36 -32.5 -69.5t-30.5 -56.5q-21 -32 -50.5 -45.5t-57 -7.5t-48.5 32t-24 73q-2 23 1 55t8 65.5t12 67t13 60t10.5 44.5t5.5 20q16 9 33 3t30 -22t19.5 -39.5t0.5 -48.5q0 -3 -4.5 -21.5t-10.5 -47t-12 -63t-10 -69.5q-3 -20 2 -37.5t15.5 -24t25 2
t31.5 38.5q7 13 13.5 24.5l13 23t13.5 24t15 29.5zM89 681q12 12 27 13.5t28.5 -1.5t21.5 -9.5t5 -11.5l-114 -139q-3 -4 -8 -3.5t-9.5 3.5t-6.5 8.5t0 10.5z" />
    <glyph glyph-name="icircumflex" unicode="&#xee;" horiz-adv-x="215" 
d="M234 200q-17 -36 -32.5 -69.5t-30.5 -56.5q-21 -32 -50.5 -45.5t-57 -7.5t-48.5 32t-24 73q-2 23 1 55t8 65.5t12 67t13 60t10.5 44.5t5.5 20q16 9 33 3t30 -22t19.5 -39.5t0.5 -48.5q0 -3 -4.5 -21.5t-10.5 -47t-12 -63t-10 -69.5q-3 -20 2 -37.5t15.5 -24t25 2
t31.5 38.5q7 13 13.5 24.5l13 23t13.5 24t15 29.5zM101 645l-40 -94q-12 -12 -27 -13.5t-28.5 1.5t-21.5 9.5t-5 11.5l107 131q8 11 15 11t16 -11l107 -131q3 -5 -5 -11.5t-21.5 -9.5t-28.5 -1.5t-27 13.5z" />
    <glyph glyph-name="idieresis" unicode="&#xef;" horiz-adv-x="215" 
d="M234 200q-17 -36 -32.5 -69.5t-30.5 -56.5q-21 -32 -50.5 -45.5t-57 -7.5t-48.5 32t-24 73q-2 23 1 55t8 65.5t12 67t13 60t10.5 44.5t5.5 20q16 9 33 3t30 -22t19.5 -39.5t0.5 -48.5q0 -3 -4.5 -21.5t-10.5 -47t-12 -63t-10 -69.5q-3 -20 2 -37.5t15.5 -24t25 2
t31.5 38.5q7 13 13.5 24.5l13 23t13.5 24t15 29.5zM42 634q19 0 32 -13.5t13 -35.5q0 -23 -13.5 -36t-31.5 -13q-20 0 -34.5 13t-14.5 36q0 22 14.5 35.5t34.5 13.5zM156 634q19 0 32 -13.5t13 -35.5q0 -23 -13.5 -36t-31.5 -13q-20 0 -34.5 13t-14.5 36q0 22 14.5 35.5
t34.5 13.5z" />
    <glyph glyph-name="ntilde" unicode="&#xf1;" horiz-adv-x="398" 
d="M-18 107q12 96 19 156.5t11.5 94.5t6 47.5t2.5 15.5q16 9 34.5 3t33 -22t22.5 -39.5t2 -48.5l-20 -120q21 41 42.5 79.5t35.5 61.5q26 40 46 61t46 11q23 -9 34 -28t14.5 -42t1 -46t-6.5 -40q-5 -20 -9.5 -42.5t-8.5 -44.5t-6.5 -42.5t-2.5 -36.5q2 -42 20.5 -38.5
t41.5 42.5q15 27 30.5 57.5t32.5 63.5l18 -10q-17 -36 -33 -69.5t-30 -56.5q-23 -38 -49.5 -56.5t-50.5 -17.5t-41.5 21.5t-22.5 61.5q-4 30 -2 63t7 66t12 64t13 58q8 38 -3.5 30t-34.5 -46q-4 -6 -15.5 -27t-27 -49.5t-32.5 -60.5t-32 -60q-19 -114 -22 -120
q-16 -9 -31 -3.5t-26 21.5t-16.5 39t-2.5 49zM9 562q14 19 30 35.5t40 25.5t61 7t93 -20q38 -14 74 -16.5t68 17.5q-15 -25 -34 -41t-45 -22.5t-61.5 -3t-82.5 18.5q-37 12 -73 16.5t-70 -17.5z" />
    <glyph glyph-name="oacute" unicode="&#xf3;" 
d="M323 215q-16 -41 -45 -62.5t-56 -23.5q-5 -13 -11 -24t-11 -19q-25 -35 -57 -45.5t-62 -0.5t-52 39t-28 74q-4 31 -2.5 63t8 62t17.5 57t26 47q28 37 64.5 50t69 5t55.5 -36.5t23 -74.5q0 -35 -8 -81t-22 -88q14 1 32.5 17.5t39.5 56.5zM125 328q-6 -15 -10.5 -37
t-8.5 -46t-6 -47t-3 -39q-1 -32 7 -49.5t20 -23t27 0.5t27 22q4 5 8 11t7 13q-16 8 -23.5 25.5t-0.5 47.5q1 5 7 8.5t13 3.5t12.5 -3t5.5 -10q-3 -19 2 -32q13 39 18.5 81.5t5.5 69.5q0 33 -11.5 51.5t-28 20t-35.5 -15t-33 -52.5zM176 692q12 12 27 13.5t28.5 -1.5
t21.5 -9.5t5 -11.5l-114 -139q-3 -4 -8 -3.5t-9.5 3.5t-6.5 8.5t0 10.5z" />
    <glyph glyph-name="ograve" unicode="&#xf2;" 
d="M323 215q-16 -41 -45 -62.5t-56 -23.5q-5 -13 -11 -24t-11 -19q-25 -35 -57 -45.5t-62 -0.5t-52 39t-28 74q-4 31 -2.5 63t8 62t17.5 57t26 47q28 37 64.5 50t69 5t55.5 -36.5t23 -74.5q0 -35 -8 -81t-22 -88q14 1 32.5 17.5t39.5 56.5zM125 328q-6 -15 -10.5 -37
t-8.5 -46t-6 -47t-3 -39q-1 -32 7 -49.5t20 -23t27 0.5t27 22q4 5 8 11t7 13q-16 8 -23.5 25.5t-0.5 47.5q1 5 7 8.5t13 3.5t12.5 -3t5.5 -10q-3 -19 2 -32q13 39 18.5 81.5t5.5 69.5q0 33 -11.5 51.5t-28 20t-35.5 -15t-33 -52.5zM171 547q2 -5 0 -10.5t-6.5 -8.5
t-9.5 -3.5t-8 3.5l-114 139q-3 5 5 11.5t21.5 9.5t28.5 1.5t27 -13.5z" />
    <glyph glyph-name="ocircumflex" unicode="&#xf4;" 
d="M323 215q-16 -41 -45 -62.5t-56 -23.5q-5 -13 -11 -24t-11 -19q-25 -35 -57 -45.5t-62 -0.5t-52 39t-28 74q-4 31 -2.5 63t8 62t17.5 57t26 47q28 37 64.5 50t69 5t55.5 -36.5t23 -74.5q0 -35 -8 -81t-22 -88q14 1 32.5 17.5t39.5 56.5zM125 328q-6 -15 -10.5 -37
t-8.5 -46t-6 -47t-3 -39q-1 -32 7 -49.5t20 -23t27 0.5t27 22q4 5 8 11t7 13q-16 8 -23.5 25.5t-0.5 47.5q1 5 7 8.5t13 3.5t12.5 -3t5.5 -10q-3 -19 2 -32q13 39 18.5 81.5t5.5 69.5q0 33 -11.5 51.5t-28 20t-35.5 -15t-33 -52.5zM160 641l-40 -94q-12 -12 -27 -13.5
t-28.5 1.5t-21.5 9.5t-5 11.5l107 131q8 11 15 11t16 -11l107 -131q3 -5 -5 -11.5t-21.5 -9.5t-28.5 -1.5t-27 13.5z" />
    <glyph glyph-name="otilde" unicode="&#xf5;" 
d="M323 215q-16 -41 -45 -62.5t-56 -23.5q-5 -13 -11 -24t-11 -19q-25 -35 -57 -45.5t-62 -0.5t-52 39t-28 74q-4 31 -2.5 63t8 62t17.5 57t26 47q28 37 64.5 50t69 5t55.5 -36.5t23 -74.5q0 -35 -8 -81t-22 -88q14 1 32.5 17.5t39.5 56.5zM125 328q-6 -15 -10.5 -37
t-8.5 -46t-6 -47t-3 -39q-1 -32 7 -49.5t20 -23t27 0.5t27 22q4 5 8 11t7 13q-16 8 -23.5 25.5t-0.5 47.5q1 5 7 8.5t13 3.5t12.5 -3t5.5 -10q-3 -19 2 -32q13 39 18.5 81.5t5.5 69.5q0 33 -11.5 51.5t-28 20t-35.5 -15t-33 -52.5zM-33 559q14 19 30 35.5t40 25.5t61 7
t93 -20q38 -14 74 -16.5t68 17.5q-15 -25 -34 -41t-45 -22.5t-61.5 -3t-82.5 18.5q-37 12 -73 16.5t-70 -17.5z" />
    <glyph glyph-name="odieresis" unicode="&#xf6;" 
d="M323 215q-16 -41 -45 -62.5t-56 -23.5q-5 -13 -11 -24t-11 -19q-25 -35 -57 -45.5t-62 -0.5t-52 39t-28 74q-4 31 -2.5 63t8 62t17.5 57t26 47q28 37 64.5 50t69 5t55.5 -36.5t23 -74.5q0 -35 -8 -81t-22 -88q14 1 32.5 17.5t39.5 56.5zM125 328q-6 -15 -10.5 -37
t-8.5 -46t-6 -47t-3 -39q-1 -32 7 -49.5t20 -23t27 0.5t27 22q4 5 8 11t7 13q-16 8 -23.5 25.5t-0.5 47.5q1 5 7 8.5t13 3.5t12.5 -3t5.5 -10q-3 -19 2 -32q13 39 18.5 81.5t5.5 69.5q0 33 -11.5 51.5t-28 20t-35.5 -15t-33 -52.5zM87 645q19 0 32 -13.5t13 -35.5
q0 -23 -13.5 -36t-31.5 -13q-20 0 -34.5 13t-14.5 36q0 22 14.5 35.5t34.5 13.5zM201 645q19 0 32 -13.5t13 -35.5q0 -23 -13.5 -36t-31.5 -13q-20 0 -34.5 13t-14.5 36q0 22 14.5 35.5t34.5 13.5z" />
    <glyph glyph-name="oslash" unicode="&#xf8;" 
d="M49 -109q-2 -4 -8.5 -5t-13 1t-11 6t-2.5 10l49 145q-23 14 -40 40.5t-22 64.5q-4 31 -2.5 63t8 62t17.5 57t26 47q30 41 70.5 53t74.5 -2l49 141q3 7 10 8t14 -1t11.5 -7t2.5 -11l-53 -152q15 -15 23.5 -36t9.5 -49q0 -35 -8 -81t-22 -88q14 1 32.5 17.5t39.5 56.5
l19 -16q-16 -41 -45 -62.5t-56 -23.5q-5 -13 -11 -24t-11 -19q-22 -29 -48.5 -41.5t-52.5 -8.5zM178 109q4 5 8 11t7 13q-16 8 -23.5 25.5t-0.5 47.5q1 5 7 8.5t13 3.5t12.5 -3t5.5 -10q-3 -19 2 -32q13 39 18.5 81.5t5.5 69.5q0 37 -14 56l-101 -291q13 -9 29.5 -3.5
t30.5 23.5zM125 328q-6 -15 -10.5 -37t-8.5 -46t-6 -47t-3 -39v-14l85 250q-15 -4 -30 -20.5t-27 -46.5z" />
    <glyph glyph-name="ugrave" unicode="&#xf9;" horiz-adv-x="428" 
d="M446 200q-17 -36 -32.5 -69.5t-30.5 -56.5q-21 -32 -50.5 -45.5t-57 -7.5t-48.5 32t-24 73q-2 14 -1 31.5t3 37.5q-13 -31 -23.5 -57t-16.5 -38q-20 -39 -47 -58t-52.5 -17.5t-45 22.5t-24.5 62q-5 35 -0.5 84t11 95.5t13.5 83t9 46.5q16 9 33 4t30 -20.5t20 -38t2 -47.5
q-17 -77 -25.5 -126.5t-8.5 -78.5q1 -21 8 -30.5t16.5 -8.5t21 12t21.5 31q4 10 12.5 30t18 44t20.5 50t20 47q5 28 11 54.5t11 47.5t8.5 34.5t4.5 15.5q16 9 33 3t30 -22t19.5 -39.5t0.5 -48.5q0 -3 -4.5 -21.5t-10.5 -47t-12 -63t-10 -69.5q-3 -20 2.5 -37.5t16 -24t25 2
t31.5 38.5q7 13 13.5 24.5t12.5 23t13 24t15 29.5zM232 555q2 -5 0 -10.5t-6.5 -8.5t-9.5 -3.5t-8 3.5l-114 139q-3 5 5 11.5t21.5 9.5t28.5 1.5t27 -13.5z" />
    <glyph glyph-name="uacute" unicode="&#xfa;" horiz-adv-x="428" 
d="M446 200q-17 -36 -32.5 -69.5t-30.5 -56.5q-21 -32 -50.5 -45.5t-57 -7.5t-48.5 32t-24 73q-2 14 -1 31.5t3 37.5q-13 -31 -23.5 -57t-16.5 -38q-20 -39 -47 -58t-52.5 -17.5t-45 22.5t-24.5 62q-5 35 -0.5 84t11 95.5t13.5 83t9 46.5q16 9 33 4t30 -20.5t20 -38t2 -47.5
q-17 -77 -25.5 -126.5t-8.5 -78.5q1 -21 8 -30.5t16.5 -8.5t21 12t21.5 31q4 10 12.5 30t18 44t20.5 50t20 47q5 28 11 54.5t11 47.5t8.5 34.5t4.5 15.5q16 9 33 3t30 -22t19.5 -39.5t0.5 -48.5q0 -3 -4.5 -21.5t-10.5 -47t-12 -63t-10 -69.5q-3 -20 2.5 -37.5t16 -24t25 2
t31.5 38.5q7 13 13.5 24.5t12.5 23t13 24t15 29.5zM207 686q12 12 27 13.5t28.5 -1.5t21.5 -9.5t5 -11.5l-114 -139q-3 -4 -8 -3.5t-9.5 3.5t-6.5 8.5t0 10.5z" />
    <glyph glyph-name="ucircumflex" unicode="&#xfb;" horiz-adv-x="428" 
d="M446 200q-17 -36 -32.5 -69.5t-30.5 -56.5q-21 -32 -50.5 -45.5t-57 -7.5t-48.5 32t-24 73q-2 14 -1 31.5t3 37.5q-13 -31 -23.5 -57t-16.5 -38q-20 -39 -47 -58t-52.5 -17.5t-45 22.5t-24.5 62q-5 35 -0.5 84t11 95.5t13.5 83t9 46.5q16 9 33 4t30 -20.5t20 -38t2 -47.5
q-17 -77 -25.5 -126.5t-8.5 -78.5q1 -21 8 -30.5t16.5 -8.5t21 12t21.5 31q4 10 12.5 30t18 44t20.5 50t20 47q5 28 11 54.5t11 47.5t8.5 34.5t4.5 15.5q16 9 33 3t30 -22t19.5 -39.5t0.5 -48.5q0 -3 -4.5 -21.5t-10.5 -47t-12 -63t-10 -69.5q-3 -20 2.5 -37.5t16 -24t25 2
t31.5 38.5q7 13 13.5 24.5t12.5 23t13 24t15 29.5zM201 646l-40 -94q-12 -12 -27 -13.5t-28.5 1.5t-21.5 9.5t-5 11.5l107 131q8 11 15 11t16 -11l107 -131q3 -5 -5 -11.5t-21.5 -9.5t-28.5 -1.5t-27 13.5z" />
    <glyph glyph-name="udieresis" unicode="&#xfc;" horiz-adv-x="428" 
d="M446 200q-17 -36 -32.5 -69.5t-30.5 -56.5q-21 -32 -50.5 -45.5t-57 -7.5t-48.5 32t-24 73q-2 14 -1 31.5t3 37.5q-13 -31 -23.5 -57t-16.5 -38q-20 -39 -47 -58t-52.5 -17.5t-45 22.5t-24.5 62q-5 35 -0.5 84t11 95.5t13.5 83t9 46.5q16 9 33 4t30 -20.5t20 -38t2 -47.5
q-17 -77 -25.5 -126.5t-8.5 -78.5q1 -21 8 -30.5t16.5 -8.5t21 12t21.5 31q4 10 12.5 30t18 44t20.5 50t20 47q5 28 11 54.5t11 47.5t8.5 34.5t4.5 15.5q16 9 33 3t30 -22t19.5 -39.5t0.5 -48.5q0 -3 -4.5 -21.5t-10.5 -47t-12 -63t-10 -69.5q-3 -20 2.5 -37.5t16 -24t25 2
t31.5 38.5q7 13 13.5 24.5t12.5 23t13 24t15 29.5zM148 638q19 0 32 -13.5t13 -35.5q0 -23 -13.5 -36t-31.5 -13q-20 0 -34.5 13t-14.5 36q0 22 14.5 35.5t34.5 13.5zM262 638q19 0 32 -13.5t13 -35.5q0 -23 -13.5 -36t-31.5 -13q-20 0 -34.5 13t-14.5 36q0 22 14.5 35.5
t34.5 13.5z" />
    <glyph glyph-name="yacute" unicode="&#xfd;" horiz-adv-x="402" 
d="M212 58q7 50 12 86.5t8 62.5q-9 -20 -17.5 -41t-17 -39t-15.5 -32t-11 -21q-21 -32 -50.5 -45.5t-57 -7.5t-48.5 32t-24 73q-2 23 1 55t8 65.5t12 67t13 60t10.5 44.5t5.5 20q16 9 33 3t30 -22t19.5 -39.5t0.5 -48.5q0 -3 -4.5 -21.5t-10.5 -47t-12 -63t-10 -69.5
q-3 -20 2 -37.5t15.5 -24t25 2t31.5 38.5q7 12 17 33.5t21 46.5t22.5 50t20.5 44q2 18 3 29.5t2.5 24.5t3.5 31t6 49q16 9 33 4.5t30.5 -19.5t20.5 -39t2 -53l-23 -170q12 11 17.5 15.5t11.5 10t17.5 14.5t35.5 30l14 -20q-27 -23 -41 -35t-23 -20t-17 -15t-22 -20
q-6 -48 -12.5 -102t-17 -106.5t-25.5 -100.5t-39 -84q-26 -39 -59.5 -55t-63.5 -10.5t-51 31.5t-22 71q-1 35 9.5 70t28.5 64q15 24 30.5 45t34 42t39.5 43.5t47 49.5zM204 13q-22 -26 -40 -46.5t-33 -38.5t-28.5 -36t-25.5 -39q-14 -26 -21.5 -56.5t-5.5 -53.5
q3 -32 14 -46.5t25 -14.5t28.5 13.5t25.5 38.5q8 19 18.5 58.5t19.5 82.5t15.5 81.5t7.5 56.5zM199 697q12 12 27 13.5t28.5 -1.5t21.5 -9.5t5 -11.5l-114 -139q-3 -4 -8 -3.5t-9.5 3.5t-6.5 8.5t0 10.5z" />
    <glyph glyph-name="ydieresis" unicode="&#xff;" horiz-adv-x="402" 
d="M212 58q7 50 12 86.5t8 62.5q-9 -20 -17.5 -41t-17 -39t-15.5 -32t-11 -21q-21 -32 -50.5 -45.5t-57 -7.5t-48.5 32t-24 73q-2 23 1 55t8 65.5t12 67t13 60t10.5 44.5t5.5 20q16 9 33 3t30 -22t19.5 -39.5t0.5 -48.5q0 -3 -4.5 -21.5t-10.5 -47t-12 -63t-10 -69.5
q-3 -20 2 -37.5t15.5 -24t25 2t31.5 38.5q7 12 17 33.5t21 46.5t22.5 50t20.5 44q2 18 3 29.5t2.5 24.5t3.5 31t6 49q16 9 33 4.5t30.5 -19.5t20.5 -39t2 -53l-23 -170q12 11 17.5 15.5t11.5 10t17.5 14.5t35.5 30l14 -20q-27 -23 -41 -35t-23 -20t-17 -15t-22 -20
q-6 -48 -12.5 -102t-17 -106.5t-25.5 -100.5t-39 -84q-26 -39 -59.5 -55t-63.5 -10.5t-51 31.5t-22 71q-1 35 9.5 70t28.5 64q15 24 30.5 45t34 42t39.5 43.5t47 49.5zM204 13q-22 -26 -40 -46.5t-33 -38.5t-28.5 -36t-25.5 -39q-14 -26 -21.5 -56.5t-5.5 -53.5
q3 -32 14 -46.5t25 -14.5t28.5 13.5t25.5 38.5q8 19 18.5 58.5t19.5 82.5t15.5 81.5t7.5 56.5zM167 645q19 0 32 -13.5t13 -35.5q0 -23 -13.5 -36t-31.5 -13q-20 0 -34.5 13t-14.5 36q0 22 14.5 35.5t34.5 13.5zM281 645q19 0 32 -13.5t13 -35.5q0 -23 -13.5 -36t-31.5 -13
q-20 0 -34.5 13t-14.5 36q0 22 14.5 35.5t34.5 13.5z" />
    <glyph glyph-name="b.001" unicode="&#xe034;" horiz-adv-x="368" 
d="M70 2q-16 -9 -33.5 -4.5t-31 19.5t-20 39t-1.5 53q17 132 32 238.5t30.5 188.5t33 141t41.5 95q19 29 50.5 45.5t66 19.5t67 -7.5t55.5 -36.5q24 -27 25.5 -61t-11 -65.5t-34 -56.5t-42.5 -35q81 -6 186.5 -6t221 4.5t233 14t223.5 24.5q72 10 136.5 26.5t117.5 39.5
t93.5 52t63.5 64q8 12 13 29t6.5 34.5t-0.5 34t-8 28.5q0 1 1 2q2 2 3 2q33 -5 60.5 -24t45.5 -46.5t23.5 -61t-5.5 -67.5q-15 -47 -53 -81.5t-91 -59.5t-118 -41t-135 -25.5t-140.5 -14t-135.5 -5.5q-112 -2 -228 1.5t-224.5 12t-203 20.5t-163.5 26q-12 5 -8.5 13.5
t9.5 9.5q10 1 26 10.5t24 20.5q23 32 34.5 72t4.5 75q-8 36 -24.5 46t-35.5 4t-36 -24.5t-26 -39.5q-13 -30 -24.5 -78.5t-21.5 -107.5t-19 -125.5t-17 -132.5q9 20 20 39.5t25 38.5q20 26 43.5 44t49.5 20q35 2 54.5 -20.5t28.5 -55t9.5 -68t-3.5 -59.5q-6 -35 -19.5 -68.5
t-33.5 -59.5q-29 -38 -72 -53t-84 4q-12 6 -23 14.5t-19 20.5q-3 -29 -6 -53.5t-6 -42.5zM134 101q26 3 41.5 23.5t23.5 40.5q9 18 15 42.5t10 51t5.5 51.5t0.5 44q-2 35 -21.5 32.5t-42.5 -33.5q-14 -20 -31.5 -51t-36.5 -73l-12 -102q20 -29 48 -26z" />
    <glyph glyph-name="d.001" unicode="&#xe035;" horiz-adv-x="435" 
d="M307 118q-5 -33 0 -50.5t15 -20.5t23.5 8t26.5 34q15 27 30.5 57.5t32.5 63.5l18 -10q-17 -36 -33 -69.5t-30 -56.5q-30 -50 -65 -65t-61.5 2.5t-39.5 67t0 129.5q-8 -18 -17.5 -36.5t-20.5 -35.5q-14 -21 -31 -37t-36 -23t-40.5 -3t-45.5 23q-21 25 -29.5 61.5
t-6.5 76.5t14.5 78t32.5 66q27 38 69 53t84 -4q16 -8 29.5 -20t23.5 -29q7 48 14.5 101.5t18.5 106t27 100.5t41 87q19 29 50.5 45.5t66 19.5t67 -7.5t55.5 -36.5q24 -27 25.5 -61t-11 -65.5t-34 -56.5t-42.5 -35q81 -6 186.5 -6t221 4.5t233 14t223.5 24.5
q72 10 136.5 26.5t117.5 39.5t93.5 52t63.5 64q8 12 13 29t6.5 34.5t-0.5 34t-8 28.5q0 1 1 2q2 2 3 2q33 -5 60.5 -24t45.5 -46.5t23.5 -61t-5.5 -67.5q-15 -47 -53 -81.5t-91 -59.5t-118 -41t-135 -25.5t-140.5 -14t-135.5 -5.5q-112 -2 -228 1.5t-224.5 12t-203 20.5
t-163.5 26q-12 5 -8.5 13.5t9.5 9.5q10 1 26 10.5t24 20.5q23 32 34.5 72t4.5 75q-8 36 -24.5 46t-35.5 4t-36 -24.5t-26 -39.5q-9 -13 -20 -59t-22.5 -108.5t-22.5 -134t-20.5 -137t-16 -116.5t-9.5 -73zM246 350q-12 23 -27 32t-30 7q-26 -3 -40.5 -23.5t-20.5 -40.5
q-15 -36 -20.5 -81.5t-0.5 -83.5q4 -37 23.5 -33.5t40.5 34.5q14 23 31.5 58t36.5 86z" />
    <glyph glyph-name="f.001" unicode="&#xe036;" horiz-adv-x="248" 
d="M-1361 551q2 0 3 -1t1 -2q-3 -13 -1.5 -29.5t7.5 -33.5t14.5 -32t19.5 -25q31 -28 77 -47t103 -29t123.5 -11.5t138.5 5.5q81 7 168 20.5t173 30.5t169.5 36t158.5 39t138.5 39t110.5 35q16 9 34.5 3t33 -22t22.5 -39.5t2 -48.5l-60 -350q25 19 53.5 38.5t53 36.5t43 29
t23.5 17l13 -23q-6 -4 -27.5 -18.5t-49.5 -34.5t-58 -41.5t-53 -38.5q9 -18 17.5 -39t16 -42.5t12.5 -41.5t7 -35q2 -23 -7 -42.5t-23.5 -32.5t-33.5 -18.5t-37 -1t-33.5 20t-23.5 44.5q-8 26 -8.5 62t7.5 82q31 196 47.5 329t23.5 182q-64 -30 -150.5 -65t-187 -70
t-210.5 -67t-219 -56q-63 -14 -133 -26t-140 -18.5t-137 -5.5t-124.5 12.5t-102.5 36.5t-70 67q-18 30 -20.5 64t8.5 65t33.5 56t53.5 37zM49 -86q-5 -32 2.5 -47.5t18.5 -17t20.5 10t8.5 34.5q-4 25 -15 59.5t-21 59.5v-3q-3 -20 -7.5 -48t-6.5 -48z" />
    <glyph glyph-name="g.001" unicode="&#xe037;" horiz-adv-x="400" 
d="M-1259 -445q-33 4 -60.5 23t-45.5 47t-23.5 61.5t5.5 67.5q15 46 53 81t91 60t118 41t135 25.5t140.5 14t135.5 5.5q112 2 228 -1.5t224.5 -12t203 -20.5t163.5 -26q12 -5 8.5 -13.5t-9.5 -9.5q-10 -1 -26 -10.5t-24 -20.5q-23 -32 -34.5 -72t-4.5 -75q8 -36 24.5 -46
t35.5 -4t36 24.5t26 39.5q25 58 39 122.5t22.5 127.5t12.5 121.5t10 106.5q-8 -20 -17.5 -39.5t-21.5 -36.5q-14 -21 -31 -37t-36 -23t-40.5 -3t-45.5 23q-21 25 -29.5 61.5t-6.5 76.5t14.5 78t32.5 66q27 38 69 53t84 -4q14 -8 27 -19t23 -26q3 21 5 33.5t3 15.5
q16 9 33 4.5t30.5 -19.5t20.5 -39t2 -53l-30 -224q-6 -48 -12.5 -102t-17 -106.5t-25.5 -100.5t-39 -84q-19 -29 -52 -45.5t-69 -19.5t-70.5 7.5t-56.5 36.5q-24 27 -25.5 61t11 65.5t34 56.5t42.5 35q-81 6 -186.5 6t-221 -4.5t-233 -14t-223.5 -24.5q-72 -10 -136.5 -26.5
t-117.5 -39.5t-93.5 -52.5t-63.5 -63.5q-8 -12 -13 -29t-6.5 -34.5t0.5 -34t8 -28.5q0 -1 -1 -2q-2 -2 -3 -2zM189 389q-26 -3 -40.5 -23.5t-20.5 -40.5q-15 -36 -20.5 -81.5t-0.5 -83.5q4 -37 23.5 -33.5t40.5 34.5q14 22 30.5 56t35.5 82q2 15 3.5 29t3.5 26
q-12 21 -26.5 29t-28.5 6z" />
    <glyph glyph-name="h.001" unicode="&#xe038;" horiz-adv-x="404" 
d="M70 2q-16 -9 -33.5 -4.5t-31 19.5t-20 39t-1.5 53q17 132 32 238.5t30.5 188.5t33 141t41.5 95q19 29 50.5 45.5t66 19.5t67 -7.5t55.5 -36.5q24 -27 25.5 -61t-11 -65.5t-34 -56.5t-42.5 -35q81 -6 186.5 -6t221 4.5t233 14t223.5 24.5q72 10 136.5 26.5t117.5 39.5
t93.5 52t63.5 64q8 12 13 29t6.5 34.5t-0.5 34t-8 28.5q0 1 1 2q2 2 3 2q33 -5 60.5 -24t45.5 -46.5t23.5 -61t-5.5 -67.5q-15 -47 -53 -81.5t-91 -59.5t-118 -41t-135 -25.5t-140.5 -14t-135.5 -5.5q-112 -2 -228 1.5t-224.5 12t-203 20.5t-163.5 26q-12 5 -8.5 13.5
t9.5 9.5q10 1 26 10.5t24 20.5q23 32 34.5 72t4.5 75q-8 36 -24.5 46t-35.5 4t-36 -24.5t-26 -39.5q-16 -36 -29.5 -98.5t-25 -138t-21.5 -157.5t-18 -155q21 41 42 78.5t35 60.5q26 40 46 61t46 11q23 -9 33.5 -28t12.5 -42t-1 -46t-7 -40q-5 -20 -9.5 -42.5t-8.5 -44.5
t-6.5 -42.5t-2.5 -36.5q1 -21 7 -30t16 -8t21.5 11.5t22.5 30.5q15 27 30.5 57.5t32.5 63.5l18 -10q-17 -36 -33 -69.5t-30 -56.5q-23 -38 -49.5 -56.5t-50.5 -17.5t-41.5 21.5t-22.5 61.5q-4 30 -2 63t7 66t12 64t13 58q8 38 -3.5 30t-34.5 -46q-4 -6 -14.5 -25t-24.5 -45
t-30 -56t-31 -58q-5 -41 -9 -74.5t-8 -57.5z" />
    <glyph glyph-name="j.001" unicode="&#xe039;" horiz-adv-x="167" 
d="M108 310q-18 -135 -32 -233.5t-27.5 -170t-28.5 -119t-36 -80.5q-19 -29 -52 -45.5t-69 -19.5t-70.5 7.5t-56.5 36.5q-24 27 -25.5 61t11 65.5t34 56.5t42.5 35q-81 6 -186.5 6t-221 -4.5t-233 -14t-223.5 -24.5q-72 -10 -136.5 -26.5t-117.5 -39.5t-93.5 -52.5
t-63.5 -63.5q-8 -12 -13 -29t-6.5 -34.5t0.5 -34t8 -28.5q0 -1 -1 -2q-2 -2 -3 -2q-33 4 -60.5 23t-45.5 47t-23.5 61.5t5.5 67.5q15 46 53 81t91 60t118 41t135 25.5t140.5 14t135.5 5.5q112 2 228 -1.5t224.5 -12t203 -20.5t163.5 -26q12 -5 8.5 -13.5t-9.5 -9.5
q-10 -1 -26 -10.5t-24 -20.5q-23 -32 -34.5 -72t-4.5 -75q8 -36 24.5 -46t35.5 -4t36 24.5t26 39.5q16 38 30 98t26 130t21.5 142.5t16.5 136t12 110.5t8 66q16 9 33 4.5t30.5 -19.5t20.5 -39t2 -53zM115 546q16 -16 16 -40.5t-15 -41.5q-16 -16 -40 -17.5t-42 14.5
q-9 9 -13 20t-4 23t4 23t12 19q17 17 41 17t41 -17z" />
    <glyph glyph-name="k.001" unicode="&#xe03a;" horiz-adv-x="371" 
d="M391 196q-26 -48 -55 -81.5t-57 -54t-52.5 -29t-42.5 -7.5q-32 2 -57 24t-44 54q-3 -30 -6.5 -55.5t-6.5 -44.5q-16 -9 -33.5 -4.5t-31 19.5t-20 39t-1.5 53q17 132 32 238.5t30.5 188.5t33 141t41.5 95q19 29 50.5 45.5t66 19.5t67 -7.5t55.5 -36.5q24 -27 25.5 -61
t-11 -65.5t-34 -56.5t-42.5 -35q81 -6 186.5 -6t221 4.5t233 14t223.5 24.5q72 10 136.5 26.5t117.5 39.5t93.5 52t63.5 64q8 12 13 29t6.5 34.5t-0.5 34t-8 28.5q0 1 1 2q2 2 3 2q33 -5 60.5 -24t45.5 -46.5t23.5 -61t-5.5 -67.5q-15 -47 -53 -81.5t-91 -59.5t-118 -41
t-135 -25.5t-140.5 -14t-135.5 -5.5q-112 -2 -228 1.5t-224.5 12t-203 20.5t-163.5 26q-12 5 -8.5 13.5t9.5 9.5q10 1 26 10.5t24 20.5q23 32 34.5 72t4.5 75q-8 36 -24.5 46t-35.5 4t-36 -24.5t-26 -39.5q-12 -27 -22.5 -71t-20.5 -98t-18.5 -114.5t-15.5 -121.5
q22 25 47 47t51 32t51.5 4.5t48.5 -34.5q3 -3 1.5 -7t-5 -7t-7.5 -4t-5 2q-16 24 -38.5 19t-48 -27.5t-51.5 -56t-48 -66.5q8 -34 20 -67t28 -58t36.5 -37.5t47 -5t59.5 39.5t73 96z" />
    <glyph glyph-name="l.001" unicode="&#xe03b;" horiz-adv-x="209" 
d="M95 214q-3 -20 -6 -48t-5 -48q-5 -33 -0.5 -50.5t14 -20.5t22.5 8t26 34q15 27 30.5 57.5t32.5 63.5l18 -10q-17 -36 -33 -69.5t-30 -56.5q-26 -42 -53.5 -55.5t-51.5 -7.5q-34 9 -53.5 58.5t-7.5 145.5q5 40 11 89t14 100.5t17.5 104t22.5 101t28.5 90.5t35.5 72
q19 29 50.5 45.5t66 19.5t67 -7.5t55.5 -36.5q24 -27 25.5 -61t-11 -65.5t-34 -56.5t-42.5 -35q81 -6 186.5 -6t221 4.5t233 14t223.5 24.5q72 10 136.5 26.5t117.5 39.5t93.5 52t63.5 64q8 12 13 29t6.5 34.5t-0.5 34t-8 28.5q0 1 1 2q2 2 3 2q33 -5 60.5 -24t45.5 -46.5
t23.5 -61t-5.5 -67.5q-15 -47 -53 -81.5t-91 -59.5t-118 -41t-135 -25.5t-140.5 -14t-135.5 -5.5q-112 -2 -228 1.5t-224.5 12t-203 20.5t-163.5 26q-12 5 -8.5 13.5t9.5 9.5q10 1 26 10.5t24 20.5q23 32 34.5 72t4.5 75q-8 36 -24.5 46t-35.5 4t-36 -24.5t-26 -39.5
q-11 -25 -21.5 -66.5t-22 -105t-25 -152t-30.5 -207.5z" />
    <glyph glyph-name="p.001" unicode="&#xe03c;" horiz-adv-x="379" 
d="M26 423q16 9 33 4.5t30.5 -19.5t20.5 -39t2 -53q-2 -8 -2.5 -16t-1.5 -16q9 20 20 40t24 37q15 21 32.5 37t37 23t40.5 3t44 -23q21 -25 28 -61.5t3 -76.5t-18 -78t-35 -66q-28 -38 -70 -53t-84 4q-14 7 -25.5 16t-20.5 23q-24 -173 -48 -286t-61 -170
q-19 -29 -50.5 -45.5t-66 -19.5t-67.5 7.5t-55 36.5q-24 27 -25.5 61t11 65.5t34 56.5t42.5 35q-81 6 -186.5 6t-221 -4.5t-233 -14t-223.5 -24.5q-72 -10 -136.5 -26.5t-117.5 -39.5t-93.5 -52.5t-63.5 -63.5q-8 -12 -13 -29t-6.5 -34.5t0.5 -34t8 -28.5q0 -1 -1 -2
q-2 -2 -3 -2q-33 4 -60.5 23t-45.5 47t-23.5 61.5t5.5 67.5q15 46 53 81t91 60t118 41t135 25.5t140.5 14t135.5 5.5q112 2 228 -1.5t224.5 -12t203 -20.5t163.5 -26q12 -5 8.5 -13.5t-9.5 -9.5q-10 -1 -26 -10.5t-24 -20.5q-23 -32 -34.5 -72t-4.5 -75q8 -36 24.5 -46
t35.5 -4t36 24.5t26 39.5q15 33 27.5 91t24 128t21 146.5t17.5 148t15 132t13 97.5zM139 108q26 3 41 23.5t23 40.5q16 36 23 81.5t4 83.5q-1 18 -7 26t-15 7t-20 -10t-22 -24q-14 -20 -31.5 -51.5t-36.5 -73.5l-9 -70q21 -38 50 -33z" />
    <glyph glyph-name="q.001" unicode="&#xe03d;" horiz-adv-x="424" 
d="M186 136q-14 -21 -31 -37t-36 -23t-40.5 -3t-45.5 23q-21 25 -29.5 61.5t-6.5 76.5t14.5 78t32.5 66q27 38 69 53t84 -4q17 -9 32 -22.5t25 -34.5q4 29 19 48.5t33.5 28.5t37 7t30.5 -16q-2 -9 -8.5 -35t-15 -64t-18.5 -85.5t-20.5 -98.5t-20.5 -103t-18 -99
q72 9 164.5 14t196 6t213 -2t214.5 -12q65 -5 135.5 -13.5t139.5 -22.5t133 -34t115.5 -48.5t87 -65.5t48.5 -84q9 -34 1.5 -67t-27 -60t-48.5 -44t-62 -20q-1 0 -3 2q-1 1 -1 2q7 12 10 28.5t2.5 34.5t-4.5 35t-11 29q-21 36 -59.5 67.5t-90 57.5t-115 47t-134.5 35
q-70 14 -147 26t-156 22t-158 18t-153.5 13t-141 8t-120.5 2q21 -11 43 -37.5t35.5 -59t12.5 -66t-26 -59.5q-26 -26 -55.5 -34t-56.5 0.5t-47.5 31t-28.5 56.5q-11 45 -10 103t9 119t20 118t23 101q-15 -35 -35 -64zM189 389q-19 -2 -33 -16.5t-23.5 -36t-15.5 -47.5
t-8.5 -50.5t-3 -45.5t1.5 -33q4 -37 23.5 -33.5t40.5 34.5q14 22 32.5 58.5t37.5 84.5l6 32q-24 58 -58 53zM260 -239q2 -23 12.5 -39.5t24.5 -18.5q13 12 21 39q4 17 3 41t-7 48.5t-18 46t-28 34.5q-5 -45 -7.5 -87t-0.5 -64z" />
    <glyph glyph-name="y.001" unicode="&#xe03e;" horiz-adv-x="402" 
d="M260 431q16 9 33 4.5t30.5 -19.5t20.5 -39t2 -53q-17 -132 -31 -231.5t-29 -173t-32 -125t-41 -87.5q-19 -29 -50.5 -45.5t-66 -19.5t-67.5 7.5t-55 36.5q-24 27 -25.5 61t11 65.5t34 56.5t42.5 35q-81 6 -186.5 6t-221 -4.5t-233 -14t-223.5 -24.5q-72 -10 -136.5 -26.5
t-117.5 -39.5t-93.5 -52.5t-63.5 -63.5q-8 -12 -13 -29t-6.5 -34.5t0.5 -34t8 -28.5q0 -1 -1 -2q-2 -2 -3 -2q-33 4 -60.5 23t-45.5 47t-23.5 61.5t5.5 67.5q15 46 53 81t91 60t118 41t135 25.5t140.5 14t135.5 5.5q112 2 228 -1.5t224.5 -12t203 -20.5t163.5 -26
q12 -5 8.5 -13.5t-9.5 -9.5q-10 -1 -26 -10.5t-24 -20.5q-23 -32 -34.5 -72t-4.5 -75q8 -36 24.5 -46t35.5 -4t36 24.5t26 39.5q15 33 27 86.5t22.5 117t19.5 133t17 135.5q-9 -20 -17.5 -41t-17 -39t-15.5 -31.5t-11 -20.5q-21 -32 -50.5 -45.5t-57 -7.5t-48.5 32t-24 73
q-2 23 1 55t8 65.5t12 67t13 60t10.5 44.5t5.5 20q16 9 33 3t30 -22t19.5 -39.5t0.5 -48.5q0 -3 -4.5 -21.5t-10.5 -47t-12 -63t-10 -69.5q-3 -20 2 -37.5t15.5 -24t25 2t31.5 38.5q6 12 16 33t21 45.5l22 49t20 43.5q5 45 10 84t10 67z" />
    <glyph glyph-name="z.001" unicode="&#xe03f;" horiz-adv-x="352" 
d="M118 -318q-22 -20 -51.5 -30.5t-59.5 -10.5t-58 11t-48 34q-24 27 -23.5 61.5t16 67t40 57t48.5 32.5q-54 4 -121 5.5t-141.5 0.5t-154.5 -4t-160 -8.5t-157.5 -13t-148.5 -17.5q-72 -10 -136.5 -26.5t-117.5 -39.5t-93.5 -52.5t-63.5 -63.5q-8 -12 -13 -29t-6.5 -34.5
t0.5 -34t8 -28.5q0 -1 -1 -2q-2 -2 -3 -2q-33 4 -60.5 23t-45.5 47t-23.5 61.5t5.5 67.5q15 46 53 81t91 60t118 41t135 25.5t140.5 14t135.5 5.5q112 2 228 -1.5t224.5 -12t203 -20.5t163.5 -26q12 -5 8.5 -13.5t-9.5 -9.5q-10 -1 -26 -10.5t-24 -20.5q-23 -32 -34.5 -72
t-4.5 -75q10 -33 24 -44.5t28.5 -8t29 17.5t26.5 31q24 34 41 76t29 86.5t19.5 89.5t11.5 85q1 40 -9 66t-26 38t-35 10.5t-37 -16.5q-3 -5 -9 -6.5t-11.5 -0.5t-8.5 5.5t2 12.5q25 42 38.5 67t26 47t30 48.5t49.5 71.5q-44 -19 -78 -20.5t-58.5 8.5t-39 28t-18.5 37t3 36.5
t26 26.5q8 -26 27.5 -41t45 -22t54.5 -7.5t57 2t51.5 6t38.5 5.5l2.5 -5t3.5 -12.5t-1.5 -16t-12.5 -15.5q-39 -33 -63 -56t-43 -44.5t-37.5 -45t-44.5 -57.5q18 12 42 14.5t48.5 -6.5t45 -30.5t30.5 -55.5q10 -48 4.5 -111.5t-23.5 -126.5t-47 -118.5t-65 -86.5z" />
    <glyph glyph-name="Agrave" unicode="&#xc0;" horiz-adv-x="641" 
d="M582 422q8 -17 6 -33.5t-10.5 -30.5t-22.5 -25t-30 -16q-8 -2 -15 -2h-15q-5 -48 -6.5 -95.5t0 -89.5t8 -76.5t18.5 -57t30.5 -31.5t45.5 1q-3 -17 -14 -25.5t-24 -11.5t-26 -1t-20 5q-32 15 -52.5 44t-32 65t-15.5 77t-3.5 80.5t3 75t5.5 61.5q-25 9 -50 19.5t-50 19.5
q-27 -103 -62 -202t-68 -192q-1 -4 -14.5 -1.5t-27 13.5t-22 33t0.5 57q26 77 52 153.5t47 154.5q-29 -2 -56 -17.5t-50 -52.5q-5 1 -6.5 6.5t-1 11.5t2 12t2.5 9q26 44 57.5 62.5t66.5 22.5q13 54 23 107.5t17 109.5q3 27 3 51t-4 44q-5 29 -17 46.5t-34 19.5
q-17 1 -31.5 -7t-26 -21t-20 -30t-13.5 -33q-8 -29 -5 -56.5t20 -47.5q-69 20 -91.5 53t-8.5 71q11 33 32.5 54t47.5 32t54 14t52 -1q34 -6 61 -24t45 -49q15 -27 22 -60.5t3 -70.5l-2 -18l26 54q21 47 43.5 70.5t48.5 20.5q15 -2 28 -20.5t21 -46.5t10 -61t-4 -64
q-7 -37 -14.5 -84.5t-14.5 -100.5q22 0 41.5 5.5t36.5 19.5zM410 672q-16 -33 -31.5 -68t-29.5 -64q-5 -26 -10 -52.5t-12 -52.5q23 -5 46 -11.5t46 -12.5q10 81 21 155.5t20 130.5q4 25 2 35t-6.5 9.5t-11 -9t-13.5 -20t-12.5 -23t-8.5 -17.5zM445 971q2 -5 0 -10.5
t-6.5 -8.5t-9.5 -3.5t-8 3.5l-114 139q-3 5 5 11.5t21.5 9.5t28.5 1.5t27 -13.5z" />
    <glyph glyph-name="Aacute" unicode="&#xc1;" horiz-adv-x="641" 
d="M582 422q8 -17 6 -33.5t-10.5 -30.5t-22.5 -25t-30 -16q-8 -2 -15 -2h-15q-5 -48 -6.5 -95.5t0 -89.5t8 -76.5t18.5 -57t30.5 -31.5t45.5 1q-3 -17 -14 -25.5t-24 -11.5t-26 -1t-20 5q-32 15 -52.5 44t-32 65t-15.5 77t-3.5 80.5t3 75t5.5 61.5q-25 9 -50 19.5t-50 19.5
q-27 -103 -62 -202t-68 -192q-1 -4 -14.5 -1.5t-27 13.5t-22 33t0.5 57q26 77 52 153.5t47 154.5q-29 -2 -56 -17.5t-50 -52.5q-5 1 -6.5 6.5t-1 11.5t2 12t2.5 9q26 44 57.5 62.5t66.5 22.5q13 54 23 107.5t17 109.5q3 27 3 51t-4 44q-5 29 -17 46.5t-34 19.5
q-17 1 -31.5 -7t-26 -21t-20 -30t-13.5 -33q-8 -29 -5 -56.5t20 -47.5q-69 20 -91.5 53t-8.5 71q11 33 32.5 54t47.5 32t54 14t52 -1q34 -6 61 -24t45 -49q15 -27 22 -60.5t3 -70.5l-2 -18l26 54q21 47 43.5 70.5t48.5 20.5q15 -2 28 -20.5t21 -46.5t10 -61t-4 -64
q-7 -37 -14.5 -84.5t-14.5 -100.5q22 0 41.5 5.5t36.5 19.5zM410 672q-16 -33 -31.5 -68t-29.5 -64q-5 -26 -10 -52.5t-12 -52.5q23 -5 46 -11.5t46 -12.5q10 81 21 155.5t20 130.5q4 25 2 35t-6.5 9.5t-11 -9t-13.5 -20t-12.5 -23t-8.5 -17.5zM429 1096q12 12 27 13.5
t28.5 -1.5t21.5 -9.5t5 -11.5l-114 -139q-3 -4 -8 -3.5t-9.5 3.5t-6.5 8.5t0 10.5z" />
    <glyph glyph-name="Ccedilla" unicode="&#xc7;" horiz-adv-x="486" 
d="M494 707q9 -38 -14.5 -71t-94.5 -53q9 10 15.5 25t10 32t4 34.5t-2.5 31.5l-4 16t-8.5 24t-14 21t-20.5 8q-14 -2 -33.5 -19t-42.5 -50q-45 -63 -81 -148t-55.5 -175t-18.5 -176.5t30 -151.5q19 -30 46 -43.5t57.5 -9.5t63.5 24t65 57q26 29 50 62t40 65l21 -13
q-16 -35 -40 -68t-50 -62q-41 -47 -90 -74.5t-97 -33.5q-1 -4 -1 -9q0 -2 -1 -4q29 1 46.5 -20t19.5 -47.5t-13 -50t-49 -26.5q-29 -1 -42.5 9t-18 22.5t-3.5 22.5t2 9q11 -9 29.5 -14t26.5 -5q24 0 31.5 15.5t2 32t-21.5 28t-40 4.5q1 10 1.5 17.5t0.5 13.5q-47 1 -86.5 24
t-62.5 73q-22 46 -28.5 106.5t-0.5 126t24 133.5t44 130.5t59.5 115t70.5 88.5q28 26 63 41t68 16q52 1 91.5 -27t51.5 -77z" />
    <glyph glyph-name="Eacute" unicode="&#xc9;" horiz-adv-x="470" 
d="M351 811q49 -2 86 -29.5t48 -74.5q9 -38 -14.5 -71t-94.5 -53q9 10 15.5 25t10 32t4 34.5t-2.5 31.5q-1 4 -4 15.5t-8.5 23.5t-13.5 21t-19 9q-20 -9 -39 -28t-30 -41q-16 -31 -19 -69t7.5 -76.5t33.5 -73t59 -59.5q7 -8 2 -10t-9 -1q-21 6 -44.5 5.5t-47.5 -8t-46 -21
t-40 -32.5q-20 -21 -36 -51.5t-24.5 -66t-9 -73t11.5 -71.5q18 -54 46.5 -76t61 -21t67.5 21t67 50.5t58.5 66.5t42.5 70l20 -13q-17 -48 -52.5 -92.5t-80.5 -78t-95 -52.5t-96 -16t-84.5 32.5t-59.5 91.5q-14 40 -11.5 84t16.5 85t38 75.5t54 57.5q15 12 38 23t47.5 19.5
t49 13.5t42.5 4q-54 38 -81.5 82.5t-33 88t8 83t40.5 66.5q25 25 57 36t64 11zM371 1100q12 12 27 13.5t28.5 -1.5t21.5 -9.5t5 -11.5l-114 -139q-3 -4 -8 -3.5t-9.5 3.5t-6.5 8.5t0 10.5z" />
    <glyph glyph-name="Acircumflex" unicode="&#xc2;" horiz-adv-x="641" 
d="M582 422q-17 -14 -36.5 -19.5t-41.5 -5.5q7 53 14.5 100.5t14.5 84.5q6 31 4 64t-10 61t-21 46.5t-28 20.5q-26 3 -48.5 -20.5t-43.5 -70.5l-26 -54l2 18q4 37 -3 70.5t-22 60.5q-18 31 -45 49t-61 24q-24 4 -52 1t-54 -14t-47.5 -32t-32.5 -54q-14 -38 8.5 -71t91.5 -53
q-17 20 -20 47.5t5 56.5q5 16 13.5 33t20 30t26 21t31.5 7q22 -2 34 -19.5t17 -46.5q4 -20 4 -44t-3 -51q-7 -56 -17 -109.5t-23 -107.5q-35 -4 -66.5 -22.5t-57.5 -62.5q-1 -3 -2.5 -9t-2 -12t1 -11.5t6.5 -6.5q23 37 50 52.5t56 17.5q-21 -78 -47 -154.5t-52 -153.5
q-9 -35 -0.5 -57t22 -33t27 -13.5t14.5 1.5q33 93 68 192t62 202q25 -9 50 -19.5t50 -19.5q-3 -26 -5.5 -61.5t-3 -75t3.5 -80.5t15.5 -77t32 -65t52.5 -44q7 -3 20 -5t26 1t24 11.5t14 25.5q-27 -10 -45.5 -1t-30.5 31.5t-18.5 57t-8 76.5t0 89.5t6.5 95.5h15t15 2
q16 5 30 16t22.5 25t10.5 30.5t-6 33.5zM410 672q3 6 8.5 17.5t12.5 23t13.5 20t11 9t6.5 -9.5t-2 -35q-9 -56 -20 -130.5t-21 -155.5q-23 6 -46 12.5t-46 11.5q7 26 12 52.5t10 52.5q14 29 29.5 64t31.5 68zM438 1049l-40 -94q-12 -12 -27 -13.5t-28.5 1.5t-21.5 9.5
t-5 11.5l107 131q8 11 15 11t16 -11l107 -131q3 -5 -5 -11.5t-21.5 -9.5t-28.5 -1.5t-27 13.5z" />
    <glyph glyph-name="Atilde" unicode="&#xc3;" horiz-adv-x="641" 
d="M582 422q8 -17 6 -33.5t-10.5 -30.5t-22.5 -25t-30 -16q-8 -2 -15 -2h-15q-5 -48 -6.5 -95.5t0 -89.5t8 -76.5t18.5 -57t30.5 -31.5t45.5 1q-3 -17 -14 -25.5t-24 -11.5t-26 -1t-20 5q-32 15 -52.5 44t-32 65t-15.5 77t-3.5 80.5t3 75t5.5 61.5q-25 9 -50 19.5t-50 19.5
q-27 -103 -62 -202t-68 -192q-1 -4 -14.5 -1.5t-27 13.5t-22 33t0.5 57q26 77 52 153.5t47 154.5q-29 -2 -56 -17.5t-50 -52.5q-5 1 -6.5 6.5t-1 11.5t2 12t2.5 9q26 44 57.5 62.5t66.5 22.5q13 54 23 107.5t17 109.5q3 27 3 51t-4 44q-5 29 -17 46.5t-34 19.5
q-17 1 -31.5 -7t-26 -21t-20 -30t-13.5 -33q-8 -29 -5 -56.5t20 -47.5q-69 20 -91.5 53t-8.5 71q11 33 32.5 54t47.5 32t54 14t52 -1q34 -6 61 -24t45 -49q15 -27 22 -60.5t3 -70.5l-2 -18l26 54q21 47 43.5 70.5t48.5 20.5q15 -2 28 -20.5t21 -46.5t10 -61t-4 -64
q-7 -37 -14.5 -84.5t-14.5 -100.5q22 0 41.5 5.5t36.5 19.5zM410 672q-16 -33 -31.5 -68t-29.5 -64q-5 -26 -10 -52.5t-12 -52.5q23 -5 46 -11.5t46 -12.5q10 81 21 155.5t20 130.5q4 25 2 35t-6.5 9.5t-11 -9t-13.5 -20t-12.5 -23t-8.5 -17.5zM251 967q14 19 30 35.5
t40 25.5t61 7t93 -20q38 -14 74 -16.5t68 17.5q-15 -25 -34 -41t-45 -22.5t-61.5 -3t-82.5 18.5q-37 12 -73 16.5t-70 -17.5z" />
    <glyph glyph-name="Adieresis" unicode="&#xc4;" horiz-adv-x="641" 
d="M582 422q8 -17 6 -33.5t-10.5 -30.5t-22.5 -25t-30 -16q-8 -2 -15 -2h-15q-5 -48 -6.5 -95.5t0 -89.5t8 -76.5t18.5 -57t30.5 -31.5t45.5 1q-3 -17 -14 -25.5t-24 -11.5t-26 -1t-20 5q-32 15 -52.5 44t-32 65t-15.5 77t-3.5 80.5t3 75t5.5 61.5q-25 9 -50 19.5t-50 19.5
q-27 -103 -62 -202t-68 -192q-1 -4 -14.5 -1.5t-27 13.5t-22 33t0.5 57q26 77 52 153.5t47 154.5q-29 -2 -56 -17.5t-50 -52.5q-5 1 -6.5 6.5t-1 11.5t2 12t2.5 9q26 44 57.5 62.5t66.5 22.5q13 54 23 107.5t17 109.5q3 27 3 51t-4 44q-5 29 -17 46.5t-34 19.5
q-17 1 -31.5 -7t-26 -21t-20 -30t-13.5 -33q-8 -29 -5 -56.5t20 -47.5q-69 20 -91.5 53t-8.5 71q11 33 32.5 54t47.5 32t54 14t52 -1q34 -6 61 -24t45 -49q15 -27 22 -60.5t3 -70.5l-2 -18l26 54q21 47 43.5 70.5t48.5 20.5q15 -2 28 -20.5t21 -46.5t10 -61t-4 -64
q-7 -37 -14.5 -84.5t-14.5 -100.5q22 0 41.5 5.5t36.5 19.5zM410 672q-16 -33 -31.5 -68t-29.5 -64q-5 -26 -10 -52.5t-12 -52.5q23 -5 46 -11.5t46 -12.5q10 81 21 155.5t20 130.5q4 25 2 35t-6.5 9.5t-11 -9t-13.5 -20t-12.5 -23t-8.5 -17.5zM365 1051q19 0 32 -13.5
t13 -35.5q0 -23 -13.5 -36t-31.5 -13q-20 0 -34.5 13t-14.5 36q0 22 14.5 35.5t34.5 13.5zM479 1051q19 0 32 -13.5t13 -35.5q0 -23 -13.5 -36t-31.5 -13q-20 0 -34.5 13t-14.5 36q0 22 14.5 35.5t34.5 13.5z" />
    <glyph glyph-name="Aring" unicode="&#xc5;" horiz-adv-x="641" 
d="M576 877q1 -48 -23 -76t-57 -36q12 -11 21 -31t14.5 -45t6 -53t-4.5 -54q-7 -37 -14.5 -84.5t-14.5 -100.5q22 0 41.5 5.5t36.5 19.5q8 -17 6 -33.5t-10.5 -30.5t-22.5 -25t-30 -16q-8 -2 -15 -2h-15q-5 -48 -7 -95.5t0 -89.5t8.5 -76.5t18.5 -57t30.5 -31.5t45.5 1
q-3 -17 -14 -25.5t-24 -11.5t-26 -1t-20 5q-32 15 -52.5 44t-32 65t-15.5 77t-3.5 80.5t3 75t5.5 61.5q-25 9 -50 19.5t-50 19.5q-27 -103 -62 -202t-68 -192q-1 -4 -14.5 -1.5t-27 13.5t-22 33t0.5 57q26 77 52 153.5t47 154.5q-29 -2 -56 -17.5t-50 -52.5q-5 1 -6.5 6.5
t-1 11.5t2 12t2.5 9q26 44 57.5 62.5t66.5 22.5q13 54 23 107.5t17 109.5q3 27 3 51t-4 44q-5 29 -17 46.5t-34 19.5q-17 1 -31.5 -7t-26 -21t-20 -30t-13.5 -33q-8 -29 -5 -56.5t20 -47.5q-69 20 -91.5 53t-8.5 71q11 33 32.5 54t47.5 32t54 14t52 -1q34 -6 61 -24t45 -49
q15 -27 22 -60.5t3 -70.5l-2 -18l26 54q26 59 56 80q-18 4 -33.5 13t-27 24t-17 35t-3.5 45q3 35 20 58.5t40 34.5t49.5 10t49 -13t38.5 -35.5t18 -57.5zM410 672q-16 -33 -31.5 -68t-29.5 -64q-5 -26 -10 -52.5t-12 -52.5q23 -5 46 -11.5t46 -12.5q10 81 21 155.5t20 130.5
q3 25 1.5 35t-6 9.5t-11 -9t-13.5 -20t-12.5 -23t-8.5 -17.5zM393 876q0 -43 25 -63t54.5 -18t53 24.5t20.5 63.5q-3 39 -26.5 56t-51 15t-50.5 -22t-25 -56z" />
    <glyph glyph-name="AE" unicode="&#xc6;" horiz-adv-x="1111" 
d="M582 422q8 -17 6 -33.5t-10.5 -30.5t-22.5 -25t-30 -16q-8 -2 -15 -2h-15q-5 -48 -6.5 -95.5t0 -89.5t8 -76.5t18.5 -57t30.5 -31.5t45.5 1q-3 -17 -14 -25.5t-24 -11.5t-26 -1t-20 5q-32 15 -52.5 44t-32 65t-15.5 77t-3.5 80.5t3 75t5.5 61.5q-25 9 -50 19.5t-50 19.5
q-27 -103 -62 -202t-68 -192q-1 -4 -14.5 -1.5t-27 13.5t-22 33t0.5 57q26 77 52 153.5t47 154.5q-29 -2 -56 -17.5t-50 -52.5q-5 1 -6.5 6.5t-1 11.5t2 12t2.5 9q26 44 57.5 62.5t66.5 22.5q13 54 23 107.5t17 109.5q3 27 3 51t-4 44q-5 29 -17 46.5t-34 19.5
q-17 1 -31.5 -7t-26 -21t-20 -30t-13.5 -33q-8 -29 -5 -56.5t20 -47.5q-69 20 -91.5 53t-8.5 71q11 33 32.5 54t47.5 32t54 14t52 -1q34 -6 61 -24t45 -49q15 -27 22 -60.5t3 -70.5l-2 -18l26 54q21 47 43.5 70.5t48.5 20.5q15 -2 28 -20.5t21 -46.5t10 -61t-4 -64
q-7 -37 -14.5 -84.5t-14.5 -100.5q22 0 41.5 5.5t36.5 19.5zM410 672q-16 -33 -31.5 -68t-29.5 -64q-5 -26 -10 -52.5t-12 -52.5q23 -5 46 -11.5t46 -12.5q10 81 21 155.5t20 130.5q3 25 1.5 35t-6 9.5t-11 -9t-13.5 -20t-12.5 -23t-8.5 -17.5zM992 811q49 -2 86 -29.5
t48 -74.5q9 -38 -14.5 -71t-94.5 -53q9 10 15.5 25t10 32t4 34.5t-2.5 31.5q-1 4 -4 15.5t-8.5 23.5t-13.5 21t-19 9q-20 -9 -39 -28t-30 -41q-16 -31 -19 -69t7.5 -76.5t33.5 -73t59 -59.5q7 -8 2 -10t-9 -1q-21 6 -44.5 5.5t-47.5 -8t-46 -21t-40 -32.5q-20 -21 -36 -51.5
t-24.5 -66t-9 -73t11.5 -71.5q18 -54 46.5 -76t61 -21t67.5 21t67 50.5t58.5 66.5t42.5 70l20 -13q-17 -48 -52.5 -92.5t-80.5 -78t-95 -52.5t-96 -16t-84.5 32.5t-59.5 91.5q-14 40 -11.5 84t16.5 85t38 75.5t54 57.5q15 12 38 23t47.5 19.5t49 13.5t42.5 4
q-54 38 -81.5 82.5t-33 88t8 83t40.5 66.5q25 25 57 36t64 11z" />
    <glyph glyph-name="Egrave" unicode="&#xc8;" horiz-adv-x="470" 
d="M351 811q49 -2 86 -29.5t48 -74.5q9 -38 -14.5 -71t-94.5 -53q9 10 15.5 25t10 32t4 34.5t-2.5 31.5q-1 4 -4 15.5t-8.5 23.5t-13.5 21t-19 9q-20 -9 -39 -28t-30 -41q-16 -31 -19 -69t7.5 -76.5t33.5 -73t59 -59.5q7 -8 2 -10t-9 -1q-21 6 -44.5 5.5t-47.5 -8t-46 -21
t-40 -32.5q-20 -21 -36 -51.5t-24.5 -66t-9 -73t11.5 -71.5q18 -54 46.5 -76t61 -21t67.5 21t67 50.5t58.5 66.5t42.5 70l20 -13q-17 -48 -52.5 -92.5t-80.5 -78t-95 -52.5t-96 -16t-84.5 32.5t-59.5 91.5q-14 40 -11.5 84t16.5 85t38 75.5t54 57.5q15 12 38 23t47.5 19.5
t49 13.5t42.5 4q-54 38 -81.5 82.5t-33 88t8 83t40.5 66.5q25 25 57 36t64 11zM395 951q2 -5 0 -10.5t-6.5 -8.5t-9.5 -3.5t-8 3.5l-114 139q-3 5 5 11.5t21.5 9.5t28.5 1.5t27 -13.5z" />
    <glyph glyph-name="Ecircumflex" unicode="&#xca;" horiz-adv-x="470" 
d="M351 811q49 -2 86 -29.5t48 -74.5q9 -38 -14.5 -71t-94.5 -53q9 10 15.5 25t10 32t4 34.5t-2.5 31.5q-1 4 -4 15.5t-8.5 23.5t-13.5 21t-19 9q-20 -9 -39 -28t-30 -41q-16 -31 -19 -69t7.5 -76.5t33.5 -73t59 -59.5q7 -8 2 -10t-9 -1q-21 6 -44.5 5.5t-47.5 -8t-46 -21
t-40 -32.5q-20 -21 -36 -51.5t-24.5 -66t-9 -73t11.5 -71.5q18 -54 46.5 -76t61 -21t67.5 21t67 50.5t58.5 66.5t42.5 70l20 -13q-17 -48 -52.5 -92.5t-80.5 -78t-95 -52.5t-96 -16t-84.5 32.5t-59.5 91.5q-14 40 -11.5 84t16.5 85t38 75.5t54 57.5q15 12 38 23t47.5 19.5
t49 13.5t42.5 4q-54 38 -81.5 82.5t-33 88t8 83t40.5 66.5q25 25 57 36t64 11zM361 1055l-40 -94q-12 -12 -27 -13.5t-28.5 1.5t-21.5 9.5t-5 11.5l107 131q8 11 15 11t16 -11l107 -131q3 -5 -5 -11.5t-21.5 -9.5t-28.5 -1.5t-27 13.5z" />
    <glyph glyph-name="Edieresis" unicode="&#xcb;" horiz-adv-x="470" 
d="M351 811q49 -2 86 -29.5t48 -74.5q9 -38 -14.5 -71t-94.5 -53q9 10 15.5 25t10 32t4 34.5t-2.5 31.5q-1 4 -4 15.5t-8.5 23.5t-13.5 21t-19 9q-20 -9 -39 -28t-30 -41q-16 -31 -19 -69t7.5 -76.5t33.5 -73t59 -59.5q7 -8 2 -10t-9 -1q-21 6 -44.5 5.5t-47.5 -8t-46 -21
t-40 -32.5q-20 -21 -36 -51.5t-24.5 -66t-9 -73t11.5 -71.5q18 -54 46.5 -76t61 -21t67.5 21t67 50.5t58.5 66.5t42.5 70l20 -13q-17 -48 -52.5 -92.5t-80.5 -78t-95 -52.5t-96 -16t-84.5 32.5t-59.5 91.5q-14 40 -11.5 84t16.5 85t38 75.5t54 57.5q15 12 38 23t47.5 19.5
t49 13.5t42.5 4q-54 38 -81.5 82.5t-33 88t8 83t40.5 66.5q25 25 57 36t64 11zM295 1046q19 0 32 -13.5t13 -35.5q0 -23 -13.5 -36t-31.5 -13q-20 0 -34.5 13t-14.5 36q0 22 14.5 35.5t34.5 13.5zM409 1046q19 0 32 -13.5t13 -35.5q0 -23 -13.5 -36t-31.5 -13
q-20 0 -34.5 13t-14.5 36q0 22 14.5 35.5t34.5 13.5z" />
    <glyph glyph-name="Igrave" unicode="&#xcc;" horiz-adv-x="373" 
d="M146 83q18 71 36 141.5t32 142.5t23.5 145.5t11.5 149.5q2 56 -9 95q-8 29 -21.5 46.5t-35.5 19.5q-17 1 -30.5 -7t-24 -21t-17.5 -30t-11 -33q-5 -29 0.5 -56.5t23.5 -47.5q-71 20 -96 53t-15 71q8 33 28 54t45.5 32t53 14t51.5 -1q35 -6 63.5 -24t48.5 -49
q17 -27 27 -60.5t10 -70.5q1 -82 -10 -167.5t-29 -170t-40 -167.5t-43 -161q-1 -4 -14.5 -1.5t-28.5 13.5t-25 33t-4 57zM235 962q2 -5 0 -10.5t-6.5 -8.5t-9.5 -3.5t-8 3.5l-114 139q-3 5 5 11.5t21.5 9.5t28.5 1.5t27 -13.5z" />
    <glyph glyph-name="Iacute" unicode="&#xcd;" horiz-adv-x="373" 
d="M146 83q18 71 36 141.5t32 142.5t23.5 145.5t11.5 149.5q2 56 -9 95q-8 29 -21.5 46.5t-35.5 19.5q-17 1 -30.5 -7t-24 -21t-17.5 -30t-11 -33q-5 -29 0.5 -56.5t23.5 -47.5q-71 20 -96 53t-15 71q8 33 28 54t45.5 32t53 14t51.5 -1q35 -6 63.5 -24t48.5 -49
q17 -27 27 -60.5t10 -70.5q1 -82 -10 -167.5t-29 -170t-40 -167.5t-43 -161q-1 -4 -14.5 -1.5t-28.5 13.5t-25 33t-4 57zM216 1097q12 12 27 13.5t28.5 -1.5t21.5 -9.5t5 -11.5l-114 -139q-3 -4 -8 -3.5t-9.5 3.5t-6.5 8.5t0 10.5z" />
    <glyph glyph-name="Icircumflex" unicode="&#xce;" horiz-adv-x="373" 
d="M146 83q18 71 36 141.5t32 142.5t23.5 145.5t11.5 149.5q2 56 -9 95q-8 29 -21.5 46.5t-35.5 19.5q-17 1 -30.5 -7t-24 -21t-17.5 -30t-11 -33q-5 -29 0.5 -56.5t23.5 -47.5q-71 20 -96 53t-15 71q8 33 28 54t45.5 32t53 14t51.5 -1q35 -6 63.5 -24t48.5 -49
q17 -27 27 -60.5t10 -70.5q1 -82 -10 -167.5t-29 -170t-40 -167.5t-43 -161q-1 -4 -14.5 -1.5t-28.5 13.5t-25 33t-4 57zM229 1046l-40 -94q-12 -12 -27 -13.5t-28.5 1.5t-21.5 9.5t-5 11.5l107 131q8 11 15 11t16 -11l107 -131q3 -5 -5 -11.5t-21.5 -9.5t-28.5 -1.5
t-27 13.5z" />
    <glyph glyph-name="Idieresis" unicode="&#xcf;" horiz-adv-x="373" 
d="M146 83q18 71 36 141.5t32 142.5t23.5 145.5t11.5 149.5q2 56 -9 95q-8 29 -21.5 46.5t-35.5 19.5q-17 1 -30.5 -7t-24 -21t-17.5 -30t-11 -33q-5 -29 0.5 -56.5t23.5 -47.5q-71 20 -96 53t-15 71q8 33 28 54t45.5 32t53 14t51.5 -1q35 -6 63.5 -24t48.5 -49
q17 -27 27 -60.5t10 -70.5q1 -82 -10 -167.5t-29 -170t-40 -167.5t-43 -161q-1 -4 -14.5 -1.5t-28.5 13.5t-25 33t-4 57zM200 1052q19 0 32 -13.5t13 -35.5q0 -23 -13.5 -36t-31.5 -13q-20 0 -34.5 13t-14.5 36q0 22 14.5 35.5t34.5 13.5zM314 1052q19 0 32 -13.5t13 -35.5
q0 -23 -13.5 -36t-31.5 -13q-20 0 -34.5 13t-14.5 36q0 22 14.5 35.5t34.5 13.5z" />
    <glyph glyph-name="Eth" unicode="&#xd0;" horiz-adv-x="714" 
d="M121 344q-12 0 -18.5 8t-7 17.5t6 17.5t19.5 8l98 -1q12 66 20 132.5t10 135.5q2 56 -9 95q-8 29 -21.5 46.5t-35.5 19.5q-17 1 -30.5 -7t-24 -21t-17.5 -30t-11 -33q-5 -29 0.5 -56.5t23.5 -47.5q-71 20 -96 53t-15 71q8 33 28 54t45.5 32t53 14t51.5 -1q35 -6 63.5 -24
t48.5 -49q17 -27 27 -60.5t10 -70.5q0 -30 -1.5 -60t-3.5 -61q20 48 37.5 82t33.5 63q34 63 75 90.5t78.5 28.5t66.5 -22.5t38 -62.5q6 -25 7.5 -64t-1 -87t-10 -102t-20 -108t-29.5 -105.5t-40 -94.5q-16 -30 -36 -56.5t-45 -44.5t-54 -25t-63 3t-58.5 35.5t-23.5 65.5
q0 19 7 38.5t20 33.5t30.5 22t38.5 5q19 -3 30.5 -12.5t16 -22t1.5 -25t-12 -21.5q-18 13 -36 20t-33 6t-25 -11.5t-10 -31.5q-1 -28 14.5 -47.5t38.5 -24.5q21 -5 40 9t35 36t28 46.5t18 42.5q24 65 42.5 140.5t29 146t13.5 129.5t-4 92q-5 24 -18 40.5t-32.5 16t-44 -22
t-51.5 -72.5q-24 -47 -52 -106.5t-52 -115.5q-2 -10 -3.5 -20t-3.5 -20h81q12 0 17.5 -7.5t5.5 -17t-5.5 -17t-16.5 -7.5h-91q-19 -94 -43 -185.5t-47 -177.5q-1 -4 -14.5 -1.5t-28.5 13.5t-25 33t-4 57q17 66 33 130.5t30 130.5h-88z" />
    <glyph glyph-name="Ntilde" unicode="&#xd1;" horiz-adv-x="747" 
d="M146 83q18 71 36 141.5t32 142.5t23.5 145.5t11.5 149.5q2 56 -9 95q-8 29 -21.5 46.5t-35.5 19.5q-17 1 -30.5 -7t-24 -21t-17.5 -30t-11 -33q-5 -29 0.5 -56.5t23.5 -47.5q-71 20 -96 53t-15 71q8 33 28 54t45.5 32t53 14t51.5 -1q35 -6 63.5 -24t48.5 -49
q17 -27 27 -60.5t10 -70.5q1 -57 -4 -114t-15 -116q18 36 29.5 63t24 56t30 65t48.5 89q32 54 73.5 81.5t77 22t58 -47t15.5 -124.5q-2 -27 -11 -66.5t-21.5 -86.5t-26.5 -99.5t-27 -106t-23 -104.5t-13 -96q-2 -32 3 -48.5t15 -20.5t23 4.5t27 26.5q31 44 61 89t63 96
l20 -12q-19 -30 -35 -54.5t-31 -47t-30 -44t-32 -45.5q-19 -27 -44.5 -39.5t-50.5 -9t-44.5 24t-26.5 60.5q-9 60 1.5 132.5t28.5 147t39 145.5t33 127q13 59 11.5 99.5t-15 54t-38 -3t-56.5 -71.5q-23 -39 -47.5 -87.5t-48 -100.5t-45.5 -104.5t-41 -98.5q-17 -78 -37 -154
t-40 -148q-1 -4 -14.5 -1.5t-28.5 13.5t-25 33t-4 57zM245 964q14 19 30 35.5t40 25.5t61 7t93 -20q38 -14 74 -16.5t68 17.5q-15 -25 -34 -41t-45 -22.5t-61.5 -3t-82.5 18.5q-37 12 -73 16.5t-70 -17.5z" />
    <glyph glyph-name="Ograve" unicode="&#xd2;" horiz-adv-x="627" 
d="M165 521q-12 51 0 108.5t43 103.5q24 34 59 53t73 22.5t73.5 -7t61.5 -34.5q25 -23 42.5 -57t25.5 -82q9 -55 9.5 -112t-10.5 -119q18 12 28 23t21 30q2 3 6.5 3t8.5 -2.5t6.5 -6t0.5 -6.5q-14 -26 -33 -43t-40 -28q-8 -55 -25 -105t-40 -96q-29 -58 -70 -96.5t-87 -57.5
t-92.5 -18.5t-85 20.5t-65 60.5t-32.5 100.5q-4 40 2.5 87.5t22.5 94t40.5 89.5t56.5 75zM176 495q-29 -30 -50.5 -68.5t-35.5 -79.5t-19.5 -83.5t-1.5 -81.5q7 -72 43 -110t84 -40.5t99 32t88 108.5q18 38 32 81t23 88q-44 -9 -85.5 -0.5t-76.5 29.5t-61 53.5t-39 71.5z
M398 531q4 -6 -3 -14t-11 -3q-42 45 -88 48t-98 -45q12 -39 35.5 -71t55.5 -53t71 -28.5t81 1.5q14 67 16.5 130.5t-8.5 127.5q-6 35 -17.5 64t-28.5 49q-36 45 -84 41t-93 -68q-29 -42 -36.5 -81.5t2.5 -87.5q55 48 108 42t98 -52zM431 955q2 -5 0 -10.5t-6.5 -8.5
t-9.5 -3.5t-8 3.5l-114 139q-3 5 5 11.5t21.5 9.5t28.5 1.5t27 -13.5z" />
    <glyph glyph-name="Oacute" unicode="&#xd3;" horiz-adv-x="627" 
d="M165 521q-12 51 0 108.5t43 103.5q24 34 59 53t73 22.5t73.5 -7t61.5 -34.5q25 -23 42.5 -57t25.5 -82q9 -55 9.5 -112t-10.5 -119q18 12 28 23t21 30q2 3 6.5 3t8.5 -2.5t6.5 -6t0.5 -6.5q-14 -26 -33 -43t-40 -28q-8 -55 -25 -105t-40 -96q-29 -58 -70 -96.5t-87 -57.5
t-92.5 -18.5t-85 20.5t-65 60.5t-32.5 100.5q-4 40 2.5 87.5t22.5 94t40.5 89.5t56.5 75zM176 495q-29 -30 -50.5 -68.5t-35.5 -79.5t-19.5 -83.5t-1.5 -81.5q7 -72 43 -110t84 -40.5t99 32t88 108.5q18 38 32 81t23 88q-44 -9 -85.5 -0.5t-76.5 29.5t-61 53.5t-39 71.5z
M398 531q4 -6 -3 -14t-11 -3q-42 45 -88 48t-98 -45q12 -39 35.5 -71t55.5 -53t71 -28.5t81 1.5q14 67 16.5 130.5t-8.5 127.5q-6 35 -17.5 64t-28.5 49q-36 45 -84 41t-93 -68q-29 -42 -36.5 -81.5t2.5 -87.5q55 48 108 42t98 -52zM366 1099q12 12 27 13.5t28.5 -1.5
t21.5 -9.5t5 -11.5l-114 -139q-3 -4 -8 -3.5t-9.5 3.5t-6.5 8.5t0 10.5z" />
    <glyph glyph-name="Ocircumflex" unicode="&#xd4;" horiz-adv-x="627" 
d="M165 521q-12 51 0 108.5t43 103.5q24 34 59 53t73 22.5t73.5 -7t61.5 -34.5q25 -23 42.5 -57t25.5 -82q9 -55 9.5 -112t-10.5 -119q18 12 28 23t21 30q2 3 6.5 3t8.5 -2.5t6.5 -6t0.5 -6.5q-14 -26 -33 -43t-40 -28q-8 -55 -25 -105t-40 -96q-29 -58 -70 -96.5t-87 -57.5
t-92.5 -18.5t-85 20.5t-65 60.5t-32.5 100.5q-4 40 2.5 87.5t22.5 94t40.5 89.5t56.5 75zM176 495q-29 -30 -50.5 -68.5t-35.5 -79.5t-19.5 -83.5t-1.5 -81.5q7 -72 43 -110t84 -40.5t99 32t88 108.5q18 38 32 81t23 88q-44 -9 -85.5 -0.5t-76.5 29.5t-61 53.5t-39 71.5z
M398 531q4 -6 -3 -14t-11 -3q-42 45 -88 48t-98 -45q12 -39 35.5 -71t55.5 -53t71 -28.5t81 1.5q14 67 16.5 130.5t-8.5 127.5q-6 35 -17.5 64t-28.5 49q-36 45 -84 41t-93 -68q-29 -42 -36.5 -81.5t2.5 -87.5q55 48 108 42t98 -52zM388 1056l-40 -94q-12 -12 -27 -13.5
t-28.5 1.5t-21.5 9.5t-5 11.5l107 131q8 11 15 11t16 -11l107 -131q3 -5 -5 -11.5t-21.5 -9.5t-28.5 -1.5t-27 13.5z" />
    <glyph glyph-name="Otilde" unicode="&#xd5;" horiz-adv-x="627" 
d="M165 521q-12 51 0 108.5t43 103.5q24 34 59 53t73 22.5t73.5 -7t61.5 -34.5q25 -23 42.5 -57t25.5 -82q9 -55 9.5 -112t-10.5 -119q18 12 28 23t21 30q2 3 6.5 3t8.5 -2.5t6.5 -6t0.5 -6.5q-14 -26 -33 -43t-40 -28q-8 -55 -25 -105t-40 -96q-29 -58 -70 -96.5t-87 -57.5
t-92.5 -18.5t-85 20.5t-65 60.5t-32.5 100.5q-4 40 2.5 87.5t22.5 94t40.5 89.5t56.5 75zM176 495q-29 -30 -50.5 -68.5t-35.5 -79.5t-19.5 -83.5t-1.5 -81.5q7 -72 43 -110t84 -40.5t99 32t88 108.5q18 38 32 81t23 88q-44 -9 -85.5 -0.5t-76.5 29.5t-61 53.5t-39 71.5z
M398 531q4 -6 -3 -14t-11 -3q-42 45 -88 48t-98 -45q12 -39 35.5 -71t55.5 -53t71 -28.5t81 1.5q14 67 16.5 130.5t-8.5 127.5q-6 35 -17.5 64t-28.5 49q-36 45 -84 41t-93 -68q-29 -42 -36.5 -81.5t2.5 -87.5q55 48 108 42t98 -52zM169 966q14 19 30 35.5t40 25.5t61 7
t93 -20q38 -14 74 -16.5t68 17.5q-15 -25 -34 -41t-45 -22.5t-61.5 -3t-82.5 18.5q-37 12 -73 16.5t-70 -17.5z" />
    <glyph glyph-name="Odieresis" unicode="&#xd6;" horiz-adv-x="627" 
d="M165 521q-12 51 0 108.5t43 103.5q24 34 59 53t73 22.5t73.5 -7t61.5 -34.5q25 -23 42.5 -57t25.5 -82q9 -55 9.5 -112t-10.5 -119q18 12 28 23t21 30q2 3 6.5 3t8.5 -2.5t6.5 -6t0.5 -6.5q-14 -26 -33 -43t-40 -28q-8 -55 -25 -105t-40 -96q-29 -58 -70 -96.5t-87 -57.5
t-92.5 -18.5t-85 20.5t-65 60.5t-32.5 100.5q-4 40 2.5 87.5t22.5 94t40.5 89.5t56.5 75zM176 495q-29 -30 -50.5 -68.5t-35.5 -79.5t-19.5 -83.5t-1.5 -81.5q7 -72 43 -110t84 -40.5t99 32t88 108.5q18 38 32 81t23 88q-44 -9 -85.5 -0.5t-76.5 29.5t-61 53.5t-39 71.5z
M398 531q4 -6 -3 -14t-11 -3q-42 45 -88 48t-98 -45q12 -39 35.5 -71t55.5 -53t71 -28.5t81 1.5q14 67 16.5 130.5t-8.5 127.5q-6 35 -17.5 64t-28.5 49q-36 45 -84 41t-93 -68q-29 -42 -36.5 -81.5t2.5 -87.5q55 48 108 42t98 -52zM316 1051q19 0 32 -13.5t13 -35.5
q0 -23 -13.5 -36t-31.5 -13q-20 0 -34.5 13t-14.5 36q0 22 14.5 35.5t34.5 13.5zM430 1051q19 0 32 -13.5t13 -35.5q0 -23 -13.5 -36t-31.5 -13q-20 0 -34.5 13t-14.5 36q0 22 14.5 35.5t34.5 13.5z" />
    <glyph glyph-name="Oslash" unicode="&#xd8;" horiz-adv-x="627" 
d="M174 -38q-2 -5 -10 -6t-16.5 1t-14 7.5t-3.5 12.5l12 36q-39 20 -66 60t-33 102q-4 40 2.5 87.5t22.5 94t40.5 89.5t56.5 75q-12 51 0 108.5t43 103.5q18 25 42.5 42t52 25.5t56 9t54.5 -7.5l4 10q3 9 12 10.5t17.5 -1t14.5 -9t3 -13.5l-6 -18q5 -3 8.5 -6.5t8.5 -7.5
q25 -23 42.5 -57t25.5 -82q9 -55 9.5 -112t-10.5 -119q18 12 28 23t21 30q2 3 6.5 3t8.5 -2.5t6.5 -6t0.5 -6.5q-14 -26 -33 -43t-40 -28q-8 -55 -25 -105t-40 -96q-25 -50 -59 -85.5t-73 -56.5t-79.5 -27.5t-77.5 1.5zM176 495q-29 -30 -50.5 -68.5t-35.5 -79.5
t-19.5 -83.5t-1.5 -81.5q5 -56 28 -91t55 -49l115 334q-66 43 -91 119zM383 172q18 38 32 81t23 88q-34 -7 -66.5 -3.5t-62.5 15.5l-111 -322q48 -2 98 33t87 108zM226 710q-29 -42 -36.5 -81.5t2.5 -87.5q37 32 73 39.5t70 -6.5l59 172q-35 38 -80.5 31t-87.5 -67zM398 531
q4 -6 -3 -14t-11 -3q-4 4 -7 7.5t-7 6.5l-53 -151q28 -12 59 -15.5t65 4.5q14 67 16.5 130.5t-8.5 127.5q-4 20 -8.5 38t-12.5 34l-51 -147q10 -8 21 -18zM198 517q21 -73 78 -116l52 153q-30 12 -62.5 3.5t-67.5 -40.5z" />
    <glyph glyph-name="Ugrave" unicode="&#xd9;" horiz-adv-x="642" 
d="M163 230q-13 -59 -11.5 -99.5t15 -54t38 3t56.5 71.5q23 39 47.5 87.5t48 100.5t45.5 104t41 99q17 78 37 154t40 148q1 4 14.5 1.5t28.5 -13.5t25 -33t4 -57q-41 -158 -75.5 -323.5t-50.5 -330.5q-2 -32 3 -48.5t15 -20.5t23 4.5t27 26.5q15 22 28 40t25 36t25 38t30 46
l20 -12q-19 -30 -32.5 -50.5t-25.5 -38.5t-24.5 -35.5t-29.5 -41.5q-19 -27 -44.5 -39.5t-50.5 -9t-44.5 24t-26.5 60.5q-5 45 -3 88t8 85.5t14 84t14 82.5q-18 -36 -29.5 -63t-24 -56t-30 -65t-48.5 -89q-32 -54 -73.5 -81.5t-77 -22t-58 47t-15.5 124.5q3 32 16.5 86.5
t30 118t32.5 129.5t24 120q6 55 0 95q-5 29 -17 48.5t-34 22.5q-17 3 -31.5 -4t-26 -19t-20 -28t-13.5 -32q-8 -28 -5 -56t19 -49q-68 26 -90 60.5t-9 72.5q11 32 32.5 51t48 28t54 9.5t51.5 -5.5q34 -10 61 -30.5t44 -52.5q18 -35 21.5 -84t-2.5 -103.5t-18.5 -110
t-26 -103.5t-25 -84.5t-14.5 -52.5zM415 955q2 -5 0 -10.5t-6.5 -8.5t-9.5 -3.5t-8 3.5l-114 139q-3 5 5 11.5t21.5 9.5t28.5 1.5t27 -13.5z" />
    <glyph glyph-name="Uacute" unicode="&#xda;" horiz-adv-x="642" 
d="M163 230q-13 -59 -11.5 -99.5t15 -54t38 3t56.5 71.5q23 39 47.5 87.5t48 100.5t45.5 104t41 99q17 78 37 154t40 148q1 4 14.5 1.5t28.5 -13.5t25 -33t4 -57q-41 -158 -75.5 -323.5t-50.5 -330.5q-2 -32 3 -48.5t15 -20.5t23 4.5t27 26.5q15 22 28 40t25 36t25 38t30 46
l20 -12q-19 -30 -32.5 -50.5t-25.5 -38.5t-24.5 -35.5t-29.5 -41.5q-19 -27 -44.5 -39.5t-50.5 -9t-44.5 24t-26.5 60.5q-5 45 -3 88t8 85.5t14 84t14 82.5q-18 -36 -29.5 -63t-24 -56t-30 -65t-48.5 -89q-32 -54 -73.5 -81.5t-77 -22t-58 47t-15.5 124.5q3 32 16.5 86.5
t30 118t32.5 129.5t24 120q6 55 0 95q-5 29 -17 48.5t-34 22.5q-17 3 -31.5 -4t-26 -19t-20 -28t-13.5 -32q-8 -28 -5 -56t19 -49q-68 26 -90 60.5t-9 72.5q11 32 32.5 51t48 28t54 9.5t51.5 -5.5q34 -10 61 -30.5t44 -52.5q18 -35 21.5 -84t-2.5 -103.5t-18.5 -110
t-26 -103.5t-25 -84.5t-14.5 -52.5zM376 1097q12 12 27 13.5t28.5 -1.5t21.5 -9.5t5 -11.5l-114 -139q-3 -4 -8 -3.5t-9.5 3.5t-6.5 8.5t0 10.5z" />
    <glyph glyph-name="Ucircumflex" unicode="&#xdb;" horiz-adv-x="642" 
d="M163 230q-13 -59 -11.5 -99.5t15 -54t38 3t56.5 71.5q23 39 47.5 87.5t48 100.5t45.5 104t41 99q17 78 37 154t40 148q1 4 14.5 1.5t28.5 -13.5t25 -33t4 -57q-41 -158 -75.5 -323.5t-50.5 -330.5q-2 -32 3 -48.5t15 -20.5t23 4.5t27 26.5q15 22 28 40t25 36t25 38t30 46
l20 -12q-19 -30 -32.5 -50.5t-25.5 -38.5t-24.5 -35.5t-29.5 -41.5q-19 -27 -44.5 -39.5t-50.5 -9t-44.5 24t-26.5 60.5q-5 45 -3 88t8 85.5t14 84t14 82.5q-18 -36 -29.5 -63t-24 -56t-30 -65t-48.5 -89q-32 -54 -73.5 -81.5t-77 -22t-58 47t-15.5 124.5q3 32 16.5 86.5
t30 118t32.5 129.5t24 120q6 55 0 95q-5 29 -17 48.5t-34 22.5q-17 3 -31.5 -4t-26 -19t-20 -28t-13.5 -32q-8 -28 -5 -56t19 -49q-68 26 -90 60.5t-9 72.5q11 32 32.5 51t48 28t54 9.5t51.5 -5.5q34 -10 61 -30.5t44 -52.5q18 -35 21.5 -84t-2.5 -103.5t-18.5 -110
t-26 -103.5t-25 -84.5t-14.5 -52.5zM376 1061l-40 -94q-12 -12 -27 -13.5t-28.5 1.5t-21.5 9.5t-5 11.5l107 131q8 11 15 11t16 -11l107 -131q3 -5 -5 -11.5t-21.5 -9.5t-28.5 -1.5t-27 13.5z" />
    <glyph glyph-name="Udieresis" unicode="&#xdc;" horiz-adv-x="642" 
d="M163 230q-13 -59 -11.5 -99.5t15 -54t38 3t56.5 71.5q23 39 47.5 87.5t48 100.5t45.5 104t41 99q17 78 37 154t40 148q1 4 14.5 1.5t28.5 -13.5t25 -33t4 -57q-41 -158 -75.5 -323.5t-50.5 -330.5q-2 -32 3 -48.5t15 -20.5t23 4.5t27 26.5q15 22 28 40t25 36t25 38t30 46
l20 -12q-19 -30 -32.5 -50.5t-25.5 -38.5t-24.5 -35.5t-29.5 -41.5q-19 -27 -44.5 -39.5t-50.5 -9t-44.5 24t-26.5 60.5q-5 45 -3 88t8 85.5t14 84t14 82.5q-18 -36 -29.5 -63t-24 -56t-30 -65t-48.5 -89q-32 -54 -73.5 -81.5t-77 -22t-58 47t-15.5 124.5q3 32 16.5 86.5
t30 118t32.5 129.5t24 120q6 55 0 95q-5 29 -17 48.5t-34 22.5q-17 3 -31.5 -4t-26 -19t-20 -28t-13.5 -32q-8 -28 -5 -56t19 -49q-68 26 -90 60.5t-9 72.5q11 32 32.5 51t48 28t54 9.5t51.5 -5.5q34 -10 61 -30.5t44 -52.5q18 -35 21.5 -84t-2.5 -103.5t-18.5 -110
t-26 -103.5t-25 -84.5t-14.5 -52.5zM326 1046q19 0 32 -13.5t13 -35.5q0 -23 -13.5 -36t-31.5 -13q-20 0 -34.5 13t-14.5 36q0 22 14.5 35.5t34.5 13.5zM440 1046q19 0 32 -13.5t13 -35.5q0 -23 -13.5 -36t-31.5 -13q-20 0 -34.5 13t-14.5 36q0 22 14.5 35.5t34.5 13.5z" />
    <glyph glyph-name="Yacute" unicode="&#xdd;" horiz-adv-x="588" 
d="M409 443q8 35 25.5 51t35.5 21t31.5 2t13.5 -7q-10 -80 -21 -165t-27 -170.5t-38 -168.5t-54 -159q-14 -34 -36 -61t-48 -46q-31 -21 -64 -27t-68 2q-24 6 -48.5 18.5t-43.5 32.5t-29.5 47t-5.5 61q6 39 41.5 60t108.5 13q-24 -11 -40 -35t-22 -52q-3 -17 -2.5 -35
t5 -34.5t14.5 -29t26 -17.5q20 -7 40 4.5t37 34.5q25 32 45 85q44 118 68.5 236t41.5 238q-10 -22 -19 -41.5t-21 -42.5t-28.5 -52t-41.5 -71q-32 -54 -73.5 -81.5t-77 -22t-58 47t-15.5 124.5q3 32 16.5 86.5t30 118t32.5 129.5t24 120q6 55 0 95q-5 29 -17 48.5t-34 22.5
q-17 3 -31.5 -4t-26 -19t-20 -28t-13.5 -32q-8 -28 -5 -56t19 -49q-68 26 -90 60.5t-9 72.5q11 32 32.5 51t48 28t54 9.5t51.5 -5.5q34 -10 61 -30.5t44 -52.5q18 -35 21.5 -84t-2.5 -103.5t-18.5 -110t-26 -103.5t-25 -84.5t-14.5 -52.5q-13 -59 -11.5 -99.5t15 -54t38 3
t56.5 71.5q40 68 76 137t72 155zM388 1099q12 12 27 13.5t28.5 -1.5t21.5 -9.5t5 -11.5l-114 -139q-3 -4 -8 -3.5t-9.5 3.5t-6.5 8.5t0 10.5z" />
    <glyph glyph-name="agrave" unicode="&#xe0;" horiz-adv-x="436" 
d="M456 200q-17 -36 -32.5 -69.5t-30.5 -56.5q-21 -32 -50.5 -45.5t-57 -7.5t-48.5 32t-24 73q-2 17 -0.5 39.5t4.5 47.5q-8 -20 -19 -40t-22 -37q-16 -23 -35 -35.5t-34 -16.5q-19 -5 -35 -0.5t-28.5 14.5t-21.5 24t-14 29q-9 27 -12 57.5t0.5 61.5t13 59t24.5 49
q27 38 69 53t84 -4q18 -10 33 -23.5t25 -35.5q7 29 11.5 48t6.5 22q16 9 33 3t30 -22t19.5 -39.5t0.5 -48.5q0 -3 -4.5 -21.5t-10.5 -47t-12 -63t-10 -69.5q-3 -20 2 -37.5t15.5 -24t25 2t31.5 38.5q7 13 13.5 24.5t12.5 23t12.5 24t14.5 29.5zM239 343q-12 27 -28 37.5
t-32 8.5q-26 -3 -40.5 -23.5t-20.5 -40.5q-15 -36 -20.5 -81.5t-0.5 -83.5q4 -37 23.5 -33.5t40.5 34.5q14 22 33.5 60.5t38.5 88.5zM296 554q2 -5 0 -10.5t-6.5 -8.5t-9.5 -3.5t-8 3.5l-114 139q-3 5 5 11.5t21.5 9.5t28.5 1.5t27 -13.5z" />
    <glyph glyph-name="ae" unicode="&#xe6;" horiz-adv-x="501" 
d="M322 140q7 -25 21.5 -32t32.5 -2.5t38 18t37.5 30t31 32t18.5 25.5l19 -11q-11 -19 -30.5 -41t-43 -42t-48 -35t-44.5 -20q-26 -6 -48 -1.5t-39.5 18t-29.5 34.5t-16 46q-2 13 -3 26.5t-1 27.5q-8 -20 -19 -40t-22 -37q-16 -23 -35 -35.5t-34 -16.5q-19 -5 -35 -0.5
t-28.5 14.5t-21.5 24t-14 29q-9 27 -12 57.5t0.5 61.5t13 59t24.5 49q27 38 69 53t84 -4q18 -10 39 -27.5t31 -39.5q15 21 26.5 36t38.5 27q31 14 62 8.5t51.5 -23.5t26 -46t-14.5 -59q-15 -23 -33 -39t-36 -26t-33.5 -15.5t-24.5 -6.5q-2 -25 -2 -45t4 -31zM239 343
q-12 27 -28 37.5t-32 8.5q-26 -3 -40.5 -23.5t-20.5 -40.5q-15 -36 -20.5 -81.5t-0.5 -83.5q4 -37 23.5 -33.5t40.5 34.5q14 22 33.5 60.5t38.5 88.5zM419 315q12 21 9 37t-15 22t-28.5 -0.5t-30.5 -30.5q-11 -20 -18.5 -45.5t-12.5 -52.5q27 5 53.5 24t42.5 46z" />
    <glyph glyph-name="questiondown" unicode="&#xbf;" horiz-adv-x="536" 
d="M338 793q1 11 11 19.5t22 12.5t21.5 2.5t9.5 -10.5q-1 -75 -9.5 -130t-23 -95.5t-33 -69.5t-39 -53t-41.5 -46t-40 -47q-28 -37 -48 -80t-30 -85.5t-9.5 -81t12.5 -66.5q19 -44 55 -64.5t77 -21t80.5 19t65.5 57.5q28 40 37.5 94.5t0.5 117.5q4 2 16.5 1t25.5 -8.5
t23 -23t10 -41.5q2 -60 -22.5 -108t-65.5 -81q-41 -32 -88 -47t-94 -13.5t-89.5 18.5t-74 48.5t-48 76.5t-11.5 103q4 46 23 85t45.5 71.5t54.5 59t50 48.5q31 31 58.5 55.5t46 58.5t25.5 86t-4 138zM366 845q-19 0 -32 13.5t-13 35.5q0 23 13.5 36t31.5 13q20 0 34.5 -13
t14.5 -36q0 -22 -14.5 -35.5t-34.5 -13.5z" />
    <glyph glyph-name="multiply" unicode="&#xd7;" horiz-adv-x="393" 
d="M198 193l-123 -117q-9 -9 -19.5 -8t-17 7.5t-7.5 16t8 17.5l123 118l-122 113q-9 8 -8.5 18.5t7 17.5t16.5 8.5t20 -7.5l123 -117l120 116q9 9 19.5 8.5t17.5 -6.5t8 -15.5t-9 -18.5l-121 -116l122 -114q9 -8 8 -17.5t-7 -16.5t-15.5 -8.5t-17.5 6.5z" />
    <glyph glyph-name="Zcaron" unicode="&#x17d;" horiz-adv-x="728" 
d="M154 28q40 6 89 15.5t101 18t103 14t95.5 3t79 -14.5t52.5 -38q5 -7 8.5 -25t-0.5 -38.5t-18 -40t-44 -30.5q4 36 -18.5 59t-64.5 35t-99 14.5t-121 -0.5t-132 -11.5t-131 -18.5q-5 -1 -2.5 8t8 20t11 20.5t6.5 9.5q39 69 94.5 146.5t116 153.5t121.5 146.5t113 125.5
t89 90.5t50 41.5q-60 -9 -130.5 -18t-138.5 -5t-127.5 28t-97.5 80q-5 7 -10.5 29t-4 47.5t13 49t41.5 34.5q-4 -37 18 -68.5t63.5 -56.5t98 -43t120 -28t131 -10.5t130.5 9.5q30 4 37 -12t3.5 -38t-12 -40.5t-9.5 -18.5q-19 -11 -64.5 -46.5t-105.5 -87.5t-128 -116
t-132 -132t-118 -135.5t-85 -125.5zM527 1018l75 83q5 5 12 0t3 -11l-89 -139q-4 -4 -8 -3t-6 5l-68 142q-2 7 5 11.5t10 -0.5z" />
    <glyph glyph-name="zcaron" unicode="&#x17e;" horiz-adv-x="352" 
d="M366 190q-27 -21 -55.5 -44.5t-56.5 -46.5q6 -41 -1.5 -93t-24 -105t-39 -102t-46.5 -83q-27 -38 -61 -53.5t-65 -11t-52 28.5t-22 64q-1 45 17.5 85.5t49.5 78.5t70.5 74t79.5 71q1 40 -9 66t-26 38t-35 10.5t-37 -16.5q-3 -5 -9 -6.5t-11.5 -0.5t-8.5 5.5t2 12.5
q25 42 38.5 67t26 47t30 48.5t49.5 71.5q-44 -19 -78 -20.5t-58.5 8.5t-39 28t-18.5 37t3 36.5t26 26.5q8 -26 27.5 -41t45 -22t54.5 -7.5t57 2t51.5 6t38.5 5.5l2.5 -5t3.5 -12.5t-1.5 -16t-12.5 -15.5q-39 -33 -63 -56t-43 -44.5t-37.5 -45t-44.5 -57.5q18 12 42 14.5
t48.5 -6.5t45 -30.5t30.5 -55.5q25 20 51.5 42t51.5 43zM159 19q-37 -31 -72.5 -65.5t-62.5 -70t-42 -71.5t-12 -69q2 -25 13.5 -37.5t27 -12.5t32 12.5t28.5 36.5q33 65 56.5 134t31.5 143zM140 588l75 83q5 5 12 0t3 -11l-89 -139q-4 -4 -8 -3t-6 5l-68 142q-2 7 5 11.5
t10 -0.5z" />
    <glyph glyph-name="Lslash" unicode="&#x141;" horiz-adv-x="412" 
d="M26 270q-11 -5 -20 0t-13 14t-1.5 18.5t14.5 14.5l149 62q14 70 22.5 140.5t10.5 142.5q2 56 -9 95q-8 29 -21.5 46.5t-35.5 19.5q-17 1 -30.5 -7t-24 -21t-17.5 -30t-11 -33q-5 -29 0.5 -56.5t23.5 -47.5q-71 20 -96 53t-15 71q8 33 28 54t45.5 32t53 14t51.5 -1
q35 -6 63.5 -24t48.5 -49q17 -27 27 -60.5t10 -70.5q1 -54 -4.5 -110t-14.5 -113l100 42q10 4 18.5 -0.5t12.5 -13t1.5 -17.5t-12.5 -13l-130 -56q-13 -70 -30.5 -138.5t-34.5 -134.5q58 -27 121.5 -58t125 -47.5t119 -4.5t101.5 52q5 -23 4 -46.5t-9 -44t-22 -36.5t-34 -23
q-39 -16 -90.5 -1.5t-107.5 43.5t-114 64.5t-109 62.5q-23 -63 -61.5 -102.5t-102.5 -39.5q-25 0 -44.5 10.5t-31.5 28t-16 39t2 42.5q9 35 29.5 55.5t46 29.5t53 8t49.5 -7q13 50 25.5 100t23.5 102zM83 85q-17 2 -37 1.5t-38 -6t-31.5 -18.5t-16.5 -35q-2 -18 11.5 -30.5
t33.5 -10t42 25t36 73.5z" />
    <glyph glyph-name="lslash" unicode="&#x142;" horiz-adv-x="209" 
d="M-80 276q-12 -3 -20.5 3t-11 15t1.5 18.5t17 12.5l113 30q13 88 22.5 159t16.5 122t10.5 80t5.5 34q16 9 34.5 3t33 -22t22.5 -39.5t2 -48.5l-45 -261l84 22q11 3 19 -3t10.5 -14.5t-1 -17.5t-14.5 -12l-107 -29l-18 -114q-3 -20 -7.5 -48t-6.5 -48q-5 -33 0 -50.5
t15 -20.5t23.5 8t26.5 34q15 27 30.5 57.5t32.5 63.5l18 -10q-17 -36 -33 -69.5t-30 -56.5q-30 -50 -65 -65t-62 3t-39.5 69t1.5 133q4 23 7 44.5t6 42.5z" />
    <glyph glyph-name="scaron" unicode="&#x161;" horiz-adv-x="222" 
d="M229 186q-23 -11 -52 -22.5t-59 -23.5q4 -23 6 -49t0.5 -51.5t-7 -49t-16.5 -41.5q-15 -23 -34 -36t-39 -17.5t-40 -0.5t-36 15q-17 12 -27 30.5t-9.5 41t12 47.5t36.5 51q24 24 59 44q-10 37 -23.5 74t-23 73t-11 71t13.5 68q11 25 32 40.5t46 20.5t49.5 0.5t43 -19.5
t26.5 -40.5t-1 -60.5q-5 -6 -12.5 -4.5t-6.5 7.5q6 30 -6.5 50t-30.5 26t-35.5 -3.5t-21.5 -37.5q-4 -27 2 -59t16 -62.5t19.5 -57t13.5 -44.5l109 45zM-27 50q-29 -34 -27 -63.5t22 -43.5q17 -11 37 0t30 49q5 26 3 53t-8 53q-16 -10 -30.5 -22t-26.5 -26zM59 630l75 83
q5 5 12 0t3 -11l-89 -139q-4 -4 -8 -3t-6 5l-68 142q-2 7 5 11.5t10 -0.5z" />
    <glyph glyph-name="oe" unicode="&#x153;" horiz-adv-x="514" 
d="M335 140q7 -25 21.5 -32t32.5 -2.5t38 18t37.5 30t31 32t18.5 25.5l19 -11q-11 -19 -30.5 -41t-43 -42t-48 -35t-44.5 -20q-25 -6 -49 -0.5t-42.5 19t-30 33.5t-11.5 44q-5 -20 -13.5 -37t-20.5 -35q-25 -35 -57 -45.5t-62 -0.5t-52 39t-28 74q-4 31 -2.5 63t8 62
t17.5 57t26 47q26 35 60 48.5t65.5 7.5t55.5 -29.5t29 -63.5q16 34 42 57q34 29 71 30.5t64 -15.5t36 -47.5t-13 -66.5q-15 -23 -33 -39t-36 -26t-33.5 -15.5t-24.5 -6.5q-2 -25 -2 -45t4 -31zM233 324q0 33 -10.5 51.5t-27 19.5t-35.5 -15t-35 -52q-6 -14 -11.5 -34.5
t-9.5 -44t-6 -47.5t-1 -43q1 -32 9 -49.5t20 -23t26 0.5t26 22q15 21 25.5 48t17 56t9.5 58t3 53zM432 315q12 21 9 37t-15 22t-28.5 -0.5t-30.5 -30.5q-11 -20 -18.5 -45.5t-12.5 -52.5q27 5 53.5 24t42.5 46z" />
    <glyph glyph-name="Scaron" unicode="&#x160;" horiz-adv-x="468" 
d="M-13 356q4 4 19 14.5t36.5 15t47 -1t51.5 -32.5q-23 -13 -48 -30t-46.5 -38.5t-38.5 -49t-25 -62.5q-14 -61 -3.5 -105t35.5 -71t60 -37t70.5 -3.5t67.5 30.5t50 64q26 57 20.5 120.5t-27.5 128.5q-21 63 -51.5 124.5t-53.5 123t-30.5 123.5t17.5 127q13 32 38.5 54.5
t56.5 33t63 7.5t57.5 -20.5t40 -51t11.5 -84.5q0 -7 -5.5 -16.5t-16 -18t-26 -14.5t-34.5 -5q16 32 15.5 63.5t-10.5 56t-26.5 40t-33 15.5t-29.5 -18t-15 -59q-4 -58 12.5 -119t40.5 -123.5t48.5 -126t36.5 -127t6 -125.5t-43 -122q-31 -50 -75.5 -77.5t-93.5 -35t-97.5 5
t-85.5 43.5t-58 80.5t-15 116.5q5 55 26 98.5t61 87.5zM266 1019l75 83q5 5 12 0t3 -11l-89 -139q-4 -4 -8 -3t-6 5l-68 142q-2 7 5 11.5t10 -0.5z" />
    <glyph glyph-name="yen" unicode="&#xa5;" horiz-adv-x="588" 
d="M296 16q-6 0 -8 4.5t-1.5 10t4 10.5t9.5 5h40q4 14 7 28.5t6 29.5h-34q-6 0 -8.5 4.5t-1.5 10.5t4.5 10.5t9.5 4.5h37q11 52 19 103.5t16 104.5q-10 -22 -19 -41.5t-21 -42.5t-28.5 -52t-41.5 -71q-32 -54 -73.5 -81.5t-77 -22t-58 47t-15.5 124.5q3 32 16.5 86.5t30 118
t32.5 129.5t24 120q6 55 0 95q-5 29 -17 48.5t-34 22.5q-17 3 -31.5 -4t-26 -19t-20 -28t-13.5 -32q-8 -28 -5 -56t19 -49q-68 26 -90 60.5t-9 72.5q11 32 32.5 51t48 28t54 9.5t51.5 -5.5q34 -10 61 -30.5t44 -52.5q18 -35 21.5 -84t-2.5 -103.5t-18.5 -110t-26 -103.5
t-25 -84.5t-14.5 -52.5q-13 -59 -11.5 -99.5t15 -54t38 3t56.5 71.5q40 68 76 137t72 155q8 35 25.5 51t35.5 21t31.5 2t13.5 -7q-11 -91 -24 -186t-32 -191h45q6 0 8 -4.5t1.5 -9.5t-4 -10t-8.5 -5h-48q-3 -15 -6.5 -29.5t-7.5 -29.5h47q6 0 8 -4t1 -9.5t-4 -10.5t-9 -5
h-50q-12 -44 -26 -86t-31 -83q-14 -34 -36 -61t-48 -46q-31 -21 -64 -27t-68 2q-24 6 -48.5 18.5t-43.5 32.5t-29.5 47t-5.5 61q6 39 41.5 60t108.5 13q-24 -11 -40 -35t-22 -52q-3 -17 -2.5 -35t5 -34.5t14.5 -29t26 -17.5q20 -7 40 4.5t37 34.5q25 32 45 85
q14 38 25.5 74.5t21.5 73.5h-36z" />
    <glyph glyph-name="cent" unicode="&#xa2;" horiz-adv-x="264" 
d="M167 -14q0 -3 -5 -5.5t-10.5 -2.5t-10 2t-4.5 7v76q-24 -6 -46 -0.5t-40 19t-30 34.5t-16 48t-4.5 56t4 57.5t14.5 54.5t25 46q19 26 43.5 40t50.5 18v73q0 6 5 9.5t11 3.5t11 -3t5 -8l-1 -75q37 -5 64 -32q5 -6 10 -13t9 -16q4 -8 -4.5 -12.5t-13.5 0.5q-5 7 -8 11.5
t-8 7.5q-13 8 -25.5 8.5t-23.5 -4.5l-2 -275q5 2 10.5 5.5t10.5 7.5q13 9 25 21t22 24t17.5 23t11.5 18l20 -11q-14 -24 -37 -52.5t-50 -51.5q-8 -7 -15 -11.5t-15 -8.5v-89zM133 355q-13 -20 -20.5 -51.5t-11 -63.5t-3 -59.5t4.5 -40.5q10 -35 34 -37v259q-2 -2 -2.5 -3.5
t-1.5 -3.5z" />
    <glyph glyph-name="sterling" unicode="&#xa3;" horiz-adv-x="742" 
d="M196 104q14 60 28 129.5t27 139.5h-86q-12 0 -18.5 8t-7 17.5t6 17.5t19.5 8l96 -1q7 38 13 73.5t12 67.5q5 30 13 66t19 71t27 65.5t37 49.5q28 24 60 34t67 6q24 -3 50 -12.5t47.5 -27t35 -43t12.5 -59.5q-1 -40 -33.5 -64.5t-106.5 -26.5q23 14 36 39.5t15 54.5
q1 17 -1.5 35t-9 33.5t-18 27t-27.5 14.5q-21 5 -39 -8.5t-33 -39.5q-30 -51 -41.5 -111t-20.5 -114q-5 -32 -10 -64.5t-10 -66.5h94q12 0 17.5 -7.5t5.5 -17t-5.5 -17t-16.5 -7.5l-102 -1q-11 -75 -23.5 -148.5t-31.5 -142.5q98 -40 168.5 -66.5t121 -33.5t85 9t59.5 61
q5 -23 4 -46.5t-9 -44t-22 -36.5t-34 -23q-25 -14 -61 -11t-78.5 16.5t-90 33t-96 39t-96.5 36t-91 22.5t-79.5 -1t-62.5 -35q-3 51 18.5 75t51.5 32t62.5 4.5t52.5 -9.5z" />
    <glyph glyph-name="Ydieresis" unicode="&#x178;" horiz-adv-x="588" 
d="M409 443q8 35 25.5 51t35.5 21t31.5 2t13.5 -7q-10 -80 -21 -165t-27 -170.5t-38 -168.5t-54 -159q-14 -34 -36 -61t-48 -46q-31 -21 -64 -27t-68 2q-24 6 -48.5 18.5t-43.5 32.5t-29.5 47t-5.5 61q6 39 41.5 60t108.5 13q-24 -11 -40 -35t-22 -52q-3 -17 -2.5 -35
t5 -34.5t14.5 -29t26 -17.5q20 -7 40 4.5t37 34.5q25 32 45 85q44 118 68.5 236t41.5 238q-10 -22 -19 -41.5t-21 -42.5t-28.5 -52t-41.5 -71q-32 -54 -73.5 -81.5t-77 -22t-58 47t-15.5 124.5q3 32 16.5 86.5t30 118t32.5 129.5t24 120q6 55 0 95q-5 29 -17 48.5t-34 22.5
q-17 3 -31.5 -4t-26 -19t-20 -28t-13.5 -32q-8 -28 -5 -56t19 -49q-68 26 -90 60.5t-9 72.5q11 32 32.5 51t48 28t54 9.5t51.5 -5.5q34 -10 61 -30.5t44 -52.5q18 -35 21.5 -84t-2.5 -103.5t-18.5 -110t-26 -103.5t-25 -84.5t-14.5 -52.5q-13 -59 -11.5 -99.5t15 -54t38 3
t56.5 71.5q40 68 76 137t72 155zM317 1043q19 0 32 -13.5t13 -35.5q0 -23 -13.5 -36t-31.5 -13q-20 0 -34.5 13t-14.5 36q0 22 14.5 35.5t34.5 13.5zM431 1043q19 0 32 -13.5t13 -35.5q0 -23 -13.5 -36t-31.5 -13q-20 0 -34.5 13t-14.5 36q0 22 14.5 35.5t34.5 13.5z" />
    <glyph glyph-name="section" unicode="&#xa7;" horiz-adv-x="614" 
d="M454 11q-25 -50 -66 -77.5t-89 -35t-97.5 5t-90.5 43.5t-67.5 80.5t-29.5 116.5q-3 55 12.5 98.5t50.5 87.5q3 4 16.5 14.5t34 15t47 -1t55.5 -32.5q-21 -13 -43.5 -30t-41.5 -38.5t-32.5 -49t-16.5 -62.5q-6 -61 10 -105t44.5 -71t64.5 -37t70.5 -3.5t63.5 30.5t42 64
q18 57 4.5 120.5t-43.5 128.5q-29 63 -67.5 124.5t-69 123t-46 123.5t1.5 127q10 35 36.5 58.5t59.5 31.5q1 7 2 13t3 13q9 32 32 54.5t52.5 33t62 7.5t60 -20.5t46.5 -51t22 -84.5q1 -7 -3.5 -16.5t-14 -18t-24 -14.5t-33.5 -5q12 32 7.5 63.5t-17.5 56t-31.5 40t-35 15.5
t-27 -18t-8.5 -59q4 -58 28.5 -119t56 -123.5t64 -126t53 -127t22.5 -125.5t-28 -122q-16 -33 -39.5 -56t-52.5 -37q-2 -6 -4.5 -12t-5.5 -11zM260 754q3 -50 21.5 -101.5t44 -105t54 -108t52 -109t38 -109t11.5 -107.5q7 14 11 26q19 57 5.5 120.5t-44.5 128.5
q-24 53 -55.5 105t-60 103.5t-49 103.5t-23.5 105q-8 -19 -5 -52z" />
    <glyph glyph-name="Euro" unicode="&#x20ac;" horiz-adv-x="434" 
d="M34 353q-6 0 -9 4.5t-3 10t3 10.5t9 5h47q1 14 1.5 27.5t2.5 27.5h-54q-6 0 -8.5 4.5t-2.5 10.5t2.5 10.5t6.5 4.5l60 -1q9 78 31 145.5t62 115.5q54 64 116.5 71.5t115.5 -39.5l-14 -22q-39 31 -79.5 13.5t-72.5 -68.5q-26 -41 -40.5 -97t-25.5 -119h45q6 0 8.5 -4.5
t2.5 -9.5t-2.5 -10t-7.5 -5h-50q-2 -14 -3.5 -28t-2.5 -28h54q6 0 9 -4t3.5 -9.5t-2 -10.5t-8.5 -5h-58q-3 -66 5 -127t28 -106q15 -35 34.5 -54t41 -24t44 3t44.5 27l17 -25q-33 -26 -71.5 -36t-75.5 -2t-69.5 35t-52.5 76q-18 48 -27 108t-8 125h-46z" />
    <glyph glyph-name="breve" unicode="&#x2d8;" horiz-adv-x="235" 
d="M225 644q-1 -36 -17.5 -59.5t-40.5 -35.5t-51.5 -12t-51 11.5t-39 34.5t-15.5 56q0 7 5 10t11.5 3t11.5 -3.5t5 -9.5q0 -36 23 -53.5t51.5 -17.5t52.5 18.5t26 56.5q0 5 4.5 8t10 3t10 -2.5t4.5 -7.5z" />
    <glyph glyph-name="quoteleft" unicode="&#x2018;" horiz-adv-x="166" 
d="M117 804q-13 -3 -25 -14.5t-17 -25.5q22 10 41.5 -3.5t19.5 -42.5q-2 -26 -20 -38.5t-37.5 -9.5t-33 22t-6.5 55q6 29 25.5 52t48.5 31z" />
    <glyph glyph-name="guilsinglleft" unicode="&#x2039;" horiz-adv-x="325" 
d="M30 205l241 204q2 2 5.5 0t6.5 -5t4.5 -7t0.5 -5l-169 -185l175 -189q3 -3 -2.5 -12t-10.5 -5z" />
    <glyph glyph-name="guilsinglright" unicode="&#x203a;" horiz-adv-x="325" 
d="M295 205l-241 -204q-2 -2 -5.5 0t-6.5 5t-5 6.5t0 5.5l169 185l-175 189q-3 3 2.5 12t10.5 5z" />
    <glyph glyph-name="OE" unicode="&#x152;" horiz-adv-x="874" 
d="M755 811q49 -2 86 -29.5t48 -74.5q9 -38 -14.5 -71t-94.5 -53q9 10 15.5 25t10 32t4 34.5t-2.5 31.5q-1 4 -4 15.5t-8.5 23.5t-13.5 21t-19 9q-20 -9 -39 -28t-30 -41q-16 -31 -19 -69t7.5 -76.5t33.5 -73t59 -59.5q7 -8 2 -10t-9 -1q-21 6 -44.5 5.5t-47.5 -8t-46 -21
t-40 -32.5q-20 -21 -36 -51.5t-24.5 -66t-9 -73t11.5 -71.5q18 -54 46.5 -76t61 -21t67.5 21t67 50.5t58.5 66.5t42.5 70l20 -13q-17 -48 -52.5 -92.5t-80.5 -78t-95 -52.5t-96 -16t-84.5 32.5t-59.5 91.5q-2 4 -2 7q-33 -38 -73 -60.5t-80.5 -30.5t-79 -1t-70 29
t-52.5 59.5t-26 89.5q-4 40 2.5 87.5t22.5 94t40.5 89.5t56.5 75q-12 51 0 108.5t43 103.5q24 34 59 53t73 22.5t73.5 -7t61.5 -34.5q25 -23 42.5 -57t25.5 -82q9 -55 9.5 -112t-10.5 -119q3 3 7 3q34 19 77 32t74 12q-54 38 -81.5 82.5t-33 88t8 83t40.5 66.5q25 25 57 36
t64 11zM176 495q-29 -30 -50.5 -68.5t-35.5 -79.5t-19.5 -83.5t-1.5 -81.5q7 -72 43 -110t84 -40.5t99 32t88 108.5q18 38 32 81t23 88q-44 -9 -85.5 -0.5t-76.5 29.5t-61 53.5t-39 71.5zM398 531q4 -6 -3 -14t-11 -3q-42 45 -88 48t-98 -45q12 -39 35.5 -71t55.5 -53
t71 -28.5t81 1.5q14 67 16.5 130.5t-8.5 127.5q-6 35 -17.5 64t-28.5 49q-36 45 -84 41t-93 -68q-29 -42 -36.5 -81.5t2.5 -87.5q55 48 108 42t98 -52z" />
    <glyph glyph-name="endash" unicode="&#x2013;" horiz-adv-x="381" 
d="M46 204q-12 0 -18.5 8t-7 17.5t6 17.5t19.5 8l271 -2q12 0 17.5 -7.5t5.5 -17t-5.5 -17t-16.5 -7.5h-272z" />
    <glyph glyph-name="emdash" unicode="&#x2014;" horiz-adv-x="571" 
d="M46 204q-12 0 -18.5 8t-7 17.5t6 17.5t19.5 8l461 -2q12 0 17.5 -7.5t5.5 -17t-5.5 -17t-16.5 -7.5h-462z" />
    <glyph glyph-name="perthousand" unicode="&#x2030;" horiz-adv-x="710" 
d="M208 791q-2 2 -5.5 4.5t-6.5 3.5t-5.5 0t-1.5 -7q2 -15 2 -31.5t-4.5 -36t-16 -43.5t-32.5 -54q-12 -16 -25 -25t-24.5 -10.5t-20.5 4.5t-12 20q-3 15 1 35t13 41.5t20.5 42t23.5 35.5q14 17 29.5 26t31.5 7q3 -1 5 1t3 4.5t0.5 4.5t-3.5 2q-25 5 -53.5 -2t-51.5 -30
q-17 -17 -29 -39.5t-18.5 -45.5t-7 -45.5t4.5 -39.5q6 -19 24 -28.5t41 -9t47 11t42 31.5q16 18 27.5 42.5t16.5 49t1.5 46.5t-16.5 35zM110 5q-2 -5 -10 -6t-16.5 1t-14 7.5t-3.5 12.5l287 835q3 9 12 10.5t17.5 -1t14.5 -9t3 -13.5zM451 224q-2 2 -5.5 4.5t-6.5 3.5
t-5.5 0t-1.5 -7q2 -15 2 -31.5t-4.5 -36t-16 -43.5t-32.5 -54q-12 -16 -25 -25t-24.5 -10.5t-20.5 4.5t-12 20q-3 15 1 35t13 41.5t20.5 42t23.5 35.5q14 17 29.5 26t31.5 7q3 -1 5 1t3 4.5t0.5 4.5t-3.5 2q-25 5 -53.5 -2t-51.5 -30q-17 -17 -29 -39.5t-18.5 -45.5
t-7 -45.5t4.5 -39.5q6 -19 24 -28.5t41 -9t47 11t42 31.5q16 18 27.5 42.5t16.5 49t1.5 46.5t-16.5 35zM662 224q-2 2 -5.5 4.5t-6.5 3.5t-5.5 0t-1.5 -7q2 -15 2 -31.5t-4.5 -36t-16 -43.5t-32.5 -54q-12 -16 -25 -25t-24.5 -10.5t-20.5 4.5t-12 20q-3 15 1 35t13 41.5
t20.5 42t23.5 35.5q14 17 29.5 26t31.5 7q3 -1 5 1t3 4.5t0.5 4.5t-3.5 2q-25 5 -53.5 -2t-51.5 -30q-17 -17 -29 -39.5t-18.5 -45.5t-7 -45.5t4.5 -39.5q6 -19 24 -28.5t41 -9t47 11t42 31.5q16 18 27.5 42.5t16.5 49t1.5 46.5t-16.5 35z" />
    <glyph glyph-name="g" unicode="g" horiz-adv-x="400" 
d="M341 324l-23 -184q12 11 17.5 15.5t11.5 10t17.5 14.5t35.5 30l14 -20q-27 -23 -41 -35t-23 -20t-17 -15t-22 -20q-6 -48 -12.5 -102t-17 -106.5t-25.5 -100.5t-39 -84q-26 -39 -59.5 -55t-63.5 -10.5t-51 31.5t-22 71q-1 35 9.5 70t28.5 64q15 24 30 44t32 40t37.5 41.5
t46.5 48.5l20 160q-8 -20 -17.5 -39.5t-21.5 -36.5q-14 -21 -31 -37t-36 -23t-40.5 -3t-45.5 23q-21 25 -29.5 61.5t-6.5 76.5t14.5 78t32.5 66q27 38 69 53t84 -4q14 -8 27 -19t23 -26q3 21 5 33.5t3 15.5q16 9 33 4.5t30.5 -19.5t20.5 -39t2 -53zM199 11
q-22 -26 -39.5 -46t-32 -38t-27.5 -35.5t-25 -38.5q-14 -26 -21.5 -56.5t-5.5 -53.5q3 -32 14 -46.5t25 -14.5t28.5 13.5t25.5 38.5q8 19 18 58t18.5 81.5t14.5 81t7 56.5zM189 389q-26 -3 -40.5 -23.5t-20.5 -40.5q-15 -36 -20.5 -81.5t-0.5 -83.5q4 -37 23.5 -33.5
t40.5 34.5q14 22 30.5 56t35.5 82q2 15 3.5 29t3.5 26q-12 21 -26.5 29t-28.5 6z" />
    <glyph glyph-name="e" unicode="e" horiz-adv-x="281" 
d="M102 140q7 -25 21.5 -32t32.5 -2.5t38 18t37.5 30t31 32t18.5 25.5l19 -11q-11 -19 -30.5 -41t-43 -42t-48 -35t-44.5 -20q-26 -6 -48 -1.5t-39.5 18t-29.5 34.5t-16 46q-5 32 -3 67t11 68t24 61.5t36 46.5q34 29 71 30.5t64 -15.5t36 -47.5t-13 -66.5q-15 -23 -33 -39
t-36 -26t-33.5 -15.5t-24.5 -6.5q-2 -25 -2 -45t4 -31zM199 315q12 21 9 37t-15 22t-28.5 -0.5t-30.5 -30.5q-11 -20 -18.5 -45.5t-12.5 -52.5q27 5 53.5 24t42.5 46z" />
    <glyph glyph-name="f" unicode="f" horiz-adv-x="248" 
d="M248 210l13 -23q-6 -4 -27.5 -18.5t-49.5 -34.5t-58 -41.5t-53 -38.5q9 -18 17.5 -39t16 -42.5t12.5 -41.5t7 -35q2 -23 -7 -42.5t-23.5 -32.5t-33.5 -18.5t-37 -1t-33.5 20t-23.5 44.5q-8 26 -8.5 62t7.5 82q19 118 32.5 215t22.5 166.5t14 109.5t7 45q16 9 34.5 3
t33 -22t22.5 -39.5t2 -48.5l-60 -350q25 19 53.5 38.5t53 36.5t43 29t23.5 17zM49 -86q-5 -32 2.5 -47.5t18.5 -17t20.5 10t8.5 34.5q-4 25 -15 59.5t-21 59.5v-3q-3 -20 -7.5 -48t-6.5 -48z" />
    </font>
</defs>
</svg>
